<svg width="85" height="85" viewBox="0 0 85 85" fill="none" xmlns="http://www.w3.org/2000/svg">
<g clip-path="url(#clip0_20_440)">
<path opacity="0.5" d="M51.772 1.07007H9.114L1 9.17007V74.9901L9.115 83.0901H74.885L83.5 74.4901V32.7521L51.772 1.07007Z" fill="#0B0C1E"/>
<path d="M51.7723 1.07002L9.1144 1.07031L1 9.17284V74.9929L9.1153 83.0963H74.8855L83.5003 74.4932V32.7521L51.7723 1.07002ZM8.70061 0.0703125H52.1864L84.5003 32.3375V74.9078L75.2993 84.0963H8.70151L0 75.4075V8.7582L8.70061 0.0703125Z" fill="white" fill-opacity="0.2"/>
<path d="M83.1 20.0961V0.996094H64L83.1 20.0961Z" fill="#02BEC5"/>
<path d="M41.9574 41.8546C43.7908 40.8053 45.0435 38.8513 45.0435 36.5919C45.0435 33.2355 42.3129 30.5049 38.9565 30.5049C35.6002 30.5049 32.8695 33.2355 32.8695 36.5919C32.8695 38.8513 34.1222 40.8053 35.9556 41.8546C31.3698 43.0587 28 46.9361 28 51.5317V53.0266C28 53.3626 28.2727 53.6353 28.6087 53.6353C28.9447 53.6353 29.2174 53.3626 29.2174 53.0266V51.5317C29.2174 46.6512 33.5866 42.6788 38.9565 42.6788C44.3264 42.6788 48.6957 46.6512 48.6957 51.5317V53.0266C48.6957 53.3626 48.9684 53.6353 49.3044 53.6353C49.6404 53.6353 49.9131 53.3626 49.9131 53.0266V51.5317C49.913 46.9361 46.5433 43.0575 41.9574 41.8546ZM34.087 36.5919C34.087 33.9063 36.271 31.7223 38.9565 31.7223C41.6421 31.7223 43.8261 33.9063 43.8261 36.5919C43.8261 39.2774 41.6421 41.4614 38.9565 41.4614C36.271 41.4614 34.087 39.2775 34.087 36.5919Z" fill="#02BEC5"/>
<path d="M50.1541 41.8705C51.4737 40.9976 52.3478 39.505 52.3478 37.8092C52.3478 35.1237 50.1638 32.9397 47.4783 32.9397C47.1423 32.9397 46.8696 33.2124 46.8696 33.5484C46.8696 33.8844 47.1423 34.1571 47.4783 34.1571C49.4918 34.1571 51.1305 35.7958 51.1305 37.8093C51.1305 39.8228 49.4918 41.4615 47.4783 41.4615C47.1423 41.4615 46.8696 41.7342 46.8696 42.0702C46.8696 42.4062 47.1422 42.6788 47.4782 42.6788C51.5066 42.6788 54.7826 45.7064 54.7826 49.4292V50.5918C54.7826 50.9278 55.0553 51.2005 55.3913 51.2005C55.7273 51.2005 56 50.9278 56 50.5918V49.4292C56 45.911 53.5457 42.9223 50.1541 41.8705Z" fill="#02BEC5"/>
</g>
<defs>
<clipPath id="clip0_20_440">
<rect width="84.5" height="84.026" fill="white" transform="translate(0 0.0700684)"/>
</clipPath>
</defs>
</svg>
