<svg width="85" height="85" viewBox="0 0 85 85" fill="none" xmlns="http://www.w3.org/2000/svg">
<path opacity="0.5" d="M52.272 1.06982H9.614L1.5 9.16982V74.9898L9.615 83.0898H75.385L84 74.4898V32.7518L52.272 1.06982Z" fill="#0B0C1E"/>
<g clip-path="url(#clip0_20_624)">
<path d="M45.2654 46.1581C45.1779 46.1582 45.0918 46.1353 45.0159 46.0918C44.9399 46.0482 44.8768 45.9855 44.8326 45.9099L42.7803 42.3981C42.6386 42.1559 42.5639 41.8804 42.5639 41.5998V36.303C42.5639 36.1702 42.6167 36.0428 42.7106 35.9489C42.8045 35.855 42.9318 35.8022 43.0646 35.8022C43.1974 35.8022 43.3248 35.855 43.4187 35.9489C43.5126 36.0428 43.5654 36.1702 43.5654 36.303V41.5998C43.5654 41.7028 43.5928 41.8039 43.6448 41.8928L45.6972 45.4048C45.7416 45.4808 45.7652 45.5672 45.7655 45.6553C45.7659 45.7433 45.743 45.8299 45.6992 45.9063C45.6554 45.9827 45.5923 46.0462 45.5161 46.0904C45.4399 46.1346 45.3535 46.158 45.2654 46.1581Z" fill="#02BEC5"/>
<path d="M51.4501 46.6768C52.2879 45.2214 52.7289 43.5715 52.7289 41.8922C52.7289 40.2129 52.2879 38.563 51.4501 37.1076C51.4457 37.0915 51.4404 37.0756 51.4342 37.0601C51.4214 37.0435 51.4075 37.0277 51.3926 37.013C50.5547 35.589 49.3678 34.4021 47.9439 33.5642C47.9327 33.5488 47.9186 33.5358 47.9023 33.5259C47.886 33.516 47.8679 33.5094 47.8491 33.5066C46.3938 32.6689 44.744 32.228 43.0648 32.228C41.3856 32.228 39.7358 32.6689 38.2805 33.5065C38.2616 33.5093 38.2435 33.5159 38.2272 33.5258C38.2109 33.5357 38.1967 33.5488 38.1855 33.5642C36.7614 34.4022 35.5743 35.5893 34.7364 37.0135C34.7217 37.0281 34.708 37.0437 34.6954 37.0601C34.6894 37.0753 34.6841 37.0909 34.6797 37.1067C33.8417 38.5623 33.4005 40.2125 33.4005 41.8922C33.4005 43.5718 33.8417 45.222 34.6797 46.6777C34.6841 46.6935 34.6894 46.709 34.6954 46.7243C34.7126 46.7517 34.7325 46.7773 34.7547 46.8009C35.5915 48.2118 36.7717 49.3881 38.1855 50.2201C38.2003 50.235 38.216 50.2489 38.2326 50.2617C38.2539 50.2723 38.2759 50.2814 38.2985 50.2888C39.7496 51.1194 41.3927 51.5563 43.0647 51.5563C44.7367 51.5563 46.3797 51.1194 47.8309 50.2888C47.8535 50.2814 47.8755 50.2723 47.8968 50.2617C47.9134 50.2489 47.9291 50.235 47.9439 50.2201C49.3572 49.3884 50.5371 48.2126 51.3738 46.8023C51.3965 46.7784 51.4168 46.7522 51.4342 46.7243C51.4404 46.7087 51.4457 46.6929 51.4501 46.6768ZM47.8191 49.1255L47.2691 48.1727C47.2363 48.1157 47.1925 48.0658 47.1403 48.0258C47.0881 47.9857 47.0286 47.9563 46.9651 47.9393C46.9015 47.9223 46.8353 47.9179 46.7701 47.9265C46.7049 47.9351 46.642 47.9564 46.585 47.9893C46.5281 48.0222 46.4781 48.066 46.4381 48.1181C46.3981 48.1703 46.3687 48.2299 46.3517 48.2934C46.3346 48.3569 46.3303 48.4232 46.3389 48.4884C46.3474 48.5536 46.3688 48.6165 46.4017 48.6734L46.9502 49.6237C45.8962 50.155 44.744 50.4634 43.5654 50.5295V49.4336C43.5654 49.3008 43.5127 49.1734 43.4188 49.0795C43.3249 48.9856 43.1975 48.9329 43.0647 48.9329C42.9319 48.9329 42.8045 48.9856 42.7106 49.0795C42.6167 49.1734 42.564 49.3008 42.564 49.4336V50.5295C41.3855 50.4634 40.2332 50.155 39.1792 49.6237L39.7277 48.6734C39.7607 48.6165 39.782 48.5536 39.7906 48.4884C39.7993 48.4231 39.7949 48.3568 39.7779 48.2933C39.7609 48.2297 39.7315 48.1702 39.6915 48.118C39.6514 48.0658 39.6015 48.022 39.5445 47.9891C39.4875 47.9562 39.4246 47.9349 39.3594 47.9263C39.2942 47.9177 39.2279 47.9221 39.1643 47.9391C39.1008 47.9562 39.0412 47.9856 38.9891 48.0257C38.9369 48.0657 38.8931 48.1157 38.8603 48.1727L38.3102 49.1255C37.3248 48.4754 36.4816 47.6321 35.8315 46.6467L36.7842 46.0966C36.8992 46.0302 36.983 45.9208 37.0174 45.7926C37.0517 45.6643 37.0337 45.5276 36.9673 45.4126C36.901 45.2976 36.7916 45.2137 36.6634 45.1793C36.5351 45.1449 36.3985 45.1628 36.2835 45.2291L35.3332 45.7778C34.8019 44.7237 34.4936 43.5715 34.4274 42.3929H35.5236C35.6564 42.3929 35.7837 42.3402 35.8776 42.2463C35.9715 42.1524 36.0243 42.025 36.0243 41.8922C36.0243 41.7594 35.9715 41.632 35.8776 41.5381C35.7837 41.4442 35.6564 41.3915 35.5236 41.3915H34.4274C34.4935 40.2129 34.8019 39.0607 35.3332 38.0066L36.2835 38.5552C36.3985 38.6216 36.5351 38.6395 36.6634 38.6051C36.7916 38.5707 36.901 38.4867 36.9673 38.3717C37.0337 38.2567 37.0517 38.1201 37.0174 37.9918C36.983 37.8636 36.8992 37.7542 36.7842 37.6878L35.8315 37.1377C36.4816 36.1522 37.3248 35.309 38.3102 34.6589L38.8603 35.6117C38.8931 35.6687 38.9369 35.7186 38.9891 35.7587C39.0412 35.7988 39.1008 35.8282 39.1643 35.8452C39.2279 35.8623 39.2942 35.8666 39.3594 35.8581C39.4246 35.8495 39.4875 35.8281 39.5445 35.7953C39.6015 35.7624 39.6514 35.7186 39.6915 35.6664C39.7315 35.6142 39.7609 35.5546 39.7779 35.4911C39.7949 35.4275 39.7993 35.3612 39.7906 35.296C39.782 35.2308 39.7607 35.1679 39.7277 35.1109L39.1792 34.1607C40.2332 33.6294 41.3854 33.321 42.564 33.2548V34.351C42.564 34.4838 42.6167 34.6112 42.7106 34.7051C42.8045 34.799 42.9319 34.8518 43.0647 34.8518C43.1975 34.8518 43.3249 34.799 43.4188 34.7051C43.5127 34.6112 43.5654 34.4838 43.5654 34.351V33.2549C44.744 33.321 45.8962 33.6294 46.9502 34.1607L46.4017 35.111C46.3352 35.226 46.3173 35.3627 46.3517 35.491C46.386 35.6193 46.47 35.7287 46.585 35.7951C46.7001 35.8615 46.8368 35.8795 46.9651 35.8451C47.0934 35.8107 47.2027 35.7267 47.2691 35.6117L47.8191 34.6589C48.8046 35.309 49.6479 36.1523 50.298 37.1378L49.3452 37.6878C49.2302 37.7542 49.1464 37.8636 49.112 37.9918C49.0777 38.1201 49.0957 38.2568 49.162 38.3717C49.2284 38.4867 49.3378 38.5707 49.466 38.6051C49.5942 38.6395 49.7309 38.6216 49.8459 38.5553L50.7962 38.0067C51.3275 39.0607 51.6359 40.213 51.702 41.3915H50.6061C50.4733 41.3915 50.3459 41.4442 50.252 41.5381C50.1581 41.632 50.1054 41.7594 50.1054 41.8922C50.1054 42.025 50.1581 42.1524 50.252 42.2463C50.3459 42.3402 50.4733 42.3929 50.6061 42.3929H51.702C51.6359 43.5715 51.3275 44.7237 50.7962 45.7777L49.8459 45.2291C49.7309 45.1628 49.5942 45.1449 49.466 45.1793C49.3378 45.2137 49.2284 45.2976 49.162 45.4126C49.0957 45.5276 49.0777 45.6643 49.112 45.7926C49.1464 45.9208 49.2302 46.0302 49.3452 46.0966L50.298 46.6466C49.6479 47.6321 48.8046 48.4754 47.8191 49.1255Z" fill="#02BEC5"/>
<path d="M55.9449 50.1719L54.0571 50.6602C55.9931 48.168 57.0304 45.0948 57.0007 41.9391C56.971 38.7835 55.876 35.7304 53.8933 33.2751C51.9107 30.8198 49.1567 29.1064 46.078 28.4127C42.9994 27.7191 39.7767 28.0859 36.9327 29.4536C34.0886 30.8214 31.7901 33.1099 30.4099 35.9479C29.0298 38.786 28.6489 42.007 29.3291 45.0887C30.0093 48.1703 31.7107 50.9318 34.1573 52.9251C36.6039 54.9185 39.6522 56.0268 42.8077 56.0703H42.8145C42.9474 56.0711 43.0751 56.0192 43.1696 55.9259C43.2641 55.8326 43.3176 55.7055 43.3185 55.5727C43.3193 55.4399 43.2674 55.3122 43.174 55.2177C43.0807 55.1232 42.9537 55.0697 42.8209 55.0688C39.8847 55.0309 37.0475 54.0019 34.7696 52.1487C32.4918 50.2956 30.9071 47.727 30.2726 44.86C29.6381 41.9929 29.9911 38.9955 31.2744 36.3543C32.5576 33.7131 34.6957 31.583 37.3417 30.3098C39.9878 29.0365 42.9865 28.6948 45.8511 29.3401C48.7158 29.9854 51.2783 31.5799 53.1229 33.8647C54.9674 36.1495 55.9857 38.9906 56.0125 41.9269C56.0393 44.8632 55.0731 47.7225 53.2706 50.0406L53.4238 48.0732C53.4341 47.9408 53.3914 47.8097 53.3051 47.7088C53.2188 47.6079 53.0959 47.5455 52.9635 47.5352C52.8312 47.5249 52.7001 47.5676 52.5992 47.6539C52.4983 47.7402 52.4358 47.8631 52.4255 47.9954L52.1837 51.0989C52.1743 51.2243 52.195 51.3502 52.244 51.466C52.293 51.5818 52.3689 51.6843 52.4654 51.7649C52.5619 51.8456 52.6762 51.9021 52.7989 51.9297C52.9216 51.9574 53.0491 51.9554 53.1708 51.9239L56.1954 51.1417C56.2591 51.1252 56.3189 51.0964 56.3714 51.0568C56.424 51.0173 56.4682 50.9677 56.5016 50.9111C56.535 50.8544 56.5569 50.7917 56.5661 50.7266C56.5752 50.6615 56.5715 50.5952 56.555 50.5315C56.5386 50.4679 56.5097 50.408 56.4702 50.3555C56.4306 50.303 56.3811 50.2588 56.3244 50.2254C56.2678 50.192 56.2051 50.1701 56.14 50.1609C56.0748 50.1517 56.0086 50.1555 55.9449 50.1719Z" fill="#02BEC5"/>
</g>
<path d="M52.2723 1.07002L9.6144 1.07031L1.5 9.17284V74.9929L9.6153 83.0963H75.3855L84.0003 74.4932V32.7521L52.2723 1.07002ZM9.20061 0.0703125H52.6864L85.0003 32.3375V74.9078L75.7993 84.0963H9.20151L0.5 75.4075V8.7582L9.20061 0.0703125Z" fill="white" fill-opacity="0.2"/>
<path d="M83.6 20.0961V0.996094H64.5L83.6 20.0961Z" fill="#02BEC5"/>
<defs>
<clipPath id="clip0_20_624">
<rect width="28" height="28" fill="white" transform="translate(29 28.0703)"/>
</clipPath>
</defs>
</svg>
