<svg width="85" height="85" viewBox="0 0 85 85" fill="none" xmlns="http://www.w3.org/2000/svg">
<path opacity="0.5" d="M52.272 1.06982H9.614L1.5 9.16982V74.9898L9.615 83.0898H75.385L84 74.4898V32.7518L52.272 1.06982Z" fill="#0B0C1E"/>
<g clip-path="url(#clip0_20_660)">
<path d="M49.9982 30.257V40.7578C49.5091 40.7578 49.1252 41.1539 49.125 41.6311L49.1233 45.5712H31.6259C30.647 45.5712 29.875 46.3601 29.875 47.322V51.6945C29.875 52.6564 30.6503 53.4453 31.6259 53.4453H32.0616V54.7561C32.0607 54.9991 32.2579 55.1962 32.5009 55.1953H35.5625C35.8041 55.1943 36.0009 54.9977 36 54.7561V53.4453H49.9983V54.7561C49.9974 54.9994 50.1951 55.1967 50.4384 55.1953H53.4992C53.7424 55.1967 53.9401 54.9994 53.9392 54.7561V53.4453H54.375C55.3539 53.4453 56.125 52.6564 56.125 51.6945V47.322C56.125 46.3601 55.354 45.5712 54.375 45.5712H53.4992V41.6311C53.4992 41.1539 53.1124 40.7578 52.625 40.7578L52.6241 30.257C52.6241 29.5374 52.0432 28.9453 51.3133 28.9453C50.5835 28.9453 49.9982 29.5374 49.9982 30.257ZM51.3133 29.8212C51.5513 29.8212 51.7491 30.007 51.7491 30.257L51.75 40.7578H50.875L50.8741 30.257C50.8741 30.007 51.0753 29.8212 51.3133 29.8212ZM38.8693 33.8928C35.8702 33.8928 32.9957 35.1017 30.8764 37.2459C30.4498 37.6444 31.1059 38.2937 31.4993 37.8594C33.4558 35.88 36.1047 34.7687 38.8693 34.7687C41.6343 34.7687 44.2863 35.8797 46.2428 37.8594C46.6389 38.2966 47.2889 37.6412 46.8657 37.2459C44.7463 35.1014 41.8687 33.8928 38.8693 33.8928ZM38.8693 36.6451C36.5905 36.6451 34.4081 37.5608 32.7982 39.1898C32.3459 39.5745 33.0493 40.2451 33.4177 39.8033C34.8647 38.3392 36.8249 37.5167 38.8693 37.5167C40.9135 37.5167 42.874 38.3395 44.321 39.8033C44.7223 40.2268 45.3599 39.5964 44.9448 39.1898C43.3349 37.5611 41.148 36.6451 38.8693 36.6451ZM38.8693 39.3932C37.3112 39.3932 35.8203 40.0171 34.7199 41.1304C34.2951 41.5223 34.9419 42.1819 35.3394 41.7473C36.2769 40.7989 37.5456 40.2682 38.8693 40.2682C40.1932 40.2682 41.4651 40.7987 42.4027 41.7473C42.8087 42.1755 43.4438 41.5347 43.0256 41.1304C41.9252 40.0169 40.4277 39.3932 38.8693 39.3932ZM50 41.6328H52.6241V45.5712H49.9982L50 41.6328ZM38.8693 42.1412C38.0314 42.1412 37.2292 42.477 36.6383 43.0752C36.2087 43.4905 36.8501 44.1257 37.2612 43.6921C37.6892 43.2588 38.2659 43.0171 38.8693 43.0171C39.4724 43.0171 40.0529 43.2593 40.4809 43.6921C40.8921 44.1226 41.5295 43.4887 41.1013 43.0752C40.5104 42.4776 39.7068 42.1412 38.8693 42.1412ZM31.6258 46.447H54.375C54.8673 46.447 55.25 46.8365 55.25 47.322V51.6945C55.25 52.1868 54.8552 52.5695 54.375 52.5695H31.6258C31.1403 52.5695 30.7508 52.1868 30.7508 51.6945V47.322C30.7508 46.8365 31.1335 46.447 31.6258 46.447ZM33.8107 47.322C33.0808 47.322 32.5 47.9131 32.5 48.6328C32.5 49.3525 33.0814 49.9445 33.8107 49.9445C34.5401 49.9445 35.1258 49.3525 35.1258 48.6328C35.1258 47.9131 34.5407 47.322 33.8107 47.322ZM37.315 47.322C36.5784 47.322 36 47.9131 36 48.6328C36 49.3525 36.5868 49.9445 37.315 49.9445C38.0433 49.9445 38.6258 49.3525 38.6258 48.6328C38.6258 47.9131 38.0516 47.322 37.315 47.322ZM40.8142 47.322C40.0824 47.322 39.4991 47.9131 39.4991 48.6328C39.4991 49.3525 40.0859 49.9445 40.8142 49.9445C41.5424 49.9445 42.125 49.3525 42.125 48.6328C42.125 47.9131 41.5459 47.322 40.8142 47.322ZM33.8107 48.1936C34.0439 48.1936 34.2508 48.386 34.2508 48.6328C34.2508 48.8796 34.0473 49.0686 33.8107 49.0686C33.5742 49.0686 33.375 48.8796 33.375 48.6328C33.375 48.386 33.5776 48.1936 33.8107 48.1936ZM37.315 48.1936C37.5497 48.1936 37.7508 48.386 37.7508 48.6328C37.7508 48.8796 37.5516 49.0686 37.315 49.0686C37.0785 49.0686 36.875 48.8796 36.875 48.6328C36.875 48.386 37.0803 48.1936 37.315 48.1936ZM40.8142 48.1936C41.0441 48.1936 41.25 48.386 41.25 48.6328C41.25 48.8796 41.0524 49.0686 40.8142 49.0686C40.5759 49.0686 40.3741 48.8796 40.3741 48.6328C40.3741 48.386 40.5843 48.1936 40.8142 48.1936ZM43.4357 48.1936C42.8651 48.1936 42.8651 49.0686 43.4357 49.0686H47.3767C47.9473 49.0686 47.9473 48.1936 47.3767 48.1936H43.4357ZM49.3428 48.1936C48.7722 48.1936 48.7722 49.0686 49.3428 49.0686H50.4383C51.009 49.0686 51.009 48.1936 50.4383 48.1936H49.3428ZM32.9366 53.4453H35.125V54.3203H32.9366V53.4453ZM50.875 53.4453H53.0625V54.3203H50.875V53.4453Z" fill="#02BEC5"/>
</g>
<path d="M52.2723 1.07002L9.6144 1.07031L1.5 9.17284V74.9929L9.6153 83.0963H75.3855L84.0003 74.4932V32.7521L52.2723 1.07002ZM9.20061 0.0703125H52.6864L85.0003 32.3375V74.9078L75.7993 84.0963H9.20151L0.5 75.4075V8.7582L9.20061 0.0703125Z" fill="white" fill-opacity="0.2"/>
<path d="M83.6 20.0961V0.996094H64.5L83.6 20.0961Z" fill="#02BEC5"/>
<defs>
<clipPath id="clip0_20_660">
<rect width="28" height="28" fill="white" transform="translate(29 28.0703)"/>
</clipPath>
</defs>
</svg>
