<svg width="85" height="85" viewBox="0 0 85 85" fill="none" xmlns="http://www.w3.org/2000/svg">
<g clip-path="url(#clip0_20_467)">
<path opacity="0.5" d="M52.272 1.07007H9.614L1.5 9.17007V74.9901L9.615 83.0901H75.385L84 74.4901V32.7521L52.272 1.07007Z" fill="#0B0C1E"/>
<g clip-path="url(#clip1_20_467)">
<path d="M35.24 40.1027C35.4665 40.1027 35.6502 39.9192 35.6502 39.6926V33.4568C35.6502 33.2302 35.4665 33.0466 35.24 33.0466H32.9908C32.7642 33.0466 32.5806 33.2302 32.5806 33.4568V39.6926C32.5806 39.9192 32.7642 40.1027 32.9908 40.1027H35.24ZM33.4009 33.8669H34.8298V39.2824H33.4009V33.8669Z" fill="#02BEC5"/>
<path d="M38.9611 40.1027C39.1876 40.1027 39.3713 39.9192 39.3713 39.6926V35.0427C39.3713 34.8162 39.1876 34.6326 38.9611 34.6326H36.7119C36.4853 34.6326 36.3017 34.8162 36.3017 35.0427V39.6926C36.3017 39.9192 36.4853 40.1027 36.7119 40.1027H38.9611ZM37.122 35.4529H38.5509V39.2824H37.122V35.4529Z" fill="#02BEC5"/>
<path d="M42.6822 40.1026C42.9087 40.1026 43.0924 39.9191 43.0924 39.6925V31.8799C43.0924 31.6533 42.9087 31.4697 42.6822 31.4697H40.433C40.2064 31.4697 40.0228 31.6533 40.0228 31.8799V39.6925C40.0228 39.9191 40.2064 40.1026 40.433 40.1026H42.6822ZM40.8431 32.29H42.272V39.2823H40.8431V32.29Z" fill="#02BEC5"/>
<path d="M46.4034 40.1026C46.6299 40.1026 46.8135 39.9191 46.8135 39.6925V36.4736C46.8135 36.2471 46.6299 36.0635 46.4034 36.0635H44.1541C43.9275 36.0635 43.744 36.2471 43.744 36.4736V39.6925C43.744 39.9191 43.9275 40.1026 44.1541 40.1026H46.4034ZM44.5643 36.8838H45.9932V39.2823H44.5643V36.8838Z" fill="#02BEC5"/>
<path d="M31.4964 41.4468C31.4964 41.6733 31.68 41.8569 31.9065 41.8569H47.4876C47.7142 41.8569 47.8978 41.6733 47.8978 41.4468C47.8978 41.2202 47.7142 41.0366 47.4876 41.0366H31.9065C31.68 41.0366 31.4964 41.2202 31.4964 41.4468Z" fill="#02BEC5"/>
<path d="M46.818 46.3356V44.2805C46.818 44.0539 46.6344 43.8704 46.4078 43.8704H32.9908C32.7642 43.8704 32.5806 44.0539 32.5806 44.2805V46.3356C32.5806 46.5622 32.7642 46.7458 32.9908 46.7458H39.2869V53.0685C39.2869 53.295 39.4705 53.4786 39.697 53.4786C39.9235 53.4786 40.1072 53.295 40.1072 53.0685V46.7458H46.4078C46.6344 46.7458 46.818 46.5622 46.818 46.3356ZM33.4009 44.6907H39.2869V45.9255H33.4009V44.6907ZM45.9977 45.9255H40.1117V44.6907H45.9976V45.9255H45.9977Z" fill="#02BEC5"/>
<path d="M37.4403 47.9807H33.8386C33.6121 47.9807 33.4285 48.1643 33.4285 48.3909C33.4285 48.6174 33.6121 48.801 33.8386 48.801H37.4403C37.6669 48.801 37.8505 48.6174 37.8505 48.3909C37.8505 48.1643 37.6669 47.9807 37.4403 47.9807Z" fill="#02BEC5"/>
<path d="M37.4403 50.0356H33.8386C33.6121 50.0356 33.4285 50.2192 33.4285 50.4458C33.4285 50.6724 33.6121 50.856 33.8386 50.856H37.4403C37.6669 50.856 37.8505 50.6724 37.8505 50.4458C37.8505 50.2192 37.6669 50.0356 37.4403 50.0356Z" fill="#02BEC5"/>
<path d="M37.4403 52.0908H33.8386C33.6121 52.0908 33.4285 52.2744 33.4285 52.501C33.4285 52.7275 33.6121 52.9111 33.8386 52.9111H37.4403C37.6669 52.9111 37.8505 52.7275 37.8505 52.501C37.8505 52.2744 37.6669 52.0908 37.4403 52.0908Z" fill="#02BEC5"/>
<path d="M45.5555 47.9807H41.9538C41.7273 47.9807 41.5436 48.1643 41.5436 48.3909C41.5436 48.6174 41.7273 48.801 41.9538 48.801H45.5555C45.7821 48.801 45.9656 48.6174 45.9656 48.3909C45.9656 48.1643 45.782 47.9807 45.5555 47.9807Z" fill="#02BEC5"/>
<path d="M45.5555 50.0356H41.9538C41.7273 50.0356 41.5436 50.2192 41.5436 50.4458C41.5436 50.6724 41.7273 50.856 41.9538 50.856H45.5555C45.7821 50.856 45.9656 50.6724 45.9656 50.4458C45.9656 50.2192 45.782 50.0356 45.5555 50.0356Z" fill="#02BEC5"/>
<path d="M45.5555 52.0908H41.9538C41.7273 52.0908 41.5436 52.2744 41.5436 52.501C41.5436 52.7275 41.7273 52.9111 41.9538 52.9111H45.5555C45.7821 52.9111 45.9656 52.7275 45.9656 52.501C45.9656 52.2744 45.782 52.0908 45.5555 52.0908Z" fill="#02BEC5"/>
<path d="M53.5915 47.8642C53.7932 47.761 53.873 47.5139 53.7699 47.3122C53.6667 47.1105 53.4196 47.0307 53.2179 47.1339C52.9216 47.2855 52.6027 47.3624 52.2701 47.3624C51.1146 47.3624 50.1746 46.4194 50.1746 45.2603C50.1746 44.1012 51.1146 43.1582 52.2701 43.1582C53.4256 43.1582 54.3656 44.1012 54.3656 45.2603C54.3656 45.5732 54.2982 45.8747 54.1649 46.1568C54.0681 46.3616 54.1558 46.6061 54.3606 46.7028C54.5654 46.7996 54.8099 46.712 54.9066 46.5071C55.0919 46.1147 55.1859 45.6953 55.1859 45.2603C55.1859 43.6489 53.8778 42.3379 52.27 42.3379C50.6623 42.3379 49.3542 43.6489 49.3542 45.2603C49.3542 46.8716 50.6623 48.1827 52.27 48.1827C52.7338 48.1827 53.1784 48.0755 53.5915 47.8642Z" fill="#02BEC5"/>
<path d="M56.9698 50.2699C56.9698 49.6517 56.4669 49.1488 55.8487 49.1488H54.8814C56.129 48.3059 56.9511 46.8775 56.9511 45.2603C56.9511 42.6756 54.8512 40.5727 52.2701 40.5727C51.5914 40.5727 50.9466 40.7193 50.3639 40.9806V33.1195C50.3639 33.0123 50.3196 32.9053 50.2438 32.8295L45.6045 28.1902C45.5286 28.1143 45.4218 28.0701 45.3145 28.0701H30.5341C29.7048 28.0701 29.0302 28.7447 29.0302 29.574V31.88C29.0302 32.1066 29.2138 32.2901 29.4403 32.2901C29.6669 32.2901 29.8505 32.1066 29.8505 31.88V29.574C29.8505 29.197 30.1571 28.8904 30.5341 28.8904H44.9043V32.0258C44.9043 32.855 45.579 33.5297 46.4082 33.5297H49.5436V41.4536C48.3612 42.3052 47.5891 43.6937 47.5891 45.2603C47.5891 46.8775 48.4112 48.306 49.6588 49.1488H48.6914C48.0732 49.1488 47.5703 49.6517 47.5703 50.2699V50.8817C47.5703 51.1514 47.6661 51.399 47.8253 51.5926C47.6661 51.7863 47.5703 52.0339 47.5703 52.3036V52.9154C47.5703 53.185 47.6661 53.4327 47.8253 53.6263C47.6661 53.82 47.5703 54.0676 47.5703 54.3372V54.949C47.5703 55.0533 47.5858 55.1539 47.6125 55.2498H30.5341C30.1571 55.2498 29.8505 54.9431 29.8505 54.5662V33.6755C29.8505 33.449 29.6669 33.2654 29.4403 33.2654C29.2138 33.2654 29.0302 33.449 29.0302 33.6755V54.5662C29.0302 55.3954 29.7048 56.0701 30.5341 56.0701H55.8488C56.467 56.0701 56.9699 55.5672 56.9699 54.949V54.3372C56.9699 54.0675 56.8741 53.8199 56.7149 53.6262C56.8741 53.4326 56.9699 53.185 56.9699 52.9153V52.3035C56.9699 52.0339 56.8741 51.7862 56.7149 51.5926C56.8741 51.3989 56.9699 51.1513 56.9699 50.8816V50.2699H56.9698ZM46.4082 32.7094C46.0313 32.7094 45.7246 32.4027 45.7246 32.0258V29.4704L48.9636 32.7094H46.4082ZM48.4094 45.2603C48.4094 43.1279 50.1413 41.393 52.2701 41.393C54.3989 41.393 56.1308 43.1279 56.1308 45.2603C56.1308 47.3927 54.3989 49.1276 52.2701 49.1276C50.1413 49.1276 48.4094 47.3927 48.4094 45.2603ZM48.3906 50.2699C48.3906 50.104 48.5256 49.9691 48.6914 49.9691H55.8488C56.0146 49.9691 56.1495 50.104 56.1495 50.2699V50.8817C56.1495 51.0475 56.0146 51.1825 55.8488 51.1825H48.6914C48.5256 51.1825 48.3906 51.0475 48.3906 50.8817V50.2699ZM56.1495 52.3036V52.9154C56.1495 53.0812 56.0146 53.2161 55.8487 53.2161H48.6914C48.5256 53.2161 48.3906 53.0812 48.3906 52.9154V52.3036C48.3906 52.1378 48.5256 52.0028 48.6914 52.0028H55.8488C56.0146 52.0028 56.1495 52.1378 56.1495 52.3036ZM56.1495 54.949C56.1495 55.1148 56.0146 55.2498 55.8487 55.2498H48.6914C48.5256 55.2498 48.3906 55.1148 48.3906 54.949V54.3372C48.3906 54.1713 48.5256 54.0364 48.6914 54.0364H55.8488C56.0146 54.0364 56.1495 54.1713 56.1495 54.3372V54.949H56.1495Z" fill="#02BEC5"/>
</g>
<path d="M52.2723 1.07002L9.6144 1.07031L1.5 9.17284V74.9929L9.6153 83.0963H75.3855L84.0003 74.4932V32.7521L52.2723 1.07002ZM9.20061 0.0703125H52.6864L85.0003 32.3375V74.9078L75.7993 84.0963H9.20151L0.5 75.4075V8.7582L9.20061 0.0703125Z" fill="white" fill-opacity="0.2"/>
<path d="M83.6 20.0961V0.996094H64.5L83.6 20.0961Z" fill="#02BEC5"/>
</g>
<defs>
<clipPath id="clip0_20_467">
<rect width="84.5" height="84.026" fill="white" transform="translate(0.5 0.0700684)"/>
</clipPath>
<clipPath id="clip1_20_467">
<rect width="28" height="28" fill="white" transform="translate(29 28.0701)"/>
</clipPath>
</defs>
</svg>
