<svg width="85" height="85" viewBox="0 0 85 85" fill="none" xmlns="http://www.w3.org/2000/svg">
<path opacity="0.5" d="M51.772 1.06982H9.114L1 9.16982V74.9898L9.115 83.0898H74.885L83.5 74.4898V32.7518L51.772 1.06982Z" fill="#0B0C1E"/>
<path d="M51.7723 1.07002L9.1144 1.07031L1 9.17284V74.9929L9.1153 83.0963H74.8855L83.5003 74.4932V32.7521L51.7723 1.07002ZM8.70061 0.0703125H52.1864L84.5003 32.3375V74.9078L75.2993 84.0963H8.70151L0 75.4075V8.7582L8.70061 0.0703125Z" fill="white" fill-opacity="0.2"/>
<path d="M32.0362 47.5594C31.9788 47.4604 31.8848 47.3878 31.7745 47.3572C31.6642 47.3267 31.5463 47.3405 31.4461 47.3959C31.3459 47.4512 31.2713 47.5436 31.2384 47.6532C31.2056 47.7629 31.217 47.8811 31.2702 47.9824C35.8245 56.3822 48.1771 56.3803 52.7299 47.9822C52.7857 47.8807 52.7989 47.7611 52.7667 47.6498C52.7344 47.5384 52.6593 47.4445 52.5579 47.3885C52.4564 47.3324 52.3368 47.319 52.2255 47.351C52.1141 47.3831 52.02 47.458 51.9638 47.5594C50.9814 49.3421 49.5387 50.8286 47.7862 51.8638C46.0336 52.8991 44.0354 53.4452 42 53.4452C39.9645 53.4452 37.9663 52.8991 36.2138 51.8638C34.4613 50.8286 33.0186 49.3421 32.0362 47.5594Z" fill="#02BEC5"/>
<path d="M50.6274 34.6677C50.7035 34.7532 50.8101 34.8054 50.9243 34.8132C51.0386 34.821 51.1513 34.7838 51.2383 34.7094C51.3254 34.635 51.3798 34.5295 51.3899 34.4155C51.4001 34.3015 51.3651 34.188 51.2926 34.0995C46.6117 28.4328 37.3878 28.4332 32.7074 34.0996C32.6347 34.1882 32.5996 34.3017 32.6097 34.4158C32.6198 34.53 32.6742 34.6356 32.7614 34.71C32.8485 34.7844 32.9613 34.8217 33.0756 34.8137C33.19 34.8058 33.2966 34.7534 33.3726 34.6677C37.7186 29.4071 46.282 29.4077 50.6274 34.6677Z" fill="#02BEC5"/>
<path d="M36.2792 34.3341C36.1885 34.4042 36.129 34.507 36.1133 34.6206C36.0977 34.7341 36.1272 34.8492 36.1955 34.9412C36.2638 35.0332 36.3655 35.0947 36.4787 35.1125C36.5919 35.1303 36.7076 35.103 36.8009 35.0365C38.3069 33.9261 40.1289 33.327 42 33.327C43.8712 33.327 45.6931 33.9261 47.1991 35.0366C47.2924 35.1029 47.408 35.13 47.5211 35.1121C47.6342 35.0942 47.7358 35.0327 47.804 34.9408C47.8723 34.8489 47.9018 34.7339 47.8862 34.6205C47.8707 34.5071 47.8113 34.4042 47.7208 34.3341C46.0638 33.112 44.0589 32.4526 42 32.4526C39.941 32.4526 37.9362 33.112 36.2792 34.3341Z" fill="#02BEC5"/>
<path d="M42 51.6955C43.4515 51.6984 44.8847 51.3711 46.191 50.7383C47.4974 50.1055 48.6426 49.1838 49.54 48.0429C49.6094 47.9517 49.6402 47.8369 49.6258 47.7233C49.6115 47.6096 49.5531 47.5061 49.4633 47.4349C49.3735 47.3638 49.2593 47.3307 49.1454 47.3428C49.0315 47.3548 48.9268 47.4111 48.8539 47.4995C45.4981 51.8995 38.5015 51.899 35.1461 47.4994C35.0732 47.4111 34.9685 47.3549 34.8546 47.3428C34.7407 47.3308 34.6266 47.3639 34.5368 47.4351C34.447 47.5062 34.3887 47.6097 34.3743 47.7233C34.3599 47.837 34.3907 47.9517 34.46 48.043C35.3574 49.1838 36.5026 50.1055 37.809 50.7383C39.1153 51.3711 40.5485 51.6984 42 51.6955Z" fill="#02BEC5"/>
<path d="M29.9809 43.1939C29.8271 43.4863 29.7509 43.8133 29.7596 44.1435C29.7684 44.4738 29.8617 44.7963 30.0308 45.0801C30.1999 45.3639 30.4391 45.5995 30.7254 45.7644C31.0116 45.9293 31.3355 46.018 31.6658 46.0218L36.5341 46.0219C36.5325 46.3106 36.5877 46.5969 36.6967 46.8643C36.8057 47.1317 36.9664 47.375 37.1695 47.5803C37.3725 47.7856 37.6141 47.9488 37.8803 48.0607C38.1465 48.1726 38.4321 48.231 38.7209 48.2324L45.2791 48.2324C45.5682 48.2323 45.8545 48.1748 46.1213 48.0633C46.388 47.9519 46.6301 47.7887 46.8334 47.5831C47.0368 47.3776 47.1974 47.1338 47.3059 46.8658C47.4145 46.5978 47.4688 46.311 47.4659 46.0219H52.3342C52.6646 46.018 52.9884 45.9294 53.2747 45.7644C53.561 45.5995 53.8001 45.3639 53.9692 45.0801C54.1383 44.7962 54.2317 44.4738 54.2404 44.1435C54.2491 43.8132 54.1729 43.4863 54.0191 43.1939C53.4209 42.0858 52.4306 41.241 51.242 40.8251C51.5742 40.5693 51.8433 40.2406 52.0286 39.8644C52.2139 39.4883 52.3104 39.0746 52.3108 38.6553C52.1803 35.0199 46.9466 35.0198 46.8168 38.6553C46.8171 39.0747 46.9137 39.4885 47.099 39.8647C47.2844 40.2409 47.5536 40.5696 47.8859 40.8254C46.8136 41.2031 45.9004 41.9321 45.2947 42.8942C44.8407 42.5894 44.3466 42.3492 43.8265 42.1805C44.2417 41.8884 44.5807 41.5007 44.8148 41.0502C45.0489 40.5997 45.1713 40.0995 45.1717 39.5918C45.0235 35.3955 38.977 35.3939 38.8284 39.5919C38.8288 40.0996 38.9512 40.5997 39.1853 41.0502C39.4193 41.5007 39.7583 41.8884 40.1735 42.1805C39.6532 42.3493 39.1588 42.5896 38.7048 42.8946C38.098 41.9335 37.1852 41.2047 36.1137 40.8257C36.4461 40.5698 36.7155 40.2411 36.9009 39.8649C37.0863 39.4886 37.1829 39.0748 37.1832 38.6553C37.0573 35.0234 31.8178 35.0179 31.6893 38.6553C31.6896 39.0746 31.7861 39.4883 31.9714 39.8644C32.1567 40.2406 32.4258 40.5692 32.758 40.8251C31.5695 41.241 30.5791 42.0858 29.9809 43.1939ZM47.6918 38.6553C47.6965 38.1619 47.8958 37.6904 48.2464 37.3431C48.5969 36.9959 49.0704 36.8011 49.5638 36.8011C50.0572 36.8011 50.5306 36.9959 50.8812 37.3432C51.2317 37.6904 51.431 38.162 51.4357 38.6553C51.431 39.1487 51.2317 39.6203 50.8812 39.9675C50.5306 40.3147 50.0571 40.5095 49.5637 40.5095C49.0703 40.5095 48.5969 40.3147 48.2463 39.9675C47.8958 39.6203 47.6965 39.1487 47.6918 38.6553ZM49.5607 41.4021C50.3175 41.4016 51.0603 41.6065 51.7097 41.995C52.3592 42.3836 52.891 42.9412 53.2484 43.6084C53.3322 43.7672 53.3738 43.9449 53.3693 44.1245C53.3647 44.304 53.3141 44.4794 53.2224 44.6338C53.1307 44.7882 53.0008 44.9165 52.8453 45.0063C52.6898 45.0961 52.5138 45.1445 52.3342 45.1469H47.2714C46.9566 44.4992 46.5202 43.9182 45.9859 43.4355C46.3563 42.8175 46.88 42.3056 47.5063 41.9494C48.1325 41.5932 48.8402 41.4047 49.5607 41.4021ZM39.7034 39.5918C39.7999 36.5567 44.2006 36.5574 44.2967 39.5919C44.2002 42.6273 39.7994 42.6266 39.7034 39.5918ZM46.4338 45.4152C46.5397 45.6157 46.5924 45.8402 46.5867 46.0669C46.581 46.2937 46.5172 46.5152 46.4012 46.7102C46.2853 46.9052 46.1212 47.0671 45.9247 47.1804C45.7282 47.2938 45.5059 47.3547 45.2791 47.3574L38.7209 47.3575C38.4932 47.357 38.2695 47.2974 38.0717 47.1846C37.874 47.0719 37.7088 46.9097 37.5925 46.714C37.4761 46.5182 37.4125 46.2957 37.4079 46.068C37.4034 45.8404 37.4579 45.6155 37.5663 45.4152C39.3998 41.9053 44.6007 41.9056 46.4338 45.4152ZM32.5643 38.6553C32.5689 38.1619 32.7682 37.6902 33.1188 37.343C33.4693 36.9957 33.9428 36.8009 34.4363 36.8009C34.9297 36.8009 35.4032 36.9957 35.7538 37.343C36.1043 37.6903 36.3036 38.1619 36.3082 38.6553C36.3036 39.1488 36.1043 39.6204 35.7537 39.9677C35.4032 40.3149 34.9297 40.5097 34.4362 40.5097C33.9428 40.5097 33.4693 40.3149 33.1188 39.9676C32.7682 39.6204 32.5689 39.1487 32.5643 38.6553ZM34.4322 41.4021C35.1538 41.4041 35.8626 41.5923 36.4901 41.9486C37.1175 42.3049 37.6424 42.8172 38.0138 43.4358C37.4797 43.9185 37.0434 44.4994 36.7286 45.1469H31.6658C31.4862 45.1445 31.3102 45.0961 31.1547 45.0063C30.9992 44.9164 30.8694 44.7882 30.7776 44.6337C30.6859 44.4793 30.6353 44.304 30.6308 44.1244C30.6263 43.9449 30.6679 43.7672 30.7517 43.6083C31.1085 42.9423 31.6391 42.3854 32.2872 41.9969C32.9353 41.6084 33.6766 41.4028 34.4322 41.4021Z" fill="#02BEC5"/>
<path d="M83.1 20.0961V0.996094H64L83.1 20.0961Z" fill="#02BEC5"/>
</svg>
