<svg width="85" height="85" viewBox="0 0 85 85" fill="none" xmlns="http://www.w3.org/2000/svg">
<g clip-path="url(#clip0_20_503)">
<path opacity="0.5" d="M51.772 1.07007H9.114L1 9.17007V74.9901L9.115 83.0901H74.885L83.5 74.4901V32.7521L51.772 1.07007Z" fill="#0B0C1E"/>
<g clip-path="url(#clip1_20_503)">
<path d="M48.0667 40.2034C47.597 40.2057 47.1286 40.2496 46.6667 40.3345V32.6574C46.6673 32.4727 46.6312 32.2897 46.5605 32.119C46.4897 31.9484 46.3858 31.7935 46.2546 31.6634L43.0733 28.4821C42.9432 28.351 42.7884 28.247 42.6177 28.1763C42.4471 28.1055 42.2641 28.0694 42.0793 28.0701H29.4C29.0287 28.0701 28.6726 28.2176 28.4101 28.4801C28.1475 28.7427 28 29.0988 28 29.4701V51.8701C28 52.2414 28.1475 52.5975 28.4101 52.86C28.6726 53.1226 29.0287 53.2701 29.4 53.2701H42.0289C42.8913 54.2844 43.9952 55.0653 45.2388 55.5407C46.4824 56.0161 47.8257 56.1708 49.1448 55.9904C50.4639 55.8101 51.7164 55.3005 52.7867 54.5087C53.8571 53.7169 54.7108 52.6684 55.2693 51.4598C55.8277 50.2512 56.0729 48.9215 55.9822 47.5932C55.8915 46.2649 55.4678 44.9808 54.7502 43.8594C54.0326 42.7379 53.0443 41.8152 51.8762 41.1763C50.7082 40.5373 49.398 40.2028 48.0667 40.2034ZM45.0735 31.8034H42.9333V29.6633L45.0735 31.8034ZM29.4 52.3367C29.2762 52.3367 29.1575 52.2876 29.07 52.2001C28.9825 52.1125 28.9333 51.9938 28.9333 51.8701V29.4701C28.9333 29.3463 28.9825 29.2276 29.07 29.1401C29.1575 29.0526 29.2762 29.0034 29.4 29.0034H42V31.8034C42 32.0509 42.0983 32.2883 42.2734 32.4634C42.4484 32.6384 42.6858 32.7367 42.9333 32.7367H45.7333V40.5548C44.7047 40.8738 43.752 41.3993 42.9333 42.099V41.1367C42.9315 40.766 42.7834 40.411 42.5213 40.1488C42.2591 39.8867 41.9041 39.7386 41.5333 39.7367C41.162 39.7367 40.8059 39.8842 40.5434 40.1468C40.2808 40.4093 40.1333 40.7654 40.1333 41.1367V43.0034C40.1348 43.2994 40.2301 43.5873 40.4054 43.8257C40.5807 44.0642 40.8271 44.2409 41.1091 44.3306C40.4302 45.5647 40.0941 46.9581 40.1359 48.3661C40.1777 49.774 40.5957 51.1451 41.3467 52.3367H29.4ZM41.5333 43.4701C41.4096 43.4701 41.2909 43.4209 41.2034 43.3334C41.1158 43.2459 41.0667 43.1272 41.0667 43.0034V41.1367C41.0667 41.013 41.1158 40.8943 41.2034 40.8068C41.2909 40.7192 41.4096 40.6701 41.5333 40.6701C41.5956 40.67 41.6573 40.6826 41.7145 40.7072C41.7718 40.7319 41.8233 40.768 41.8661 40.8133C41.909 40.8555 41.943 40.9058 41.966 40.9614C41.989 41.017 42.0006 41.0766 42 41.1367V43.0034C42 43.0169 41.9967 43.0267 41.9958 43.0398C41.8899 43.1658 41.7923 43.2988 41.6939 43.4318C41.6434 43.4551 41.5888 43.4681 41.5333 43.4701ZM48.0667 55.1367C46.6822 55.1367 45.3288 54.7262 44.1777 53.957C43.0265 53.1879 42.1293 52.0946 41.5995 50.8155C41.0697 49.5364 40.9311 48.129 41.2012 46.7711C41.4713 45.4132 42.138 44.166 43.1169 43.187C44.0959 42.208 45.3432 41.5413 46.701 41.2712C48.0589 41.0012 49.4664 41.1398 50.7455 41.6696C52.0245 42.1994 53.1178 43.0966 53.887 44.2478C54.6561 45.3989 55.0667 46.7523 55.0667 48.1367C55.0646 49.9926 54.3264 51.7719 53.0141 53.0842C51.7018 54.3965 49.9225 55.1346 48.0667 55.1367Z" fill="#02BEC5"/>
<path d="M52.4921 44.4472C52.4563 44.2653 52.3673 44.0982 52.2362 43.9671C52.1051 43.8361 51.938 43.747 51.7561 43.7113L50.6431 43.4882C50.4916 43.4576 50.3348 43.4651 50.1869 43.5099C50.0389 43.5547 49.9044 43.6354 49.7952 43.7449L46.382 47.1567C45.8621 47.1268 45.3441 47.2414 44.8854 47.4878C44.4266 47.7342 44.045 48.1028 43.7829 48.5527C43.5208 49.0027 43.3883 49.5164 43.4002 50.037C43.4121 50.5576 43.5679 51.0648 43.8503 51.5023C44.081 51.8583 44.3884 52.1582 44.75 52.38C45.1116 52.6018 45.5182 52.7399 45.9401 52.7842C46.0381 52.7938 46.1356 52.7988 46.2327 52.7991C46.6164 52.7996 46.9961 52.7217 47.3486 52.5701C47.7011 52.4185 48.0188 52.1965 48.2824 51.9176C48.5459 51.6387 48.7497 51.3089 48.8811 50.9484C49.0125 50.5879 49.0689 50.2044 49.0467 49.8213L52.4594 46.41C52.5685 46.3007 52.6489 46.1661 52.6935 46.0183C52.7381 45.8705 52.7455 45.7139 52.7151 45.5625L52.4921 44.4472ZM51.8 45.7483L50.9045 46.6433L50.5661 46.3055C50.4781 46.2205 50.3602 46.1734 50.2379 46.1745C50.1155 46.1755 49.9985 46.2246 49.912 46.3111C49.8254 46.3977 49.7764 46.5147 49.7753 46.6371C49.7742 46.7594 49.8213 46.8773 49.9063 46.9653L50.2446 47.3032L49.5689 47.978L49.231 47.6401C49.188 47.5956 49.1365 47.56 49.0795 47.5355C49.0226 47.5111 48.9614 47.4982 48.8994 47.4977C48.8374 47.4971 48.776 47.5089 48.7186 47.5324C48.6613 47.5559 48.6092 47.5905 48.5653 47.6343C48.5215 47.6782 48.4869 47.7303 48.4634 47.7876C48.44 47.845 48.4281 47.9064 48.4287 47.9684C48.4292 48.0303 48.4421 48.0916 48.4666 48.1485C48.491 48.2055 48.5266 48.2569 48.5711 48.3L48.909 48.6379L48.23 49.3169C48.1789 49.3679 48.1404 49.43 48.1174 49.4984C48.0944 49.5669 48.0876 49.6397 48.0975 49.7112C48.1522 50.0929 48.0891 50.4822 47.9166 50.827C47.7441 51.1719 47.4704 51.4558 47.1321 51.6409C46.7939 51.826 46.4072 51.9033 46.0237 51.8627C45.6403 51.822 45.2784 51.6653 44.9865 51.4134C44.6946 51.1615 44.4865 50.8264 44.3902 50.4531C44.2938 50.0797 44.3138 49.6858 44.4473 49.3241C44.5809 48.9624 44.8217 48.6501 45.1376 48.429C45.4535 48.2079 45.8294 48.0884 46.2149 48.0867C46.3077 48.0866 46.4003 48.093 46.4921 48.1059C46.5636 48.1161 46.6366 48.1095 46.7051 48.0865C46.7735 48.0635 46.8357 48.0247 46.8865 47.9733L50.4602 44.4033L51.5769 44.6301L51.8 45.7431V45.7483Z" fill="#02BEC5"/>
<path d="M31.2667 33.6702C30.8954 33.6702 30.5393 33.8177 30.2767 34.0802C30.0142 34.3428 29.8667 34.6989 29.8667 35.0702V36.9368C29.8667 37.3081 30.0142 37.6642 30.2767 37.9268C30.5393 38.1893 30.8954 38.3368 31.2667 38.3368C31.638 38.3368 31.9941 38.1893 32.2566 37.9268C32.5192 37.6642 32.6667 37.3081 32.6667 36.9368V35.0702C32.6667 34.6989 32.5192 34.3428 32.2566 34.0802C31.9941 33.8177 31.638 33.6702 31.2667 33.6702ZM31.7333 36.9368C31.7333 37.0606 31.6842 37.1793 31.5966 37.2668C31.5091 37.3543 31.3904 37.4035 31.2667 37.4035C31.1429 37.4035 31.0242 37.3543 30.9367 37.2668C30.8492 37.1793 30.8 37.0606 30.8 36.9368V35.0702C30.8 34.9464 30.8492 34.8277 30.9367 34.7402C31.0242 34.6527 31.1429 34.6035 31.2667 34.6035C31.3904 34.6035 31.5091 34.6527 31.5966 34.7402C31.6842 34.8277 31.7333 34.9464 31.7333 35.0702V36.9368Z" fill="#02BEC5"/>
<path d="M31.2667 39.7368C30.8954 39.7368 30.5393 39.8843 30.2767 40.1469C30.0142 40.4094 29.8667 40.7655 29.8667 41.1368V43.0035C29.8667 43.3748 30.0142 43.7309 30.2767 43.9934C30.5393 44.256 30.8954 44.4035 31.2667 44.4035C31.638 44.4035 31.9941 44.256 32.2566 43.9934C32.5192 43.7309 32.6667 43.3748 32.6667 43.0035V41.1368C32.6667 40.7655 32.5192 40.4094 32.2566 40.1469C31.9941 39.8843 31.638 39.7368 31.2667 39.7368ZM31.7333 43.0035C31.7333 43.1273 31.6842 43.2459 31.5966 43.3335C31.5091 43.421 31.3904 43.4701 31.2667 43.4701C31.1429 43.4701 31.0242 43.421 30.9367 43.3335C30.8492 43.2459 30.8 43.1273 30.8 43.0035V41.1368C30.8 41.013 30.8492 40.8943 30.9367 40.8068C31.0242 40.7193 31.1429 40.6701 31.2667 40.6701C31.3904 40.6701 31.5091 40.7193 31.5966 40.8068C31.6842 40.8943 31.7333 41.013 31.7333 41.1368V43.0035Z" fill="#02BEC5"/>
<path d="M35 44.4035C35.3713 44.4035 35.7274 44.256 35.9899 43.9934C36.2525 43.7309 36.4 43.3748 36.4 43.0035V41.1368C36.4 40.7655 36.2525 40.4094 35.9899 40.1469C35.7274 39.8843 35.3713 39.7368 35 39.7368C34.6287 39.7368 34.2726 39.8843 34.01 40.1469C33.7475 40.4094 33.6 40.7655 33.6 41.1368V43.0035C33.6 43.3748 33.7475 43.7309 34.01 43.9934C34.2726 44.256 34.6287 44.4035 35 44.4035ZM34.5333 41.1368C34.5333 41.013 34.5825 40.8943 34.67 40.8068C34.7575 40.7193 34.8762 40.6701 35 40.6701C35.1238 40.6701 35.2425 40.7193 35.33 40.8068C35.4175 40.8943 35.4667 41.013 35.4667 41.1368V43.0035C35.4667 43.1273 35.4175 43.2459 35.33 43.3335C35.2425 43.421 35.1238 43.4701 35 43.4701C34.8762 43.4701 34.7575 43.421 34.67 43.3335C34.5825 43.2459 34.5333 43.1273 34.5333 43.0035V41.1368Z" fill="#02BEC5"/>
<path d="M43.4 38.3368C43.7713 38.3368 44.1274 38.1893 44.3899 37.9268C44.6525 37.6642 44.8 37.3081 44.8 36.9368V35.0702C44.8 34.6989 44.6525 34.3428 44.3899 34.0802C44.1274 33.8177 43.7713 33.6702 43.4 33.6702C43.0287 33.6702 42.6726 33.8177 42.4101 34.0802C42.1475 34.3428 42 34.6989 42 35.0702V36.9368C42 37.3081 42.1475 37.6642 42.4101 37.9268C42.6726 38.1893 43.0287 38.3368 43.4 38.3368ZM42.9333 35.0702C42.9333 34.9464 42.9825 34.8277 43.07 34.7402C43.1575 34.6527 43.2762 34.6035 43.4 34.6035C43.5238 34.6035 43.6425 34.6527 43.73 34.7402C43.8175 34.8277 43.8667 34.9464 43.8667 35.0702V36.9368C43.8667 37.0606 43.8175 37.1793 43.73 37.2668C43.6425 37.3543 43.5238 37.4035 43.4 37.4035C43.2762 37.4035 43.1575 37.3543 43.07 37.2668C42.9825 37.1793 42.9333 37.0606 42.9333 36.9368V35.0702Z" fill="#02BEC5"/>
<path d="M33.6 37.8701C33.6 37.9938 33.6492 38.1125 33.7367 38.2001C33.8242 38.2876 33.9429 38.3367 34.0667 38.3367H35C35.1238 38.3367 35.2425 38.2876 35.33 38.2001C35.4175 38.1125 35.4667 37.9938 35.4667 37.8701C35.4667 37.7463 35.4175 37.6276 35.33 37.5401C35.2425 37.4526 35.1238 37.4034 35 37.4034V34.1367C35 34.0444 34.9726 33.9542 34.9213 33.8775C34.87 33.8008 34.7972 33.741 34.7119 33.7057C34.6266 33.6704 34.5328 33.6611 34.4423 33.6791C34.3518 33.6971 34.2687 33.7416 34.2034 33.8068L33.7367 34.2735C33.6715 34.3387 33.6271 34.4219 33.6091 34.5124C33.5911 34.6029 33.6003 34.6967 33.6356 34.782C33.6709 34.8672 33.7307 34.9401 33.8075 34.9914C33.8842 35.0427 33.9744 35.07 34.0667 35.0701V37.4034C33.9429 37.4034 33.8242 37.4526 33.7367 37.5401C33.6492 37.6276 33.6 37.7463 33.6 37.8701Z" fill="#02BEC5"/>
<path d="M37.3333 38.3368C37.7046 38.3368 38.0607 38.1893 38.3233 37.9268C38.5858 37.6642 38.7333 37.3081 38.7333 36.9368V35.0702C38.7333 34.6989 38.5858 34.3428 38.3233 34.0802C38.0607 33.8177 37.7046 33.6702 37.3333 33.6702C36.962 33.6702 36.6059 33.8177 36.3434 34.0802C36.0808 34.3428 35.9333 34.6989 35.9333 35.0702V36.9368C35.9333 37.3081 36.0808 37.6642 36.3434 37.9268C36.6059 38.1893 36.962 38.3368 37.3333 38.3368ZM36.8667 35.0702C36.8667 34.9464 36.9158 34.8277 37.0034 34.7402C37.0909 34.6527 37.2096 34.6035 37.3333 34.6035C37.4571 34.6035 37.5758 34.6527 37.6633 34.7402C37.7508 34.8277 37.8 34.9464 37.8 35.0702V36.9368C37.8 37.0606 37.7508 37.1793 37.6633 37.2668C37.5758 37.3543 37.4571 37.4035 37.3333 37.4035C37.2096 37.4035 37.0909 37.3543 37.0034 37.2668C36.9158 37.1793 36.8667 37.0606 36.8667 36.9368V35.0702Z" fill="#02BEC5"/>
<path d="M31.2667 45.8035C30.8954 45.8035 30.5393 45.951 30.2767 46.2135C30.0142 46.4761 29.8667 46.8322 29.8667 47.2035V49.0701C29.8667 49.4414 30.0142 49.7975 30.2767 50.0601C30.5393 50.3226 30.8954 50.4701 31.2667 50.4701C31.638 50.4701 31.9941 50.3226 32.2566 50.0601C32.5192 49.7975 32.6667 49.4414 32.6667 49.0701V47.2035C32.6667 46.8322 32.5192 46.4761 32.2566 46.2135C31.9941 45.951 31.638 45.8035 31.2667 45.8035ZM31.7333 49.0701C31.7333 49.1939 31.6842 49.3126 31.5966 49.4001C31.5091 49.4876 31.3904 49.5368 31.2667 49.5368C31.1429 49.5368 31.0242 49.4876 30.9367 49.4001C30.8492 49.3126 30.8 49.1939 30.8 49.0701V47.2035C30.8 47.0797 30.8492 46.961 30.9367 46.8735C31.0242 46.786 31.1429 46.7368 31.2667 46.7368C31.3904 46.7368 31.5091 46.786 31.5966 46.8735C31.6842 46.961 31.7333 47.0797 31.7333 47.2035V49.0701Z" fill="#02BEC5"/>
<path d="M37.3333 45.8035C36.962 45.8035 36.6059 45.951 36.3434 46.2135C36.0808 46.4761 35.9333 46.8322 35.9333 47.2035V49.0701C35.9333 49.4414 36.0808 49.7975 36.3434 50.0601C36.6059 50.3226 36.962 50.4701 37.3333 50.4701C37.7046 50.4701 38.0607 50.3226 38.3233 50.0601C38.5858 49.7975 38.7333 49.4414 38.7333 49.0701V47.2035C38.7333 46.8322 38.5858 46.4761 38.3233 46.2135C38.0607 45.951 37.7046 45.8035 37.3333 45.8035ZM37.8 49.0701C37.8 49.1939 37.7508 49.3126 37.6633 49.4001C37.5758 49.4876 37.4571 49.5368 37.3333 49.5368C37.2096 49.5368 37.0909 49.4876 37.0034 49.4001C36.9158 49.3126 36.8667 49.1939 36.8667 49.0701V47.2035C36.8667 47.0797 36.9158 46.961 37.0034 46.8735C37.0909 46.786 37.2096 46.7368 37.3333 46.7368C37.4571 46.7368 37.5758 46.786 37.6633 46.8735C37.7508 46.961 37.8 47.0797 37.8 47.2035V49.0701Z" fill="#02BEC5"/>
<path d="M41.0667 38.3367C41.1904 38.3367 41.3091 38.2876 41.3966 38.2001C41.4842 38.1125 41.5333 37.9938 41.5333 37.8701C41.5333 37.7463 41.4842 37.6276 41.3966 37.5401C41.3091 37.4526 41.1904 37.4034 41.0667 37.4034V34.1367C41.0666 34.0444 41.0393 33.9542 40.988 33.8775C40.9367 33.8008 40.8638 33.741 40.7786 33.7057C40.6933 33.6704 40.5995 33.6611 40.509 33.6791C40.4185 33.6971 40.3353 33.7416 40.2701 33.8068L39.8034 34.2735C39.7382 34.3387 39.6937 34.4219 39.6757 34.5124C39.6577 34.6029 39.667 34.6967 39.7023 34.782C39.7376 34.8672 39.7974 34.9401 39.8741 34.9914C39.9508 35.0427 40.041 35.07 40.1333 35.0701V37.4034C40.0096 37.4034 39.8909 37.4526 39.8033 37.5401C39.7158 37.6276 39.6667 37.7463 39.6667 37.8701C39.6667 37.9938 39.7158 38.1125 39.8033 38.2001C39.8909 38.2876 40.0096 38.3367 40.1333 38.3367H41.0667Z" fill="#02BEC5"/>
<path d="M35 49.5367V46.27C35 46.1778 34.9726 46.0875 34.9213 46.0108C34.87 45.9341 34.7972 45.8743 34.7119 45.839C34.6266 45.8037 34.5328 45.7944 34.4423 45.8124C34.3518 45.8304 34.2687 45.8749 34.2034 45.9401L33.7367 46.4068C33.6715 46.472 33.6271 46.5552 33.6091 46.6457C33.5911 46.7362 33.6003 46.83 33.6356 46.9153C33.6709 47.0005 33.7307 47.0734 33.8075 47.1247C33.8842 47.176 33.9744 47.2033 34.0667 47.2034V49.5367C33.9429 49.5367 33.8242 49.5859 33.7367 49.6734C33.6492 49.7609 33.6 49.8796 33.6 50.0034C33.6 50.1271 33.6492 50.2458 33.7367 50.3334C33.8242 50.4209 33.9429 50.47 34.0667 50.47H35C35.1238 50.47 35.2425 50.4209 35.33 50.3334C35.4175 50.2458 35.4667 50.1271 35.4667 50.0034C35.4667 49.8796 35.4175 49.7609 35.33 49.6734C35.2425 49.5859 35.1238 49.5367 35 49.5367Z" fill="#02BEC5"/>
<path d="M38.7333 43.4701V40.2034C38.7333 40.1111 38.7059 40.0209 38.6547 39.9442C38.6034 39.8674 38.5305 39.8076 38.4452 39.7723C38.36 39.737 38.2662 39.7278 38.1757 39.7458C38.0851 39.7638 38.002 39.8082 37.9367 39.8734L37.4701 40.3401C37.4048 40.4054 37.3604 40.4885 37.3424 40.579C37.3244 40.6695 37.3336 40.7634 37.3689 40.8486C37.4043 40.9339 37.4641 41.0068 37.5408 41.058C37.6175 41.1093 37.7077 41.1367 37.8 41.1367V43.4701C37.6762 43.4701 37.5575 43.5192 37.47 43.6067C37.3825 43.6943 37.3333 43.8129 37.3333 43.9367C37.3333 44.0605 37.3825 44.1792 37.47 44.2667C37.5575 44.3542 37.6762 44.4034 37.8 44.4034H38.7333C38.8571 44.4034 38.9758 44.3542 39.0633 44.2667C39.1508 44.1792 39.2 44.0605 39.2 43.9367C39.2 43.8129 39.1508 43.6943 39.0633 43.6067C38.9758 43.5192 38.8571 43.4701 38.7333 43.4701Z" fill="#02BEC5"/>
<path d="M45.8925 49.6437C45.8045 49.5587 45.6866 49.5116 45.5642 49.5127C45.4419 49.5138 45.3248 49.5629 45.2383 49.6494C45.1518 49.7359 45.1027 49.8529 45.1016 49.9753C45.1006 50.0977 45.1476 50.2155 45.2326 50.3036L45.8999 50.9709C45.9879 51.0559 46.1058 51.1029 46.2282 51.1019C46.3505 51.1008 46.4676 51.0517 46.5541 50.9652C46.6406 50.8787 46.6897 50.7616 46.6908 50.6393C46.6918 50.5169 46.6448 50.399 46.5598 50.311L45.8925 49.6437Z" fill="#02BEC5"/>
</g>
<path d="M51.7723 1.07002L9.1144 1.07031L1 9.17284V74.9929L9.1153 83.0963H74.8855L83.5003 74.4932V32.7521L51.7723 1.07002ZM8.70061 0.0703125H52.1864L84.5003 32.3375V74.9078L75.2993 84.0963H8.70151L0 75.4075V8.7582L8.70061 0.0703125Z" fill="white" fill-opacity="0.2"/>
<path d="M83.1 20.0961V0.996094H64L83.1 20.0961Z" fill="#02BEC5"/>
</g>
<defs>
<clipPath id="clip0_20_503">
<rect width="84.5" height="84.026" fill="white" transform="translate(0 0.0700684)"/>
</clipPath>
<clipPath id="clip1_20_503">
<rect width="28" height="28" fill="white" transform="translate(28 28.0701)"/>
</clipPath>
</defs>
</svg>
