<svg width="85" height="85" viewBox="0 0 85 85" fill="none" xmlns="http://www.w3.org/2000/svg">
<g clip-path="url(#clip0_20_522)">
<path opacity="0.5" d="M52.272 1.07007H9.614L1.5 9.17007V74.9901L9.615 83.0901H75.385L84 74.4901V32.7521L52.272 1.07007Z" fill="#0B0C1E"/>
<path d="M47.6667 54.3201H33.6667C32.8934 54.3191 32.1521 54.0116 31.6053 53.4648C31.0585 52.918 30.7509 52.1767 30.75 51.4034V32.7367C30.7509 31.9635 31.0585 31.2221 31.6053 30.6754C32.1521 30.1286 32.8934 29.821 33.6667 29.8201H42.685C43.0734 29.8203 43.4579 29.8978 43.8162 30.048C44.1744 30.1983 44.4991 30.4182 44.7716 30.6951L49.7521 35.7928C50.2863 36.3382 50.5848 37.0716 50.5833 37.8351V42.1809C50.5833 42.3356 50.5219 42.484 50.4125 42.5934C50.3031 42.7028 50.1547 42.7642 50 42.7642C49.8453 42.7642 49.6969 42.7028 49.5875 42.5934C49.4781 42.484 49.4167 42.3356 49.4167 42.1809V37.8351C49.4169 37.3771 49.2376 36.9373 48.9173 36.6101L43.9363 31.5117C43.773 31.3455 43.5783 31.2134 43.3635 31.1233C43.1486 31.0332 42.918 30.9867 42.685 30.9867H33.6667C33.2025 30.9867 32.7574 31.1711 32.4292 31.4993C32.101 31.8275 31.9167 32.2726 31.9167 32.7367V51.4034C31.9167 51.8675 32.101 52.3127 32.4292 52.6408C32.7574 52.969 33.2025 53.1534 33.6667 53.1534H47.6667C47.8867 53.1543 48.1048 53.1116 48.3083 53.028C48.4514 52.9691 48.6121 52.9695 48.7549 53.0291C48.8977 53.0886 49.011 53.2025 49.0699 53.3456C49.1287 53.4887 49.1284 53.6493 49.0688 53.7922C49.0092 53.935 48.8954 54.0483 48.7523 54.1072C48.4078 54.2486 48.039 54.321 47.6667 54.3201Z" fill="#02BEC5"/>
<path d="M49.7608 37.4035H45.9167C45.1434 37.4026 44.4021 37.095 43.8553 36.5482C43.3085 36.0014 43.0009 35.2601 43 34.4868V30.5843C43 30.4296 43.0615 30.2812 43.1709 30.1718C43.2803 30.0624 43.4286 30.001 43.5833 30.001C43.738 30.001 43.8864 30.0624 43.9958 30.1718C44.1052 30.2812 44.1667 30.4296 44.1667 30.5843V34.4868C44.1667 34.9509 44.351 35.3961 44.6792 35.7242C45.0074 36.0524 45.4525 36.2368 45.9167 36.2368H49.7608C49.9155 36.2368 50.0639 36.2983 50.1733 36.4077C50.2827 36.5171 50.3442 36.6654 50.3442 36.8201C50.3442 36.9749 50.2827 37.1232 50.1733 37.2326C50.0639 37.342 49.9155 37.4035 49.7608 37.4035Z" fill="#02BEC5"/>
<path d="M48.8333 54.235C48.6033 54.2352 48.3783 54.1672 48.187 54.0395L46.3133 52.79C45.1138 51.9925 44.1303 50.9105 43.4504 49.6406C42.7705 48.3707 42.4154 46.9523 42.4167 45.5118V44.5131C42.4178 44.2507 42.507 43.9962 42.67 43.7905C42.833 43.5847 43.0603 43.4397 43.3156 43.3785C45.048 42.8997 46.6961 42.1561 48.2016 41.1741C48.3899 41.0528 48.6093 40.9883 48.8333 40.9883C49.0574 40.9883 49.2767 41.0528 49.4651 41.1741C50.9705 42.1562 52.6186 42.8998 54.3511 43.3785C54.6063 43.4397 54.8337 43.5847 54.9966 43.7905C55.1596 43.9962 55.2489 44.2507 55.25 44.5131V45.5118C55.2517 46.9527 54.8967 48.3715 54.2168 49.6419C53.5369 50.9123 52.5532 51.9946 51.3533 52.7924L49.4802 54.0413C49.2885 54.1684 49.0634 54.2358 48.8333 54.235ZM48.8333 42.1541C47.2205 43.2063 45.4541 44.0017 43.5973 44.512L43.5833 45.5118C43.5819 46.7605 43.8895 47.9902 44.4787 49.0912C45.068 50.1922 45.9205 51.1302 46.9602 51.8217L48.8333 53.0683L50.7064 51.8194C51.7459 51.1281 52.5982 50.1904 53.1874 49.0899C53.7766 47.9893 54.0844 46.7601 54.0833 45.5118V44.5131C52.2219 44.0031 50.4509 43.2075 48.8333 42.1547V42.1541Z" fill="#02BEC5"/>
<path d="M48.25 49.07C48.0953 49.0699 47.947 49.0085 47.8376 48.8991L46.6709 47.7324C46.5647 47.6224 46.5059 47.475 46.5072 47.3221C46.5085 47.1691 46.5699 47.0228 46.678 46.9147C46.7862 46.8065 46.9325 46.7452 47.0854 46.7438C47.2384 46.7425 47.3857 46.8013 47.4958 46.9076L48.25 47.6618L50.1709 45.7409C50.2809 45.6346 50.4283 45.5758 50.5812 45.5772C50.7342 45.5785 50.8805 45.6398 50.9886 45.748C51.0968 45.8562 51.1582 46.0025 51.1595 46.1554C51.1608 46.3084 51.102 46.4557 50.9958 46.5657L48.6624 48.8991C48.5531 49.0085 48.4047 49.0699 48.25 49.07Z" fill="#02BEC5"/>
<path d="M39.5 35.6535H34.8333C34.6786 35.6535 34.5303 35.592 34.4209 35.4826C34.3115 35.3732 34.25 35.2249 34.25 35.0701C34.25 34.9154 34.3115 34.7671 34.4209 34.6577C34.5303 34.5483 34.6786 34.4868 34.8333 34.4868H39.5C39.6547 34.4868 39.8031 34.5483 39.9125 34.6577C40.0219 34.7671 40.0833 34.9154 40.0833 35.0701C40.0833 35.2249 40.0219 35.3732 39.9125 35.4826C39.8031 35.592 39.6547 35.6535 39.5 35.6535Z" fill="#02BEC5"/>
<path d="M43 39.1535H34.8333C34.6786 39.1535 34.5303 39.092 34.4209 38.9826C34.3115 38.8732 34.25 38.7249 34.25 38.5701C34.25 38.4154 34.3115 38.2671 34.4209 38.1577C34.5303 38.0483 34.6786 37.9868 34.8333 37.9868H43C43.1547 37.9868 43.3031 38.0483 43.4125 38.1577C43.5219 38.2671 43.5833 38.4154 43.5833 38.5701C43.5833 38.7249 43.5219 38.8732 43.4125 38.9826C43.3031 39.092 43.1547 39.1535 43 39.1535Z" fill="#02BEC5"/>
<path d="M44.1667 42.6535H34.8333C34.6786 42.6535 34.5303 42.592 34.4209 42.4826C34.3115 42.3732 34.25 42.2249 34.25 42.0701C34.25 41.9154 34.3115 41.7671 34.4209 41.6577C34.5303 41.5483 34.6786 41.4868 34.8333 41.4868H44.1667C44.3214 41.4868 44.4697 41.5483 44.5791 41.6577C44.6885 41.7671 44.75 41.9154 44.75 42.0701C44.75 42.2249 44.6885 42.3732 44.5791 42.4826C44.4697 42.592 44.3214 42.6535 44.1667 42.6535Z" fill="#02BEC5"/>
<path d="M40.6667 46.1535H34.8333C34.6786 46.1535 34.5303 46.092 34.4209 45.9826C34.3115 45.8732 34.25 45.7249 34.25 45.5701C34.25 45.4154 34.3115 45.2671 34.4209 45.1577C34.5303 45.0483 34.6786 44.9868 34.8333 44.9868H40.6667C40.8214 44.9868 40.9697 45.0483 41.0791 45.1577C41.1885 45.2671 41.25 45.4154 41.25 45.5701C41.25 45.7249 41.1885 45.8732 41.0791 45.9826C40.9697 46.092 40.8214 46.1535 40.6667 46.1535Z" fill="#02BEC5"/>
<path d="M40.6667 49.6535H34.8333C34.6786 49.6535 34.5303 49.592 34.4209 49.4826C34.3115 49.3732 34.25 49.2249 34.25 49.0701C34.25 48.9154 34.3115 48.7671 34.4209 48.6577C34.5303 48.5483 34.6786 48.4868 34.8333 48.4868H40.6667C40.8214 48.4868 40.9697 48.5483 41.0791 48.6577C41.1885 48.7671 41.25 48.9154 41.25 49.0701C41.25 49.2249 41.1885 49.3732 41.0791 49.4826C40.9697 49.592 40.8214 49.6535 40.6667 49.6535Z" fill="#02BEC5"/>
<path d="M52.2723 1.07002L9.6144 1.07031L1.5 9.17284V74.9929L9.6153 83.0963H75.3855L84.0003 74.4932V32.7521L52.2723 1.07002ZM9.20061 0.0703125H52.6864L85.0003 32.3375V74.9078L75.7993 84.0963H9.20151L0.5 75.4075V8.7582L9.20061 0.0703125Z" fill="white" fill-opacity="0.2"/>
<path d="M83.6 20.0961V0.996094H64.5L83.6 20.0961Z" fill="#02BEC5"/>
</g>
<defs>
<clipPath id="clip0_20_522">
<rect width="84.5" height="84.026" fill="white" transform="translate(0.5 0.0700684)"/>
</clipPath>
</defs>
</svg>
