<svg width="85" height="85" viewBox="0 0 85 85" fill="none" xmlns="http://www.w3.org/2000/svg">
<g clip-path="url(#clip0_20_605)">
<path opacity="0.5" d="M51.772 1.06982H9.114L1 9.16982V74.9898L9.115 83.0898H74.885L83.5 74.4898V32.7518L51.772 1.06982Z" fill="#0B0C1E"/>
<g clip-path="url(#clip1_20_605)">
<path d="M56 49.199C56 48.0151 55.6071 46.9213 54.9449 46.041C55.3314 44.7566 55.5276 43.422 55.5276 42.0705C55.5276 40.2369 55.1736 38.4606 54.4751 36.7848C55.0636 36.3353 55.4442 35.6269 55.4442 34.8309C55.4442 33.4756 54.3416 32.3731 52.9863 32.3731C52.5628 32.3731 52.164 32.4808 51.8158 32.6702C49.2167 29.8927 45.5734 28.3066 41.7638 28.3066C38.9389 28.3066 36.2304 29.1546 33.9209 30.7593C33.902 30.7591 33.8833 30.7579 33.8644 30.7579C31.5202 30.7579 29.613 32.6651 29.613 35.0094C29.613 35.1887 29.6254 35.3652 29.6471 35.5388C28.5694 37.5348 28 39.7899 28 42.0704C28 45.9589 29.6185 49.5775 32.4045 52.1624C32.5706 52.3165 32.83 52.3068 32.9842 52.1408C33.1382 51.9747 33.1285 51.7152 32.9625 51.5611C32.2635 50.9125 31.6456 50.1986 31.1117 49.4267C31.6253 49.106 32.2049 48.8129 32.8396 48.5499C33.2542 49.3232 34.0701 49.8504 35.0072 49.8504C35.0964 49.8504 35.1843 49.8454 35.271 49.8361C35.9524 51.5916 37.001 53.4098 38.477 54.593C37.0424 54.2179 35.6788 53.5962 34.4383 52.743C34.2516 52.6147 33.9963 52.6619 33.8679 52.8486C33.7396 53.0352 33.7868 53.2906 33.9735 53.419C36.271 54.9991 38.9648 55.8343 41.7638 55.8343C44.1703 55.8343 46.5318 55.2053 48.6078 54.0135C50.2811 54.756 52.2686 54.5842 53.8133 53.4673C53.8315 53.4559 53.8488 53.4434 53.865 53.4295C55.1594 52.4695 56 50.9306 56 49.199ZM54.0074 52.2027C53.9978 50.9467 53.2612 49.8223 52.1685 49.2867C52.4317 48.9665 52.5901 48.5569 52.5901 48.111C52.5901 47.0885 51.7582 46.2567 50.7358 46.2567C49.7133 46.2567 48.8814 47.0885 48.8814 48.111C48.8814 48.5569 49.0398 48.9665 49.303 49.2867C48.2104 49.8223 47.4737 50.9467 47.4641 52.2027C46.7368 51.4112 46.2918 50.3562 46.2918 49.1991C46.2918 46.7486 48.2853 44.7551 50.7358 44.7551C53.1862 44.7551 55.1797 46.7486 55.1797 49.1991C55.1797 50.3561 54.7347 51.4111 54.0074 52.2027ZM49.7017 48.111C49.7017 47.5408 50.1656 47.0769 50.7358 47.0769C51.306 47.0769 51.7698 47.5408 51.7698 48.111C51.7698 48.6811 51.306 49.1449 50.7358 49.1449C50.1656 49.1449 49.7017 48.6811 49.7017 48.111ZM35.0072 44.9346C34.9745 44.9346 34.9421 44.9359 34.9097 44.9371C34.6746 43.0329 34.6772 41.0353 34.9194 39.1282C35.7716 38.9098 36.6028 38.4079 37.2195 37.6158C38.0953 37.7545 39.0062 37.8532 39.9401 37.9093C40.0803 38.6311 40.6396 39.2048 41.3536 39.3664V46.1793C39.9538 46.198 38.5905 46.3126 37.3016 46.5128C36.9469 45.5909 36.0525 44.9346 35.0072 44.9346ZM33.8644 34.8811C33.4581 34.8811 33.1317 34.5498 33.1317 34.1484C33.1317 33.7444 33.4604 33.4158 33.8644 33.4158C34.2683 33.4158 34.597 33.7444 34.597 34.1484C34.597 34.5524 34.2684 34.8811 33.8644 34.8811ZM33.367 35.6192C33.5233 35.6722 33.6905 35.7014 33.8644 35.7014C34.0383 35.7014 34.2054 35.6722 34.3617 35.6192C35.1548 35.8397 35.7191 36.5729 35.7191 37.4059V37.8937C34.5892 38.6228 33.1406 38.6236 32.0096 37.8937V37.4059C32.0096 36.5729 32.574 35.8397 33.367 35.6192ZM43.5876 37.9092C45.2449 37.8095 46.8298 37.575 48.274 37.2226C48.7645 39.4386 48.9209 41.8904 48.6817 44.3522C47.6476 44.7921 46.7823 45.5537 46.2116 46.5105C44.9271 46.3117 43.5687 46.198 42.174 46.1793V39.3665C42.8881 39.2049 43.4474 38.6312 43.5876 37.9092ZM41.7639 38.5923C41.1916 38.5923 40.7261 38.1267 40.7261 37.5545C40.7261 36.9822 41.1916 36.5167 41.7639 36.5167C42.3361 36.5167 42.8017 36.9822 42.8017 37.5545C42.8017 38.1267 42.3361 38.5923 41.7639 38.5923ZM41.3536 35.7426C40.6763 35.8959 40.1379 36.4199 39.9647 37.0896C39.187 37.0425 38.4269 36.965 37.6917 36.8593C37.9633 36.2997 38.1159 35.6721 38.1159 35.0094C38.1159 33.9926 37.7567 33.0583 37.159 32.326C38.3416 30.4256 39.8058 29.3169 41.3537 29.15V35.7426H41.3536ZM42.174 54.991V47.0005C43.4366 47.0177 44.6662 47.1139 45.833 47.2818C45.5998 47.8762 45.4716 48.5229 45.4716 49.199C45.4716 50.2181 45.7629 51.1703 46.2663 51.9772C45.1021 53.7787 43.6775 54.8289 42.174 54.991ZM54.7072 42.0704C54.7072 43.1737 54.5682 44.2647 54.2941 45.3231C53.3565 44.4616 52.1066 43.9347 50.7358 43.9347C50.321 43.9347 49.9174 43.9831 49.53 44.0742C49.7202 41.7595 49.5862 39.3052 49.0732 37.0113C49.7706 36.8123 50.4293 36.5845 51.0404 36.3297C51.4903 36.9124 52.195 37.2887 52.9863 37.2887C53.2512 37.2887 53.5062 37.246 53.7455 37.1681C54.3835 38.7237 54.7072 40.3707 54.7072 42.0704ZM54.624 34.8309C54.624 35.7338 53.8893 36.4684 52.9864 36.4684C52.0834 36.4684 51.3489 35.7338 51.3489 34.8309C51.3489 33.928 52.0835 33.1934 52.9864 33.1934C53.8893 33.1934 54.624 33.9279 54.624 34.8309ZM51.1678 33.1791C50.7708 33.6158 50.5285 34.1956 50.5285 34.8309C50.5285 35.1012 50.573 35.3612 50.654 35.6047C50.1013 35.8322 49.5073 36.0372 48.8788 36.2175C48.6288 35.2807 48.3168 34.3894 47.9449 33.5566C47.8526 33.3498 47.6099 33.257 47.4032 33.3494C47.1964 33.4417 47.1035 33.6843 47.196 33.8911C47.5458 34.6745 47.8421 35.5274 48.081 36.4285C46.6936 36.7667 45.1655 36.9923 43.563 37.0893C43.3897 36.4196 42.8513 35.8958 42.174 35.7426V29.1503C43.6784 29.3159 45.1289 30.3876 46.2971 32.2112C46.4192 32.402 46.673 32.4575 46.8636 32.3354C47.0544 32.2132 47.11 31.9595 46.9878 31.7687C46.4045 30.858 45.7503 30.1144 45.0487 29.5529C47.3675 30.1626 49.4941 31.4102 51.1678 33.1791ZM38.4785 29.5469C37.7881 30.1002 37.1448 30.8325 36.5664 31.7294C36.1481 31.3842 35.663 31.1175 35.1336 30.9515C36.1825 30.3239 37.3065 29.853 38.4785 29.5469ZM33.8644 31.5783C35.7563 31.5783 37.2955 33.1175 37.2955 35.0094C37.2955 35.8269 37.0076 36.5782 36.5286 37.1682C36.4474 36.2655 35.9081 35.4704 35.128 35.0494C35.3098 34.7951 35.4173 34.4842 35.4173 34.1484C35.4173 33.2921 34.7207 32.5955 33.8644 32.5955C33.008 32.5955 32.3113 33.2921 32.3113 34.1484C32.3113 34.4842 32.4188 34.7951 32.6007 35.0495C31.8206 35.4705 31.2813 36.2656 31.2 37.1683C30.721 36.5782 30.4332 35.8269 30.4332 35.0095C30.4332 33.1174 31.9724 31.5783 33.8644 31.5783ZM32.5493 47.3925C32.5493 47.5219 32.5596 47.649 32.5789 47.773C31.8759 48.0606 31.2341 48.3832 30.6666 48.7378C29.4866 46.7745 28.8203 44.5056 28.8203 42.0704C28.8203 40.2231 29.2172 38.3936 29.9747 36.7226C30.6461 38.241 32.1566 39.2609 33.8644 39.2609C33.936 39.2609 34.0071 39.259 34.0779 39.2555C33.8559 41.1527 33.8577 43.1587 34.1048 45.107C33.1948 45.4676 32.5493 46.3559 32.5493 47.3925ZM33.3697 47.3925C33.3697 46.4895 34.1043 45.755 35.0072 45.755C35.9101 45.755 36.6447 46.4896 36.6447 47.3925C36.6447 48.2955 35.9101 49.03 35.0072 49.03C34.1043 49.03 33.3697 48.2955 33.3697 47.3925ZM36.0635 49.6114C36.8916 49.2156 37.465 48.3699 37.465 47.3925C37.465 47.3668 37.4639 47.3413 37.4631 47.3157C38.6983 47.1265 40.0072 47.018 41.3536 46.9996V54.9909C38.802 54.716 37.0191 52.0362 36.0635 49.6114ZM45.0545 54.5894C45.6739 54.0919 46.2555 53.4505 46.7862 52.6752C47.0702 52.9976 47.3958 53.2888 47.7631 53.5411C46.9014 53.9923 45.9924 54.3434 45.0545 54.5894ZM48.2839 52.9028V52.2274C48.2839 51.1152 49.0452 50.1368 50.1104 49.8565C50.3059 49.9268 50.5164 49.9653 50.7358 49.9653C50.9551 49.9653 51.1656 49.9268 51.3611 49.8565C52.4263 50.1369 53.1876 51.1151 53.1876 52.2274V52.9028C51.7016 53.8899 49.7707 53.8903 48.2839 52.9028Z" fill="#02BEC5"/>
</g>
<path d="M51.7723 1.07002L9.1144 1.07031L1 9.17284V74.9929L9.1153 83.0963H74.8855L83.5003 74.4932V32.7521L51.7723 1.07002ZM8.70061 0.0703125H52.1864L84.5003 32.3375V74.9078L75.2993 84.0963H8.70151L0 75.4075V8.7582L8.70061 0.0703125Z" fill="white" fill-opacity="0.2"/>
<path d="M83.1 20.0961V0.996094H64L83.1 20.0961Z" fill="#02BEC5"/>
</g>
<defs>
<clipPath id="clip0_20_605">
<rect width="84.5" height="84.026" fill="white" transform="translate(0 0.0698242)"/>
</clipPath>
<clipPath id="clip1_20_605">
<rect width="28" height="28" fill="white" transform="translate(28 28.0703)"/>
</clipPath>
</defs>
</svg>
