<svg width="85" height="85" viewBox="0 0 85 85" fill="none" xmlns="http://www.w3.org/2000/svg">
<g clip-path="url(#clip0_20_576)">
<path opacity="0.5" d="M51.772 1.07007H9.114L1 9.17007V74.9901L9.115 83.0901H74.885L83.5 74.4901V32.7521L51.772 1.07007Z" fill="#0B0C1E"/>
<path d="M35.6513 48.7179C32.8458 48.6296 32.8456 44.5595 35.6513 44.4711C36.0458 44.476 36.4312 44.59 36.7649 44.8005C37.0985 45.011 37.3674 45.3098 37.5417 45.6637C37.716 46.0176 37.7889 46.4129 37.7523 46.8057C37.7157 47.1985 37.5711 47.5735 37.3345 47.8892C37.2664 47.9812 37.2371 48.0963 37.2529 48.2098C37.2687 48.3232 37.3284 48.4259 37.4191 48.4958C37.5098 48.5657 37.6243 48.5972 37.738 48.5836C37.8517 48.5699 37.9556 48.5122 38.0272 48.4229C38.3628 47.9776 38.5683 47.4479 38.6207 46.8928C38.6732 46.3377 38.5706 45.7789 38.3243 45.2787C38.078 44.7784 37.6977 44.3563 37.2258 44.0593C36.7539 43.7624 36.2088 43.6022 35.6512 43.5967C32.7509 43.5906 31.5656 47.3739 33.9043 49.0257C33.1758 49.2867 32.5153 49.7082 31.9717 50.259C31.4281 50.8098 31.0155 51.4758 30.7642 52.2078C30.6874 52.4505 30.6688 52.708 30.7099 52.9593C30.7511 53.2106 30.8508 53.4486 31.001 53.6542C31.1512 53.8598 31.3477 54.0272 31.5746 54.1428C31.8015 54.2584 32.0524 54.3189 32.3071 54.3195L38.9955 54.3196C39.2556 54.3191 39.5119 54.2566 39.743 54.1374C39.9742 54.0182 40.1737 53.8457 40.3249 53.6341C40.4727 53.4311 40.5693 53.1955 40.6065 52.9472C40.6436 52.6989 40.6203 52.4453 40.5384 52.208C40.1893 51.1894 39.5306 50.3053 38.6543 49.6795C37.778 49.0538 36.7281 48.7175 35.6513 48.7179ZM39.6133 53.1257C39.5431 53.2242 39.4505 53.3046 39.343 53.3601C39.2356 53.4156 39.1165 53.4448 38.9955 53.4451H32.307C32.1861 53.4448 32.067 53.4156 31.9595 53.3601C31.8521 53.3046 31.7594 53.2242 31.6892 53.1257C31.623 53.0356 31.5795 52.9309 31.5625 52.8204C31.5456 52.7099 31.5555 52.5969 31.5917 52.491C31.882 51.6451 32.4293 50.9111 33.1572 50.3914C33.885 49.8717 34.757 49.5923 35.6514 49.5924C36.5457 49.5924 37.4177 49.8718 38.1455 50.3915C38.8733 50.9112 39.4206 51.6453 39.7109 52.4913C39.747 52.597 39.757 52.71 39.74 52.8205C39.723 52.931 39.6795 53.0357 39.6133 53.1257Z" fill="#02BEC5"/>
<path d="M53.2355 52.208C52.9843 51.476 52.5716 50.81 52.0281 50.2591C51.4846 49.7083 50.8241 49.2867 50.0955 49.0257C52.4336 47.3756 51.2488 43.589 48.3484 43.5967C47.5536 43.5976 46.7916 43.9138 46.2297 44.4758C45.6677 45.0378 45.3516 45.7998 45.3507 46.5946C45.3246 47.1548 45.7755 48.9878 46.5857 48.5024C46.6312 48.4673 46.6693 48.4237 46.6979 48.3739C46.7266 48.3241 46.7451 48.2692 46.7525 48.2122C46.7598 48.1553 46.7559 48.0975 46.7409 48.042C46.726 47.9866 46.7002 47.9347 46.6651 47.8892C46.3728 47.5092 46.2177 47.0414 46.225 46.562C46.2323 46.0826 46.4016 45.6197 46.7055 45.2488C47.0093 44.8779 47.4297 44.6207 47.8983 44.5191C48.3669 44.4175 48.856 44.4775 49.2862 44.6893C49.7164 44.901 50.0622 45.2522 50.2674 45.6855C50.4726 46.1188 50.5252 46.6088 50.4165 47.0758C50.3078 47.5428 50.0442 47.9593 49.6688 48.2574C49.2933 48.5556 48.8279 48.7179 48.3485 48.7179C47.2717 48.7175 46.2218 49.0537 45.3455 49.6795C44.4693 50.3052 43.8105 51.1892 43.4614 52.2078C43.3846 52.4505 43.366 52.708 43.4071 52.9593C43.4483 53.2106 43.548 53.4486 43.6982 53.6542C43.8484 53.8598 44.0449 54.0272 44.2718 54.1428C44.4987 54.2584 44.7496 54.3189 45.0042 54.3195L51.6927 54.3195C51.9473 54.3189 52.1982 54.2584 52.4251 54.1428C52.6519 54.0273 52.8484 53.8599 52.9986 53.6543C53.1489 53.4487 53.2486 53.2107 53.2897 52.9594C53.3309 52.7082 53.3123 52.4507 53.2355 52.208ZM52.3105 53.1257C52.2403 53.2242 52.1476 53.3046 52.0402 53.3601C51.9328 53.4156 51.8136 53.4448 51.6927 53.4451H45.0042C44.8833 53.4448 44.7642 53.4156 44.6567 53.3601C44.5493 53.3046 44.4566 53.2242 44.3864 53.1257C44.3202 53.0357 44.2767 52.9309 44.2597 52.8204C44.2427 52.7099 44.2527 52.5969 44.2888 52.4911C44.5792 51.6452 45.1265 50.9111 45.8543 50.3914C46.5822 49.8717 47.4542 49.5923 48.3485 49.5924C49.2429 49.5924 50.1149 49.8718 50.8427 50.3915C51.5705 50.9112 52.1178 51.6454 52.4081 52.4913C52.4442 52.5971 52.4542 52.71 52.4372 52.8205C52.4202 52.931 52.3767 53.0357 52.3105 53.1257Z" fill="#02BEC5"/>
<path d="M35.0407 39.9407C34.9809 40.0023 34.9405 40.0801 34.9244 40.1645C34.9083 40.2488 34.9173 40.336 34.9501 40.4154C34.983 40.4947 35.0384 40.5627 35.1094 40.6109C35.1804 40.6592 35.264 40.6856 35.3499 40.687L38.5547 40.687C38.6692 40.6848 38.7783 40.6378 38.8585 40.5561C38.9387 40.4743 38.9836 40.3643 38.9836 40.2498C38.9836 40.1352 38.9387 40.0253 38.8585 39.9435C38.7782 39.8618 38.6691 39.8147 38.5546 39.8126H36.4053L36.7257 39.4921C36.7689 39.4484 36.8025 39.3961 36.8242 39.3385C36.8459 39.281 36.8553 39.2196 36.8518 39.1582C36.8483 39.0968 36.832 39.0369 36.8039 38.9822C36.7757 38.9275 36.7365 38.8794 36.6886 38.8408C33.3151 36.2029 35.2228 30.6962 39.5035 30.7099C40.2566 30.7061 40.9984 30.8938 41.6592 31.2553C41.7607 31.3081 41.8789 31.3191 41.9884 31.2858C42.0979 31.2525 42.1899 31.1775 42.2448 31.0771C42.2997 30.9767 42.313 30.8587 42.2819 30.7486C42.2508 30.6384 42.1777 30.5449 42.0784 30.488C36.4599 27.5931 31.2707 34.7794 35.776 39.2053L35.0407 39.9407Z" fill="#02BEC5"/>
<path d="M48.6518 42.5015C48.7377 42.5001 48.8213 42.4737 48.8923 42.4254C48.9633 42.3772 49.0187 42.3092 49.0515 42.2298C49.0844 42.1505 49.0933 42.0633 49.0772 41.9789C49.0611 41.8946 49.0207 41.8168 48.9609 41.7551L48.2246 41.0186C51.771 37.7154 49.3544 31.6206 44.495 31.6507C37.2979 31.9487 37.299 42.2041 44.4951 42.5015L48.6518 42.5015ZM39.944 37.076C40.1938 31.0395 48.7964 31.0396 49.0459 37.076C49.0473 37.7647 48.8919 38.4447 48.5916 39.0644C48.2912 39.6841 47.8537 40.2274 47.3122 40.6529C47.2642 40.6915 47.2248 40.7396 47.1966 40.7943C47.1684 40.8491 47.152 40.9091 47.1484 40.9705C47.1448 41.032 47.1542 41.0935 47.1759 41.1511C47.1976 41.2087 47.2312 41.2611 47.2744 41.3049L47.5964 41.6271H44.4951C43.2885 41.6257 42.1317 41.1458 41.2785 40.2926C40.4253 39.4394 39.9454 38.2826 39.944 37.076Z" fill="#02BEC5"/>
<path d="M41.9999 36.1528H45.6276C45.7421 36.1505 45.8511 36.1035 45.9313 36.0217C46.0115 35.94 46.0564 35.83 46.0564 35.7155C46.0564 35.601 46.0115 35.4911 45.9313 35.4093C45.8511 35.3276 45.7421 35.2805 45.6276 35.2783H41.9999C41.8854 35.2806 41.7764 35.3276 41.6962 35.4093C41.616 35.4911 41.5711 35.601 41.5711 35.7155C41.5711 35.83 41.616 35.94 41.6962 36.0217C41.7764 36.1035 41.8854 36.1505 41.9999 36.1528Z" fill="#02BEC5"/>
<path d="M47.8788 37.5295C47.8788 37.4135 47.8327 37.3023 47.7507 37.2203C47.6687 37.1384 47.5575 37.0923 47.4416 37.0923H41.9999C41.8839 37.0923 41.7727 37.1383 41.6907 37.2203C41.6087 37.3023 41.5627 37.4135 41.5627 37.5295C41.5627 37.6455 41.6087 37.7567 41.6907 37.8387C41.7727 37.9207 41.8839 37.9667 41.9999 37.9667H47.4416C47.5575 37.9667 47.6687 37.9206 47.7507 37.8387C47.8327 37.7567 47.8788 37.6455 47.8788 37.5295Z" fill="#02BEC5"/>
<path d="M51.7723 1.07002L9.1144 1.07031L1 9.17284V74.9929L9.1153 83.0963H74.8855L83.5003 74.4932V32.7521L51.7723 1.07002ZM8.70061 0.0703125H52.1864L84.5003 32.3375V74.9078L75.2993 84.0963H8.70151L0 75.4075V8.7582L8.70061 0.0703125Z" fill="white" fill-opacity="0.2"/>
<path d="M83.1 20.0961V0.996094H64L83.1 20.0961Z" fill="#02BEC5"/>
</g>
<defs>
<clipPath id="clip0_20_576">
<rect width="84.5" height="84.026" fill="white" transform="translate(0 0.0700684)"/>
</clipPath>
</defs>
</svg>
