<svg width="85" height="85" viewBox="0 0 85 85" fill="none" xmlns="http://www.w3.org/2000/svg">
<path opacity="0.5" d="M51.772 1.06982H9.114L1 9.16982V74.9898L9.115 83.0898H74.885L83.5 74.4898V32.7518L51.772 1.06982Z" fill="#0B0C1E"/>
<g clip-path="url(#clip0_20_642)">
<path d="M50.7027 52.2864H33.2973C32.8959 52.2864 32.5109 52.127 32.2271 51.8431C31.9432 51.5593 31.7838 51.1743 31.7838 50.7729V33.3675C31.7838 32.9661 31.9432 32.5811 32.2271 32.2973C32.5109 32.0135 32.8959 31.854 33.2973 31.854H50.7027C51.1041 31.854 51.4891 32.0135 51.7729 32.2973C52.0568 32.5811 52.2162 32.9661 52.2162 33.3675V50.7729C52.2162 51.1743 52.0568 51.5593 51.7729 51.8431C51.4891 52.127 51.1041 52.2864 50.7027 52.2864ZM33.2973 32.6108C33.0966 32.6108 32.9041 32.6905 32.7622 32.8324C32.6203 32.9743 32.5405 33.1668 32.5405 33.3675V50.7729C32.5405 50.9736 32.6203 51.1661 32.7622 51.308C32.9041 51.45 33.0966 51.5297 33.2973 51.5297H50.7027C50.9034 51.5297 51.0959 51.45 51.2378 51.308C51.3797 51.1661 51.4595 50.9736 51.4595 50.7729V33.3675C51.4595 33.1668 51.3797 32.9743 51.2378 32.8324C51.0959 32.6905 50.9034 32.6108 50.7027 32.6108H33.2973Z" fill="#02BEC5"/>
<path d="M34.4324 45.8775C34.3321 45.8775 34.2358 45.8376 34.1649 45.7666C34.0939 45.6957 34.0541 45.5994 34.0541 45.4991V44.79C34.0541 44.6896 34.0939 44.5934 34.1649 44.5224C34.2358 44.4515 34.3321 44.4116 34.4324 44.4116C34.5328 44.4116 34.629 44.4515 34.7 44.5224C34.7709 44.5934 34.8108 44.6896 34.8108 44.79V45.4991C34.8108 45.5994 34.7709 45.6957 34.7 45.7666C34.629 45.8376 34.5328 45.8775 34.4324 45.8775Z" fill="#02BEC5"/>
<path d="M49.1892 50.0164H34.8108C34.6101 50.0164 34.4176 49.9367 34.2757 49.7948C34.1338 49.6528 34.0541 49.4604 34.0541 49.2596V47.3912C34.0541 47.2909 34.0939 47.1946 34.1649 47.1237C34.2358 47.0527 34.3321 47.0128 34.4324 47.0128C34.5328 47.0128 34.629 47.0527 34.7 47.1237C34.7709 47.1946 34.8108 47.2909 34.8108 47.3912V49.2596H49.1892V34.8813H34.8108V42.8983C34.8108 42.9987 34.7709 43.0949 34.7 43.1659C34.629 43.2369 34.5328 43.2767 34.4324 43.2767C34.3321 43.2767 34.2358 43.2369 34.1649 43.1659C34.0939 43.0949 34.0541 42.9987 34.0541 42.8983V34.8813C34.0541 34.6806 34.1338 34.4881 34.2757 34.3462C34.4176 34.2042 34.6101 34.1245 34.8108 34.1245H49.1892C49.3899 34.1245 49.5824 34.2042 49.7243 34.3462C49.8662 34.4881 49.9459 34.6806 49.9459 34.8813V49.2596C49.9459 49.4604 49.8662 49.6528 49.7243 49.7948C49.5824 49.9367 49.3899 50.0164 49.1892 50.0164Z" fill="#02BEC5"/>
<path d="M48.8108 32.6109C48.7105 32.6109 48.6142 32.5711 48.5433 32.5001C48.4723 32.4291 48.4324 32.3329 48.4324 32.2326V29.2055C48.4324 29.1052 48.4723 29.0089 48.5433 28.938C48.6142 28.867 48.7105 28.8271 48.8108 28.8271C48.9112 28.8271 49.0074 28.867 49.0784 28.938C49.1493 29.0089 49.1892 29.1052 49.1892 29.2055V32.2326C49.1892 32.3329 49.1493 32.4291 49.0784 32.5001C49.0074 32.5711 48.9112 32.6109 48.8108 32.6109Z" fill="#02BEC5"/>
<path d="M46.0865 32.6109C45.9861 32.6109 45.8899 32.5711 45.8189 32.5001C45.748 32.4291 45.7081 32.3329 45.7081 32.2326V29.2055C45.7081 29.1052 45.748 29.0089 45.8189 28.938C45.8899 28.867 45.9861 28.8271 46.0865 28.8271C46.1868 28.8271 46.2831 28.867 46.354 28.938C46.425 29.0089 46.4649 29.1052 46.4649 29.2055V32.2326C46.4649 32.3329 46.425 32.4291 46.354 32.5001C46.2831 32.5711 46.1868 32.6109 46.0865 32.6109Z" fill="#02BEC5"/>
<path d="M43.3622 32.6109C43.2618 32.6109 43.1656 32.5711 43.0946 32.5001C43.0236 32.4291 42.9838 32.3329 42.9838 32.2326V29.2055C42.9838 29.1052 43.0236 29.0089 43.0946 28.938C43.1656 28.867 43.2618 28.8271 43.3622 28.8271C43.4625 28.8271 43.5588 28.867 43.6297 28.938C43.7007 29.0089 43.7405 29.1052 43.7405 29.2055V32.2326C43.7405 32.3329 43.7007 32.4291 43.6297 32.5001C43.5588 32.5711 43.4625 32.6109 43.3622 32.6109Z" fill="#02BEC5"/>
<path d="M40.6378 32.6109C40.5375 32.6109 40.4412 32.5711 40.3703 32.5001C40.2993 32.4291 40.2595 32.3329 40.2595 32.2326V29.2055C40.2595 29.1052 40.2993 29.0089 40.3703 28.938C40.4412 28.867 40.5375 28.8271 40.6378 28.8271C40.7382 28.8271 40.8344 28.867 40.9054 28.938C40.9764 29.0089 41.0162 29.1052 41.0162 29.2055V32.2326C41.0162 32.3329 40.9764 32.4291 40.9054 32.5001C40.8344 32.5711 40.7382 32.6109 40.6378 32.6109Z" fill="#02BEC5"/>
<path d="M37.9135 32.6109C37.8132 32.6109 37.7169 32.5711 37.646 32.5001C37.575 32.4291 37.5351 32.3329 37.5351 32.2326V29.2055C37.5351 29.1052 37.575 29.0089 37.646 28.938C37.7169 28.867 37.8132 28.8271 37.9135 28.8271C38.0139 28.8271 38.1101 28.867 38.1811 28.938C38.252 29.0089 38.2919 29.1052 38.2919 29.2055V32.2326C38.2919 32.3329 38.252 32.4291 38.1811 32.5001C38.1101 32.5711 38.0139 32.6109 37.9135 32.6109Z" fill="#02BEC5"/>
<path d="M35.1892 32.6109C35.0888 32.6109 34.9926 32.5711 34.9216 32.5001C34.8507 32.4291 34.8108 32.3329 34.8108 32.2326V29.2055C34.8108 29.1052 34.8507 29.0089 34.9216 28.938C34.9926 28.867 35.0888 28.8271 35.1892 28.8271C35.2895 28.8271 35.3858 28.867 35.4567 28.938C35.5277 29.0089 35.5676 29.1052 35.5676 29.2055V32.2326C35.5676 32.3329 35.5277 32.4291 35.4567 32.5001C35.3858 32.5711 35.2895 32.6109 35.1892 32.6109Z" fill="#02BEC5"/>
<path d="M48.8108 55.3136C48.7105 55.3136 48.6142 55.2737 48.5433 55.2027C48.4723 55.1318 48.4324 55.0355 48.4324 54.9352V51.9082C48.4324 51.8078 48.4723 51.7116 48.5433 51.6406C48.6142 51.5696 48.7105 51.5298 48.8108 51.5298C48.9112 51.5298 49.0074 51.5696 49.0784 51.6406C49.1493 51.7116 49.1892 51.8078 49.1892 51.9082V54.9352C49.1892 55.0355 49.1493 55.1318 49.0784 55.2027C49.0074 55.2737 48.9112 55.3136 48.8108 55.3136Z" fill="#02BEC5"/>
<path d="M46.0865 55.3136C45.9861 55.3136 45.8899 55.2737 45.8189 55.2027C45.748 55.1318 45.7081 55.0355 45.7081 54.9352V51.9082C45.7081 51.8078 45.748 51.7116 45.8189 51.6406C45.8899 51.5696 45.9861 51.5298 46.0865 51.5298C46.1868 51.5298 46.2831 51.5696 46.354 51.6406C46.425 51.7116 46.4649 51.8078 46.4649 51.9082V54.9352C46.4649 55.0355 46.425 55.1318 46.354 55.2027C46.2831 55.2737 46.1868 55.3136 46.0865 55.3136Z" fill="#02BEC5"/>
<path d="M43.3622 55.3136C43.2618 55.3136 43.1656 55.2737 43.0946 55.2027C43.0236 55.1318 42.9838 55.0355 42.9838 54.9352V51.9082C42.9838 51.8078 43.0236 51.7116 43.0946 51.6406C43.1656 51.5696 43.2618 51.5298 43.3622 51.5298C43.4625 51.5298 43.5588 51.5696 43.6297 51.6406C43.7007 51.7116 43.7405 51.8078 43.7405 51.9082V54.9352C43.7405 55.0355 43.7007 55.1318 43.6297 55.2027C43.5588 55.2737 43.4625 55.3136 43.3622 55.3136Z" fill="#02BEC5"/>
<path d="M40.6378 55.3136C40.5375 55.3136 40.4412 55.2737 40.3703 55.2027C40.2993 55.1318 40.2595 55.0355 40.2595 54.9352V51.9082C40.2595 51.8078 40.2993 51.7116 40.3703 51.6406C40.4412 51.5696 40.5375 51.5298 40.6378 51.5298C40.7382 51.5298 40.8344 51.5696 40.9054 51.6406C40.9764 51.7116 41.0162 51.8078 41.0162 51.9082V54.9352C41.0162 55.0355 40.9764 55.1318 40.9054 55.2027C40.8344 55.2737 40.7382 55.3136 40.6378 55.3136Z" fill="#02BEC5"/>
<path d="M37.9135 55.3136C37.8132 55.3136 37.7169 55.2737 37.646 55.2027C37.575 55.1318 37.5351 55.0355 37.5351 54.9352V51.9082C37.5351 51.8078 37.575 51.7116 37.646 51.6406C37.7169 51.5696 37.8132 51.5298 37.9135 51.5298C38.0139 51.5298 38.1101 51.5696 38.1811 51.6406C38.252 51.7116 38.2919 51.8078 38.2919 51.9082V54.9352C38.2919 55.0355 38.252 55.1318 38.1811 55.2027C38.1101 55.2737 38.0139 55.3136 37.9135 55.3136Z" fill="#02BEC5"/>
<path d="M35.1892 55.3136C35.0888 55.3136 34.9926 55.2737 34.9216 55.2027C34.8507 55.1318 34.8108 55.0355 34.8108 54.9352V51.9082C34.8108 51.8078 34.8507 51.7116 34.9216 51.6406C34.9926 51.5696 35.0888 51.5298 35.1892 51.5298C35.2895 51.5298 35.3858 51.5696 35.4567 51.6406C35.5277 51.7116 35.5676 51.8078 35.5676 51.9082V54.9352C35.5676 55.0355 35.5277 55.1318 35.4567 55.2027C35.3858 55.2737 35.2895 55.3136 35.1892 55.3136Z" fill="#02BEC5"/>
<path d="M54.8649 49.2597H51.8378C51.7375 49.2597 51.6412 49.2198 51.5703 49.1489C51.4993 49.0779 51.4595 48.9817 51.4595 48.8813C51.4595 48.781 51.4993 48.6847 51.5703 48.6138C51.6412 48.5428 51.7375 48.5029 51.8378 48.5029H54.8649C54.9652 48.5029 55.0615 48.5428 55.1324 48.6138C55.2034 48.6847 55.2432 48.781 55.2432 48.8813C55.2432 48.9817 55.2034 49.0779 55.1324 49.1489C55.0615 49.2198 54.9652 49.2597 54.8649 49.2597Z" fill="#02BEC5"/>
<path d="M54.8649 46.5351H51.8378C51.7375 46.5351 51.6412 46.4952 51.5703 46.4243C51.4993 46.3533 51.4595 46.2571 51.4595 46.1567C51.4595 46.0563 51.4993 45.9601 51.5703 45.8891C51.6412 45.8182 51.7375 45.7783 51.8378 45.7783H54.8649C54.9652 45.7783 55.0615 45.8182 55.1324 45.8891C55.2034 45.9601 55.2432 46.0563 55.2432 46.1567C55.2432 46.2571 55.2034 46.3533 55.1324 46.4243C55.0615 46.4952 54.9652 46.5351 54.8649 46.5351Z" fill="#02BEC5"/>
<path d="M54.8649 43.811H51.8378C51.7375 43.811 51.6412 43.7711 51.5703 43.7001C51.4993 43.6292 51.4595 43.5329 51.4595 43.4326C51.4595 43.3322 51.4993 43.236 51.5703 43.165C51.6412 43.0941 51.7375 43.0542 51.8378 43.0542H54.8649C54.9652 43.0542 55.0615 43.0941 55.1324 43.165C55.2034 43.236 55.2432 43.3322 55.2432 43.4326C55.2432 43.5329 55.2034 43.6292 55.1324 43.7001C55.0615 43.7711 54.9652 43.811 54.8649 43.811Z" fill="#02BEC5"/>
<path d="M54.8649 41.0863H51.8378C51.7375 41.0863 51.6412 41.0465 51.5703 40.9755C51.4993 40.9046 51.4595 40.8083 51.4595 40.708C51.4595 40.6076 51.4993 40.5114 51.5703 40.4404C51.6412 40.3695 51.7375 40.3296 51.8378 40.3296H54.8649C54.9652 40.3296 55.0615 40.3695 55.1324 40.4404C55.2034 40.5114 55.2432 40.6076 55.2432 40.708C55.2432 40.8083 55.2034 40.9046 55.1324 40.9755C55.0615 41.0465 54.9652 41.0863 54.8649 41.0863Z" fill="#02BEC5"/>
<path d="M54.8649 38.3622H51.8378C51.7375 38.3622 51.6412 38.3224 51.5703 38.2514C51.4993 38.1804 51.4595 38.0842 51.4595 37.9838C51.4595 37.8835 51.4993 37.7873 51.5703 37.7163C51.6412 37.6453 51.7375 37.6055 51.8378 37.6055H54.8649C54.9652 37.6055 55.0615 37.6453 55.1324 37.7163C55.2034 37.7873 55.2432 37.8835 55.2432 37.9838C55.2432 38.0842 55.2034 38.1804 55.1324 38.2514C55.0615 38.3224 54.9652 38.3622 54.8649 38.3622Z" fill="#02BEC5"/>
<path d="M54.8649 35.6381H51.8378C51.7375 35.6381 51.6412 35.5982 51.5703 35.5273C51.4993 35.4563 51.4595 35.3601 51.4595 35.2597C51.4595 35.1594 51.4993 35.0631 51.5703 34.9922C51.6412 34.9212 51.7375 34.8813 51.8378 34.8813H54.8649C54.9652 34.8813 55.0615 34.9212 55.1324 34.9922C55.2034 35.0631 55.2432 35.1594 55.2432 35.2597C55.2432 35.3601 55.2034 35.4563 55.1324 35.5273C55.0615 35.5982 54.9652 35.6381 54.8649 35.6381Z" fill="#02BEC5"/>
<path d="M32.1622 49.2597H29.1351C29.0348 49.2597 28.9385 49.2198 28.8676 49.1489C28.7966 49.0779 28.7568 48.9817 28.7568 48.8813C28.7568 48.781 28.7966 48.6847 28.8676 48.6138C28.9385 48.5428 29.0348 48.5029 29.1351 48.5029H32.1622C32.2625 48.5029 32.3588 48.5428 32.4297 48.6138C32.5007 48.6847 32.5405 48.781 32.5405 48.8813C32.5405 48.9817 32.5007 49.0779 32.4297 49.1489C32.3588 49.2198 32.2625 49.2597 32.1622 49.2597Z" fill="#02BEC5"/>
<path d="M32.1622 46.5351H29.1351C29.0348 46.5351 28.9385 46.4952 28.8676 46.4243C28.7966 46.3533 28.7568 46.2571 28.7568 46.1567C28.7568 46.0563 28.7966 45.9601 28.8676 45.8891C28.9385 45.8182 29.0348 45.7783 29.1351 45.7783H32.1622C32.2625 45.7783 32.3588 45.8182 32.4297 45.8891C32.5007 45.9601 32.5405 46.0563 32.5405 46.1567C32.5405 46.2571 32.5007 46.3533 32.4297 46.4243C32.3588 46.4952 32.2625 46.5351 32.1622 46.5351Z" fill="#02BEC5"/>
<path d="M32.1622 43.811H29.1351C29.0348 43.811 28.9385 43.7711 28.8676 43.7001C28.7966 43.6292 28.7568 43.5329 28.7568 43.4326C28.7568 43.3322 28.7966 43.236 28.8676 43.165C28.9385 43.0941 29.0348 43.0542 29.1351 43.0542H32.1622C32.2625 43.0542 32.3588 43.0941 32.4297 43.165C32.5007 43.236 32.5405 43.3322 32.5405 43.4326C32.5405 43.5329 32.5007 43.6292 32.4297 43.7001C32.3588 43.7711 32.2625 43.811 32.1622 43.811Z" fill="#02BEC5"/>
<path d="M32.1622 41.0863H29.1351C29.0348 41.0863 28.9385 41.0465 28.8676 40.9755C28.7966 40.9046 28.7568 40.8083 28.7568 40.708C28.7568 40.6076 28.7966 40.5114 28.8676 40.4404C28.9385 40.3695 29.0348 40.3296 29.1351 40.3296H32.1622C32.2625 40.3296 32.3588 40.3695 32.4297 40.4404C32.5007 40.5114 32.5405 40.6076 32.5405 40.708C32.5405 40.8083 32.5007 40.9046 32.4297 40.9755C32.3588 41.0465 32.2625 41.0863 32.1622 41.0863Z" fill="#02BEC5"/>
<path d="M32.1622 38.3622H29.1351C29.0348 38.3622 28.9385 38.3224 28.8676 38.2514C28.7966 38.1804 28.7568 38.0842 28.7568 37.9838C28.7568 37.8835 28.7966 37.7873 28.8676 37.7163C28.9385 37.6453 29.0348 37.6055 29.1351 37.6055H32.1622C32.2625 37.6055 32.3588 37.6453 32.4297 37.7163C32.5007 37.7873 32.5405 37.8835 32.5405 37.9838C32.5405 38.0842 32.5007 38.1804 32.4297 38.2514C32.3588 38.3224 32.2625 38.3622 32.1622 38.3622Z" fill="#02BEC5"/>
<path d="M32.1622 35.6381H29.1351C29.0348 35.6381 28.9385 35.5982 28.8676 35.5273C28.7966 35.4563 28.7568 35.3601 28.7568 35.2597C28.7568 35.1594 28.7966 35.0631 28.8676 34.9922C28.9385 34.9212 29.0348 34.8813 29.1351 34.8813H32.1622C32.2625 34.8813 32.3588 34.9212 32.4297 34.9922C32.5007 35.0631 32.5405 35.1594 32.5405 35.2597C32.5405 35.3601 32.5007 35.4563 32.4297 35.5273C32.3588 35.5982 32.2625 35.6381 32.1622 35.6381Z" fill="#02BEC5"/>
<path d="M39.3514 37.9081H34.4324C34.3321 37.9081 34.2358 37.8683 34.1649 37.7973C34.0939 37.7263 34.0541 37.6301 34.0541 37.5297C34.0541 37.4294 34.0939 37.3332 34.1649 37.2622C34.2358 37.1912 34.3321 37.1514 34.4324 37.1514H39.3514C39.4517 37.1514 39.5479 37.1912 39.6189 37.2622C39.6899 37.3332 39.7297 37.4294 39.7297 37.5297C39.7297 37.6301 39.6899 37.7263 39.6189 37.7973C39.5479 37.8683 39.4517 37.9081 39.3514 37.9081Z" fill="#02BEC5"/>
<path d="M40.4036 38.9604C40.1207 38.9604 39.8441 38.8765 39.6088 38.7193C39.3735 38.5621 39.1902 38.3387 39.0819 38.0773C38.9736 37.8158 38.9453 37.5282 39.0005 37.2507C39.0557 36.9731 39.1919 36.7182 39.392 36.5181C39.5921 36.3181 39.847 36.1818 40.1245 36.1266C40.402 36.0714 40.6897 36.0997 40.9511 36.208C41.2125 36.3163 41.436 36.4997 41.5932 36.7349C41.7504 36.9702 41.8343 37.2468 41.8343 37.5298C41.8339 37.9091 41.683 38.2727 41.4148 38.5409C41.1466 38.8092 40.7829 38.96 40.4036 38.9604ZM40.4036 36.8559C40.2703 36.8559 40.14 36.8954 40.0292 36.9694C39.9184 37.0435 39.832 37.1487 39.781 37.2719C39.73 37.395 39.7167 37.5305 39.7427 37.6612C39.7687 37.792 39.8329 37.912 39.9271 38.0063C40.0214 38.1005 40.1414 38.1647 40.2722 38.1907C40.4029 38.2167 40.5384 38.2034 40.6615 38.1524C40.7846 38.1014 40.8899 38.015 40.9639 37.9042C41.038 37.7933 41.0775 37.6631 41.0775 37.5298C41.0773 37.3511 41.0063 37.1798 40.8799 37.0535C40.7536 36.9271 40.5823 36.8561 40.4036 36.8559Z" fill="#02BEC5"/>
<path d="M49.5676 45.8539H45.9957C45.8953 45.8539 45.7991 45.8141 45.7281 45.7431C45.6572 45.6721 45.6173 45.5759 45.6173 45.4755C45.6173 45.3752 45.6572 45.279 45.7281 45.208C45.7991 45.137 45.8953 45.0972 45.9957 45.0972H49.5676C49.6679 45.0972 49.7642 45.137 49.8351 45.208C49.9061 45.279 49.9459 45.3752 49.9459 45.4755C49.9459 45.5759 49.9061 45.6721 49.8351 45.7431C49.7642 45.8141 49.6679 45.8539 49.5676 45.8539Z" fill="#02BEC5"/>
<path d="M44.9442 46.9062C44.6612 46.9062 44.3846 46.8223 44.1493 46.6651C43.9141 46.5079 43.7307 46.2845 43.6224 46.0231C43.5141 45.7616 43.4858 45.474 43.541 45.1965C43.5962 44.9189 43.7325 44.664 43.9325 44.4639C44.1326 44.2639 44.3875 44.1276 44.6651 44.0724C44.9426 44.0172 45.2302 44.0455 45.4916 44.1538C45.7531 44.2621 45.9765 44.4455 46.1337 44.6807C46.2909 44.916 46.3748 45.1926 46.3748 45.4756C46.3744 45.8549 46.2236 46.2185 45.9553 46.4867C45.6871 46.755 45.3235 46.9058 44.9442 46.9062ZM44.9442 44.8017C44.8109 44.8017 44.6806 44.8412 44.5698 44.9153C44.4589 44.9893 44.3726 45.0945 44.3216 45.2177C44.2706 45.3408 44.2572 45.4763 44.2832 45.607C44.3092 45.7378 44.3734 45.8578 44.4677 45.9521C44.5619 46.0463 44.682 46.1105 44.8127 46.1365C44.9434 46.1625 45.0789 46.1492 45.2021 46.0982C45.3252 46.0472 45.4304 45.9608 45.5045 45.85C45.5785 45.7391 45.6181 45.6089 45.6181 45.4756C45.6179 45.2969 45.5468 45.1256 45.4205 44.9993C45.2941 44.8729 45.1228 44.8019 44.9442 44.8017Z" fill="#02BEC5"/>
<path d="M38.5117 42.3686C38.2288 42.3686 37.9522 42.2847 37.7169 42.1275C37.4816 41.9703 37.2983 41.7469 37.19 41.4855C37.0817 41.224 37.0534 40.9364 37.1086 40.6589C37.1638 40.3813 37.3 40.1264 37.5001 39.9264C37.7002 39.7263 37.9551 39.59 38.2326 39.5348C38.5101 39.4796 38.7978 39.5079 39.0592 39.6162C39.3206 39.7245 39.5441 39.9079 39.7013 40.1431C39.8585 40.3784 39.9424 40.655 39.9424 40.938C39.942 41.3173 39.7911 41.6809 39.5229 41.9492C39.2547 42.2174 38.891 42.3682 38.5117 42.3686ZM38.5117 40.2641C38.3784 40.2641 38.2482 40.3036 38.1373 40.3777C38.0265 40.4517 37.9401 40.5569 37.8891 40.6801C37.8381 40.8032 37.8248 40.9387 37.8508 41.0694C37.8768 41.2002 37.941 41.3202 38.0352 41.4145C38.1295 41.5087 38.2495 41.5729 38.3803 41.5989C38.511 41.6249 38.6465 41.6116 38.7696 41.5606C38.8928 41.5096 38.998 41.4232 39.072 41.3124C39.1461 41.2015 39.1856 41.0713 39.1856 40.938C39.1855 40.7593 39.1145 40.5879 38.9881 40.4616C38.8618 40.3352 38.6904 40.2642 38.5117 40.2641Z" fill="#02BEC5"/>
<path d="M37.4595 41.3134H34.4324C34.3321 41.3134 34.2358 41.2735 34.1649 41.2026C34.0939 41.1316 34.0541 41.0354 34.0541 40.935C34.0541 40.8347 34.0939 40.7384 34.1649 40.6675C34.2358 40.5965 34.3321 40.5566 34.4324 40.5566H37.4595C37.5598 40.5566 37.6561 40.5965 37.727 40.6675C37.798 40.7384 37.8378 40.8347 37.8378 40.935C37.8378 41.0354 37.798 41.1316 37.727 41.2026C37.6561 41.2735 37.5598 41.3134 37.4595 41.3134Z" fill="#02BEC5"/>
<path d="M37.6487 47.2019C37.3867 47.2019 37.1307 47.1242 36.9129 46.9787C36.6951 46.8332 36.5254 46.6263 36.4251 46.3843C36.3249 46.1424 36.2987 45.8761 36.3498 45.6192C36.4009 45.3623 36.527 45.1263 36.7122 44.9411C36.8974 44.7559 37.1334 44.6298 37.3903 44.5787C37.6472 44.5276 37.9135 44.5538 38.1554 44.654C38.3974 44.7543 38.6043 44.924 38.7498 45.1418C38.8953 45.3596 38.973 45.6156 38.973 45.8775C38.973 46.2288 38.8334 46.5656 38.5851 46.814C38.3367 47.0623 37.9999 47.2019 37.6487 47.2019ZM37.6487 45.31C37.5364 45.31 37.4267 45.3433 37.3333 45.4056C37.24 45.468 37.1672 45.5566 37.1243 45.6603C37.0813 45.7641 37.0701 45.8782 37.092 45.9883C37.1139 46.0984 37.1679 46.1995 37.2473 46.2789C37.3267 46.3583 37.4278 46.4123 37.5379 46.4342C37.648 46.4561 37.7621 46.4449 37.8658 46.4019C37.9696 46.359 38.0582 46.2862 38.1206 46.1929C38.1829 46.0995 38.2162 45.9898 38.2162 45.8775C38.2162 45.727 38.1564 45.5827 38.05 45.4762C37.9435 45.3698 37.7992 45.31 37.6487 45.31Z" fill="#02BEC5"/>
<path d="M39.2681 50.0161C39.1678 50.0161 39.0715 49.9762 39.0006 49.9053C38.9296 49.8343 38.8897 49.738 38.8897 49.6377V47.4484L38.1405 46.7003C38.1044 46.6654 38.0756 46.6237 38.0557 46.5775C38.0359 46.5314 38.0255 46.4817 38.025 46.4315C38.0246 46.3812 38.0342 46.3314 38.0532 46.2849C38.0722 46.2384 38.1003 46.1962 38.1358 46.1606C38.1714 46.1251 38.2136 46.097 38.2601 46.078C38.3066 46.059 38.3564 46.0494 38.4067 46.0498C38.4569 46.0503 38.5066 46.0607 38.5527 46.0805C38.5989 46.1004 38.6407 46.1292 38.6756 46.1653L39.5345 47.0242C39.6054 47.0952 39.6453 47.1914 39.6453 47.2918V49.6377C39.6454 49.7379 39.6056 49.8339 39.5349 49.9049C39.4642 49.9758 39.3683 50.0158 39.2681 50.0161Z" fill="#02BEC5"/>
<path d="M45.0505 39.7351C44.7886 39.7351 44.5325 39.6574 44.3147 39.5119C44.0969 39.3664 43.9272 39.1595 43.827 38.9175C43.7267 38.6756 43.7005 38.4093 43.7516 38.1524C43.8027 37.8955 43.9288 37.6595 44.114 37.4743C44.2993 37.2891 44.5352 37.163 44.7921 37.1119C45.049 37.0608 45.3153 37.087 45.5573 37.1872C45.7993 37.2875 46.0061 37.4572 46.1516 37.675C46.2971 37.8928 46.3748 38.1488 46.3748 38.4108C46.3743 38.7618 46.2346 39.0984 45.9864 39.3466C45.7381 39.5949 45.4016 39.7346 45.0505 39.7351ZM45.0505 37.8432C44.9382 37.8432 44.8285 37.8765 44.7352 37.9388C44.6418 38.0012 44.5691 38.0898 44.5261 38.1936C44.4832 38.2973 44.4719 38.4114 44.4938 38.5215C44.5157 38.6316 44.5698 38.7327 44.6492 38.8121C44.7285 38.8915 44.8297 38.9455 44.9398 38.9674C45.0499 38.9893 45.164 38.9781 45.2677 38.9351C45.3714 38.8922 45.46 38.8194 45.5224 38.7261C45.5848 38.6327 45.6181 38.523 45.6181 38.4108C45.6181 38.2602 45.5583 38.1159 45.4518 38.0094C45.3454 37.903 45.201 37.8432 45.0505 37.8432Z" fill="#02BEC5"/>
<path d="M45.6059 38.0283C45.5311 38.0283 45.458 38.0061 45.3958 37.9645C45.3336 37.9229 45.2851 37.8638 45.2564 37.7947C45.2278 37.7256 45.2203 37.6495 45.2349 37.5761C45.2495 37.5027 45.2855 37.4353 45.3384 37.3824L46.1973 36.5235C46.2683 36.4525 46.3645 36.4126 46.4649 36.4126H49.5676C49.6679 36.4126 49.7642 36.4525 49.8351 36.5234C49.9061 36.5944 49.9459 36.6906 49.9459 36.791C49.9459 36.8913 49.9061 36.9876 49.8351 37.0585C49.7642 37.1295 49.6679 37.1694 49.5676 37.1694H46.6215L45.8735 37.9174C45.8384 37.9527 45.7967 37.9806 45.7508 37.9996C45.7049 38.0187 45.6557 38.0284 45.6059 38.0283Z" fill="#02BEC5"/>
<path d="M45.1334 43.3615C44.8714 43.3615 44.6154 43.2839 44.3976 43.1384C44.1798 42.9928 44.0101 42.786 43.9098 42.544C43.8096 42.302 43.7834 42.0357 43.8345 41.7789C43.8856 41.522 44.0117 41.286 44.1969 41.1008C44.3821 40.9156 44.6181 40.7894 44.875 40.7383C45.1319 40.6872 45.3982 40.7135 45.6402 40.8137C45.8821 40.9139 46.089 41.0837 46.2345 41.3015C46.38 41.5192 46.4577 41.7753 46.4577 42.0372C46.4577 42.3884 46.3182 42.7253 46.0698 42.9737C45.8214 43.222 45.4846 43.3615 45.1334 43.3615ZM45.1334 41.4696C45.0211 41.4696 44.9114 41.5029 44.818 41.5653C44.7247 41.6277 44.6519 41.7163 44.609 41.82C44.566 41.9237 44.5548 42.0378 44.5767 42.1479C44.5986 42.258 44.6526 42.3592 44.732 42.4385C44.8114 42.5179 44.9125 42.572 45.0226 42.5939C45.1327 42.6158 45.2468 42.6045 45.3506 42.5616C45.4543 42.5186 45.5429 42.4459 45.6053 42.3525C45.6676 42.2592 45.7009 42.1495 45.7009 42.0372C45.7009 41.8867 45.6411 41.7423 45.5347 41.6359C45.4282 41.5294 45.2839 41.4696 45.1334 41.4696Z" fill="#02BEC5"/>
<path d="M45.6892 41.6543C45.6144 41.6542 45.5412 41.632 45.479 41.5905C45.4168 41.5489 45.3683 41.4898 45.3397 41.4207C45.3111 41.3515 45.3036 41.2755 45.3182 41.2021C45.3327 41.1287 45.3688 41.0613 45.4217 41.0084L46.2806 40.1494C46.3515 40.0785 46.4478 40.0386 46.5481 40.0386H49.5676C49.6679 40.0386 49.7642 40.0784 49.8351 40.1494C49.9061 40.2204 49.9459 40.3166 49.9459 40.417C49.9459 40.5173 49.9061 40.6135 49.8351 40.6845C49.7642 40.7555 49.6679 40.7953 49.5676 40.7953H46.7048L45.9567 41.5434C45.8858 41.6143 45.7895 41.6542 45.6892 41.6543Z" fill="#02BEC5"/>
<path d="M41.1706 45.0146C40.8876 45.0146 40.611 44.9307 40.3758 44.7735C40.1405 44.6163 39.9571 44.3929 39.8488 44.1315C39.7406 43.87 39.7122 43.5824 39.7674 43.3049C39.8226 43.0273 39.9589 42.7724 40.159 42.5723C40.3591 42.3723 40.614 42.236 40.8915 42.1808C41.169 42.1256 41.4567 42.1539 41.7181 42.2622C41.9795 42.3705 42.2029 42.5539 42.3601 42.7891C42.5173 43.0244 42.6012 43.301 42.6012 43.584C42.6008 43.9633 42.45 44.3269 42.1818 44.5951C41.9136 44.8634 41.5499 45.0142 41.1706 45.0146ZM41.1706 42.9101C41.0373 42.9101 40.907 42.9496 40.7962 43.0236C40.6854 43.0977 40.599 43.2029 40.548 43.3261C40.497 43.4492 40.4836 43.5847 40.5097 43.7154C40.5357 43.8462 40.5998 43.9662 40.6941 44.0605C40.7883 44.1547 40.9084 44.2189 41.0391 44.2449C41.1698 44.2709 41.3053 44.2576 41.4285 44.2066C41.5516 44.1556 41.6569 44.0692 41.7309 43.9584C41.805 43.8475 41.8445 43.7173 41.8445 43.584C41.8443 43.4053 41.7732 43.234 41.6469 43.1077C41.5206 42.9813 41.3493 42.9103 41.1706 42.9101Z" fill="#02BEC5"/>
<path d="M42.3784 50.0162C42.278 50.0162 42.1818 49.9764 42.1108 49.9054C42.0399 49.8345 42 49.7382 42 49.6379V47.7437L40.9027 46.6464C40.8317 46.5755 40.7919 46.4792 40.7918 46.3789V44.6357C40.7918 44.5354 40.8317 44.4391 40.9027 44.3681C40.9736 44.2972 41.0699 44.2573 41.1702 44.2573C41.2706 44.2573 41.3668 44.2972 41.4378 44.3681C41.5087 44.4391 41.5486 44.5354 41.5486 44.6357V46.2249L42.6459 47.3222C42.7162 47.3925 42.756 47.4876 42.7568 47.5871V49.6379C42.7568 49.7382 42.7169 49.8345 42.6459 49.9054C42.575 49.9764 42.4787 50.0162 42.3784 50.0162Z" fill="#02BEC5"/>
</g>
<path d="M51.7723 1.07002L9.1144 1.07031L1 9.17284V74.9929L9.1153 83.0963H74.8855L83.5003 74.4932V32.7521L51.7723 1.07002ZM8.70061 0.0703125H52.1864L84.5003 32.3375V74.9078L75.2993 84.0963H8.70151L0 75.4075V8.7582L8.70061 0.0703125Z" fill="white" fill-opacity="0.2"/>
<path d="M83.1 20.0961V0.996094H64L83.1 20.0961Z" fill="#02BEC5"/>
<defs>
<clipPath id="clip0_20_642">
<rect width="28" height="28" fill="white" transform="translate(28 28.0703)"/>
</clipPath>
</defs>
</svg>
