<svg width="33" height="1292" viewBox="0 0 33 1292" fill="none" xmlns="http://www.w3.org/2000/svg">
<path d="M16.5 119L16.4999 1247" stroke="#02BEC5"/>
<g clip-path="url(#clip0_29_1072)">
<path d="M0.617892 104.579L0.617893 104.079L0.617896 16.3831L0.617896 15.8831L1.06193 15.8831L15.8771 1.06085L16.2307 0.707031L16.5843 1.06085L31.3995 15.8831L31.8435 15.8831L31.8435 16.3831L31.8435 104.079L31.8435 104.579L31.3995 104.579L16.5843 119.4L16.2307 119.754L15.8771 119.4L1.06192 104.579L0.617892 104.579Z" fill="#050509"/>
<path d="M1.11789 104.079L1.26909 104.079L16.2307 119.047L31.1923 104.079L31.3435 104.079L31.3435 16.3829L31.1923 16.3829L16.2307 1.41406L1.2691 16.3829L1.1179 16.3829L1.11789 104.079ZM0.117892 105.079L0.117896 15.3829L0.854741 15.3829L16.2307 -0.000488986L31.6067 15.3829L32.3435 15.3829L32.3435 105.079L31.6066 105.079L16.2307 120.461L0.854755 105.079L0.117892 105.079Z" fill="#02BEC5"/>
<path d="M19.3445 74.3643L19.3445 81.0823L12.6265 87.8003L12.6265 81.0823L19.3445 74.3643Z" fill="white"/>
<path opacity="0.8" d="M19.3445 60.9282L19.3445 67.6462L12.6265 74.3642L12.6265 67.6462L19.3445 60.9282Z" fill="white"/>
<path opacity="0.65" d="M19.3445 47.1709L19.3445 53.8889L12.6265 60.6069L12.6265 53.8889L19.3445 47.1709Z" fill="white"/>
<path opacity="0.4" d="M19.3445 33.4141L19.3445 40.1321L12.6265 46.8501L12.6265 40.1321L19.3445 33.4141Z" fill="white"/>
</g>
<g clip-path="url(#clip1_29_1072)">
<path d="M0.617892 399.579L0.617893 399.079L0.617896 311.383L0.617896 310.883L1.06193 310.883L15.8771 296.061L16.2307 295.707L16.5843 296.061L31.3995 310.883L31.8435 310.883L31.8435 311.383L31.8435 399.079L31.8435 399.579L31.3995 399.579L16.5843 414.4L16.2307 414.754L15.8771 414.4L1.06192 399.579L0.617892 399.579Z" fill="#050509"/>
<path d="M1.11789 399.079L1.26909 399.079L16.2307 414.047L31.1923 399.079L31.3435 399.079L31.3435 311.383L31.1923 311.383L16.2307 296.414L1.2691 311.383L1.1179 311.383L1.11789 399.079ZM0.117892 400.079L0.117896 310.383L0.854741 310.383L16.2307 295L31.6067 310.383L32.3435 310.383L32.3435 400.079L31.6066 400.079L16.2307 415.461L0.854755 400.079L0.117892 400.079Z" fill="#02BEC5"/>
<path d="M19.3445 369.364L19.3445 376.082L12.6265 382.8L12.6265 376.082L19.3445 369.364Z" fill="white"/>
<path opacity="0.8" d="M19.3445 355.928L19.3445 362.646L12.6265 369.364L12.6265 362.646L19.3445 355.928Z" fill="white"/>
<path opacity="0.65" d="M19.3445 342.171L19.3445 348.889L12.6265 355.607L12.6265 348.889L19.3445 342.171Z" fill="white"/>
<path opacity="0.4" d="M19.3445 328.414L19.3445 335.132L12.6265 341.85L12.6265 335.132L19.3445 328.414Z" fill="white"/>
</g>
<g clip-path="url(#clip2_29_1072)">
<path d="M0.617892 694.579L0.617893 694.079L0.617896 606.383L0.617896 605.883L1.06193 605.883L15.8771 591.061L16.2307 590.707L16.5843 591.061L31.3995 605.883L31.8435 605.883L31.8435 606.383L31.8435 694.079L31.8435 694.579L31.3995 694.579L16.5843 709.4L16.2307 709.754L15.8771 709.4L1.06192 694.579L0.617892 694.579Z" fill="#050509"/>
<path d="M1.11789 694.079L1.26909 694.079L16.2307 709.047L31.1923 694.079L31.3435 694.079L31.3435 606.383L31.1923 606.383L16.2307 591.414L1.2691 606.383L1.1179 606.383L1.11789 694.079ZM0.117892 695.079L0.117896 605.383L0.854741 605.383L16.2307 590L31.6067 605.383L32.3435 605.383L32.3435 695.079L31.6066 695.079L16.2307 710.461L0.854755 695.079L0.117892 695.079Z" fill="#02BEC5"/>
<path d="M19.3445 664.364L19.3445 671.082L12.6265 677.8L12.6265 671.082L19.3445 664.364Z" fill="white"/>
<path opacity="0.8" d="M19.3445 650.928L19.3445 657.646L12.6265 664.364L12.6265 657.646L19.3445 650.928Z" fill="white"/>
<path opacity="0.65" d="M19.3445 637.171L19.3445 643.889L12.6265 650.607L12.6265 643.889L19.3445 637.171Z" fill="white"/>
<path opacity="0.4" d="M19.3445 623.414L19.3445 630.132L12.6265 636.85L12.6265 630.132L19.3445 623.414Z" fill="white"/>
</g>
<g clip-path="url(#clip3_29_1072)">
<path d="M0.617892 984.578L0.617893 984.078L0.617896 896.382L0.617896 895.882L1.06193 895.882L15.8771 881.06L16.2307 880.706L16.5843 881.06L31.3995 895.882L31.8435 895.882L31.8435 896.382L31.8435 984.078L31.8435 984.578L31.3995 984.578L16.5843 999.4L16.2307 999.753L15.8771 999.4L1.06192 984.578L0.617892 984.578Z" fill="#050509"/>
<path d="M1.11789 984.078L1.26909 984.078L16.2307 999.046L31.1923 984.078L31.3435 984.078L31.3435 896.382L31.1923 896.382L16.2307 881.414L1.2691 896.382L1.1179 896.382L1.11789 984.078ZM0.117892 985.078L0.117896 895.382L0.854741 895.382L16.2307 879.999L31.6067 895.382L32.3435 895.382L32.3435 985.078L31.6066 985.078L16.2307 1000.46L0.854755 985.078L0.117892 985.078Z" fill="#02BEC5"/>
<path d="M19.3445 954.364L19.3445 961.082L12.6265 967.8L12.6265 961.082L19.3445 954.364Z" fill="white"/>
<path opacity="0.8" d="M19.3445 940.928L19.3445 947.646L12.6265 954.364L12.6265 947.646L19.3445 940.928Z" fill="white"/>
<path opacity="0.65" d="M19.3445 927.171L19.3445 933.889L12.6265 940.607L12.6265 933.889L19.3445 927.171Z" fill="white"/>
<path opacity="0.4" d="M19.3445 913.414L19.3445 920.132L12.6265 926.85L12.6265 920.132L19.3445 913.414Z" fill="white"/>
</g>
<g clip-path="url(#clip4_29_1072)">
<path d="M0.617892 1275.58L0.617893 1275.08L0.617896 1187.38L0.617896 1186.88L1.06193 1186.88L15.8771 1172.06L16.2307 1171.71L16.5843 1172.06L31.3995 1186.88L31.8435 1186.88L31.8435 1187.38L31.8435 1275.08L31.8435 1275.58L31.3995 1275.58L16.5843 1290.4L16.2307 1290.75L15.8771 1290.4L1.06192 1275.58L0.617892 1275.58Z" fill="#050509"/>
<path d="M1.11789 1275.08L1.26909 1275.08L16.2307 1290.05L31.1923 1275.08L31.3435 1275.08L31.3435 1187.38L31.1923 1187.38L16.2307 1172.41L1.2691 1187.38L1.1179 1187.38L1.11789 1275.08ZM0.117892 1276.08L0.117896 1186.38L0.854741 1186.38L16.2307 1171L31.6067 1186.38L32.3435 1186.38L32.3435 1276.08L31.6066 1276.08L16.2307 1291.46L0.854755 1276.08L0.117892 1276.08Z" fill="#02BEC5"/>
<path d="M19.3445 1245.36L19.3445 1252.08L12.6265 1258.8L12.6265 1252.08L19.3445 1245.36Z" fill="white"/>
<path opacity="0.8" d="M19.3445 1231.93L19.3445 1238.65L12.6265 1245.36L12.6265 1238.65L19.3445 1231.93Z" fill="white"/>
<path opacity="0.65" d="M19.3445 1218.17L19.3445 1224.89L12.6265 1231.61L12.6265 1224.89L19.3445 1218.17Z" fill="white"/>
<path opacity="0.4" d="M19.3445 1204.41L19.3445 1211.13L12.6265 1217.85L12.6265 1211.13L19.3445 1204.41Z" fill="white"/>
</g>
<defs>
<clipPath id="clip0_29_1072">
<rect width="120.461" height="32.226" fill="white" transform="translate(32.3435) rotate(90)"/>
</clipPath>
<clipPath id="clip1_29_1072">
<rect width="120.461" height="32.226" fill="white" transform="translate(32.3435 295) rotate(90)"/>
</clipPath>
<clipPath id="clip2_29_1072">
<rect width="120.461" height="32.226" fill="white" transform="translate(32.3435 590) rotate(90)"/>
</clipPath>
<clipPath id="clip3_29_1072">
<rect width="120.461" height="32.226" fill="white" transform="translate(32.3435 880) rotate(90)"/>
</clipPath>
<clipPath id="clip4_29_1072">
<rect width="120.461" height="32.226" fill="white" transform="translate(32.3435 1171) rotate(90)"/>
</clipPath>
</defs>
</svg>
