<svg width="62" height="62" viewBox="0 0 62 62" fill="none" xmlns="http://www.w3.org/2000/svg">
<path d="M61.5 52.7116L52.7191 61.5H7.04195L0.5 54.9529V7.04638L7.04193 0.5H52.7191L61.5 9.28767V52.7116Z" fill="#050509" stroke="url(#paint0_linear_64_2732)"/>
<g clip-path="url(#clip0_64_2732)">
<path d="M28.3334 36.3332H33.6667C34.5504 36.3332 35.2667 35.6168 35.2667 34.7332V29.9332C35.2667 29.0495 34.5504 28.3332 33.6667 28.3332V27.2665C33.6667 25.7938 32.4728 24.5999 31.0001 24.5999C29.5273 24.5999 28.3334 25.7938 28.3334 27.2665V28.3332C27.4497 28.3332 26.7334 29.0495 26.7334 29.9332V34.7332C26.7334 35.6168 27.4497 36.3332 28.3334 36.3332ZM29.4001 27.2665C29.4001 26.3829 30.1164 25.6665 31.0001 25.6665C31.8837 25.6665 32.6001 26.3829 32.6001 27.2665V28.3332H29.4001V27.2665ZM27.8001 29.9332C27.8001 29.6386 28.0388 29.3999 28.3334 29.3999H33.6667C33.9613 29.3999 34.2001 29.6386 34.2001 29.9332V34.7332C34.2001 35.0277 33.9613 35.2665 33.6667 35.2665H28.3334C28.0388 35.2665 27.8001 35.0277 27.8001 34.7332V29.9332Z" fill="#02BEC5"/>
<path d="M30.4667 33.5685V33.6666C30.4667 33.9611 30.7055 34.1999 31.0001 34.1999C31.2946 34.1999 31.5334 33.9611 31.5334 33.6666V33.5685C32.2681 33.3087 32.7088 32.5574 32.577 31.7894C32.4452 31.0214 31.7793 30.46 31.0001 30.46C30.2208 30.46 29.5549 31.0214 29.4231 31.7894C29.2913 32.5574 29.732 33.3087 30.4667 33.5685ZM31.0001 31.5333C31.2946 31.5333 31.5334 31.772 31.5334 32.0666C31.5334 32.3611 31.2946 32.5999 31.0001 32.5999C30.7055 32.5999 30.4667 32.3611 30.4667 32.0666C30.4667 31.772 30.7055 31.5333 31.0001 31.5333Z" fill="#02BEC5"/>
<path d="M21.9333 31C21.9333 36.0074 25.9926 40.0667 31 40.0667C36.0074 40.0667 40.0667 36.0074 40.0667 31C40.0667 25.9926 36.0074 21.9333 31 21.9333C25.9949 21.9389 21.9389 25.9949 21.9333 31ZM31 23C35.4183 23 39 26.5817 39 31C39 35.4183 35.4183 39 31 39C26.5817 39 23 35.4183 23 31C23.005 26.5838 26.5838 23.005 31 23Z" fill="#02BEC5"/>
<path d="M41.6667 42.7332C40.6969 42.7368 39.8516 43.3942 39.6091 44.3332H35.8001V41.1092C36.9925 40.5479 38.0759 39.7795 39.0001 38.8399C39.1367 38.7044 39.1898 38.5059 39.139 38.3204C39.0883 38.1349 38.9416 37.991 38.7551 37.944C38.5686 37.8969 38.3712 37.9539 38.2385 38.0932C37.3329 39.019 36.258 39.7622 35.0721 40.2825C35.0004 40.311 34.936 40.3548 34.8833 40.4111C34.8774 40.4175 34.8742 40.426 34.8683 40.4335C34.8293 40.4768 34.7978 40.5264 34.775 40.5801C34.7645 40.6136 34.7576 40.6481 34.7542 40.6831C34.7443 40.7132 34.7373 40.7443 34.7334 40.7759V40.7855V44.3332C34.7334 44.9223 35.211 45.3999 35.8001 45.3999H39.6091C39.8882 46.4706 40.9407 47.1492 42.0312 46.9615C43.1216 46.7738 43.8866 45.7823 43.7916 44.6799C43.6966 43.5775 42.7732 42.7315 41.6667 42.7332ZM41.6667 45.9332C41.0776 45.9332 40.6001 45.4556 40.6001 44.8665C40.6001 44.2774 41.0776 43.7999 41.6667 43.7999C42.2558 43.7999 42.7334 44.2774 42.7334 44.8665C42.7334 45.4556 42.2558 45.9332 41.6667 45.9332Z" fill="#02BEC5"/>
<path d="M19.191 36.8665H21.7681C21.7723 36.8665 21.7761 36.8639 21.7809 36.8639C21.8339 36.8615 21.8863 36.8509 21.9361 36.8324C21.9609 36.8242 21.9852 36.8143 22.0086 36.8025C22.0145 36.7993 22.0214 36.7983 22.0273 36.7945C22.0331 36.7908 22.0422 36.7796 22.0507 36.7737C22.0991 36.7439 22.142 36.706 22.1777 36.6617C22.1839 36.6535 22.1898 36.645 22.1953 36.6361C22.2298 36.5876 22.2558 36.5335 22.2721 36.4761C22.2721 36.4681 22.2753 36.4601 22.2769 36.4521C22.2898 36.4136 22.298 36.3737 22.3014 36.3332C22.2986 36.313 22.2945 36.2931 22.2891 36.2735C22.2891 36.2665 22.2891 36.2601 22.2854 36.2527C22.2763 36.1901 22.2559 36.1297 22.2251 36.0745L22.2225 36.066C21.6756 35.122 21.2861 34.0952 21.0694 33.026C21.0105 32.7373 20.7287 32.5511 20.4401 32.61C20.1514 32.6689 19.9651 32.9507 20.0241 33.2393C20.2035 34.1242 20.4901 34.9838 20.8774 35.7993H19.191C18.9224 34.7592 17.9223 34.081 16.8566 34.2163C15.7909 34.3517 14.9921 35.2584 14.9921 36.3327C14.9921 37.4069 15.7909 38.3136 16.8566 38.449C17.9223 38.5844 18.9224 37.9067 19.191 36.8665ZM17.1334 37.3999C16.5443 37.3999 16.0667 36.9223 16.0667 36.3332C16.0667 35.7441 16.5443 35.2665 17.1334 35.2665C17.7225 35.2665 18.2001 35.7441 18.2001 36.3332C18.2001 36.9223 17.7225 37.3999 17.1334 37.3999Z" fill="#02BEC5"/>
<path d="M15 25.6667C14.9987 26.7396 15.7959 27.6459 16.8603 27.7814C17.9247 27.9168 18.9235 27.2391 19.1909 26.2H21.768H21.7824C21.835 26.197 21.8869 26.1864 21.9365 26.1686C21.96 26.1611 21.9828 26.1518 22.0048 26.1408C22.0332 26.1258 22.06 26.108 22.0848 26.0875C22.1298 26.0535 22.1687 26.0122 22.2 25.9654C22.2069 25.9552 22.216 25.9478 22.2224 25.9371C22.9063 24.7503 23.824 23.7148 24.92 22.8934C25.0724 22.779 25.1523 22.5921 25.1295 22.4029C25.1067 22.2137 24.9847 22.0511 24.8095 21.9762C24.6343 21.9014 24.4324 21.9257 24.28 22.04C23.1576 22.8855 22.2046 23.9349 21.4709 25.1334H19.1909C18.9235 24.0943 17.9247 23.4166 16.8603 23.552C15.7959 23.6875 14.9987 24.5937 15 25.6667ZM18.2 25.6667C18.2 26.2558 17.7224 26.7334 17.1333 26.7334C16.5442 26.7334 16.0667 26.2558 16.0667 25.6667C16.0667 25.0776 16.5442 24.6 17.1333 24.6C17.4162 24.6 17.6875 24.7124 17.8876 24.9124C18.0876 25.1125 18.2 25.3838 18.2 25.6667Z" fill="#02BEC5"/>
<path d="M44.8667 34.1998C43.8969 34.2035 43.0516 34.8608 42.8091 35.7998H41.1222C41.5099 34.9845 41.7965 34.1248 41.9755 33.2398C42.0344 32.951 41.8481 32.6691 41.5593 32.6102C41.2705 32.5513 40.9886 32.7377 40.9297 33.0265C40.7133 34.0957 40.3242 35.1225 39.7777 36.0665V36.0734C39.7458 36.1298 39.7248 36.1917 39.7158 36.2558C39.7158 36.2617 39.7158 36.267 39.7121 36.2729C39.7066 36.2927 39.7021 36.3129 39.6987 36.3332C39.702 36.3751 39.7102 36.4164 39.7233 36.4564C39.7233 36.4633 39.7233 36.4702 39.7275 36.4772C39.7441 36.5347 39.7706 36.5888 39.8059 36.6372C39.8113 36.6452 39.8155 36.6532 39.8214 36.6606C39.8575 36.7051 39.9008 36.7433 39.9494 36.7737C39.9579 36.7796 39.9633 36.7886 39.9723 36.794C39.9814 36.7993 39.9851 36.7988 39.991 36.802C40.0147 36.8141 40.0393 36.8242 40.0646 36.8324C40.1142 36.8502 40.1661 36.8607 40.2187 36.8633C40.2235 36.8633 40.2273 36.866 40.2321 36.866H42.8091C43.0879 37.9368 44.1404 38.6158 45.231 38.4282C46.3215 38.2407 47.0867 37.2492 46.9918 36.1467C46.8968 35.0442 45.9733 34.1981 44.8667 34.1998ZM44.8667 37.3998C44.2776 37.3998 43.8001 36.9223 43.8001 36.3332C43.8001 35.7441 44.2776 35.2665 44.8667 35.2665C45.4558 35.2665 45.9334 35.7441 45.9334 36.3332C45.9334 36.9223 45.4558 37.3998 44.8667 37.3998Z" fill="#02BEC5"/>
<path d="M27.2667 40.7851V40.776C27.2633 40.7461 27.2574 40.7165 27.2491 40.6875C27.2453 40.6513 27.238 40.6156 27.2272 40.5808C27.2048 40.5279 27.1738 40.4791 27.1355 40.4363C27.1285 40.4283 27.1253 40.4187 27.1184 40.4112C27.0655 40.355 27.0009 40.3111 26.9291 40.2827C25.533 39.6665 24.2927 38.7455 23.2992 37.5872C23.177 37.4368 22.9828 37.3645 22.792 37.3984C22.6012 37.4322 22.4438 37.567 22.3808 37.7503C22.3179 37.9336 22.3593 38.1366 22.4891 38.2806C23.5147 39.4744 24.7788 40.4405 26.2 41.1168V44.3334H22.3909C22.1224 43.2932 21.1223 42.615 20.0565 42.7504C18.9908 42.8857 18.192 43.7924 18.192 44.8667C18.192 45.941 18.9908 46.8477 20.0565 46.983C21.1223 47.1184 22.1224 46.4402 22.3909 45.4H26.2C26.7891 45.4 27.2667 44.9225 27.2667 44.3334V40.7851ZM20.3333 45.9334C19.7442 45.9334 19.2667 45.4558 19.2667 44.8667C19.2667 44.2776 19.7442 43.8 20.3333 43.8C20.9224 43.8 21.4 44.2776 21.4 44.8667C21.4 45.4558 20.9224 45.9334 20.3333 45.9334Z" fill="#02BEC5"/>
<path d="M33.0267 40.9305C31.689 41.1992 30.3112 41.1992 28.9734 40.9305C28.7847 40.8872 28.5873 40.9496 28.4578 41.0935C28.3283 41.2373 28.2869 41.4401 28.3496 41.6233C28.4124 41.8064 28.5695 41.9412 28.7601 41.9753C29.3231 42.0847 29.8936 42.1509 30.4667 42.1732V46.4665C30.4667 46.7611 30.7055 46.9998 31.0001 46.9998C31.2946 46.9998 31.5334 46.7611 31.5334 46.4665V42.1732C32.1065 42.1509 32.6771 42.0847 33.2401 41.9753C33.5223 41.9106 33.7013 41.6325 33.6434 41.3488C33.5854 41.0651 33.3117 40.8794 33.0267 40.9305Z" fill="#02BEC5"/>
<path d="M26.2 16.5999H22.3909C22.1224 15.5598 21.1223 14.8816 20.0565 15.0169C18.9908 15.1523 18.192 16.059 18.192 17.1332C18.192 18.2075 18.9908 19.1142 20.0565 19.2496C21.1223 19.3849 22.1224 18.7067 22.3909 17.6666H26.2V21.225C26.2 21.2463 26.2101 21.2671 26.2128 21.2884C26.2184 21.3437 26.2326 21.3976 26.2549 21.4484C26.2771 21.496 26.3066 21.5397 26.3424 21.578C26.3603 21.5974 26.3797 21.6152 26.4005 21.6314C26.4267 21.6528 26.4547 21.6717 26.4843 21.6879C26.5089 21.7016 26.5346 21.7133 26.5611 21.7231C26.5992 21.7352 26.6386 21.7431 26.6784 21.7466C26.6959 21.7514 26.7138 21.7551 26.7317 21.7578C26.8082 21.7562 26.8833 21.738 26.952 21.7044C27.6017 21.4227 28.2792 21.21 28.9733 21.0698C29.2622 21.0109 29.4485 20.729 29.3896 20.4402C29.3307 20.1514 29.0488 19.965 28.76 20.0239C28.2531 20.1276 27.7542 20.2666 27.2667 20.4399V17.6666C27.2667 17.0775 26.7891 16.5999 26.2 16.5999ZM20.3333 18.1999C19.7442 18.1999 19.2667 17.7224 19.2667 17.1332C19.2667 16.5441 19.7442 16.0666 20.3333 16.0666C20.9224 16.0666 21.4 16.5441 21.4 17.1332C21.4 17.4161 21.2876 17.6875 21.0876 17.8875C20.8875 18.0875 20.6162 18.1999 20.3333 18.1999Z" fill="#02BEC5"/>
<path d="M39.6091 17.6666C39.8777 18.7067 40.8778 19.3849 41.9435 19.2496C43.0092 19.1142 43.8081 18.2075 43.8081 17.1332C43.8081 16.059 43.0092 15.1523 41.9435 15.0169C40.8778 14.8816 39.8777 15.5598 39.6091 16.5999H35.8001C35.211 16.5999 34.7334 17.0775 34.7334 17.6666V21.2138V21.2234C34.7366 21.2548 34.7429 21.2859 34.7521 21.3162C34.7554 21.3511 34.7624 21.3856 34.7729 21.4191C34.7957 21.4728 34.8272 21.5224 34.8662 21.5658C34.8721 21.5727 34.8753 21.5818 34.8811 21.5882C34.9338 21.6444 34.9983 21.6883 35.0699 21.7167C36.2556 22.2362 37.3306 22.9785 38.2363 23.9034C38.3671 24.0487 38.567 24.1108 38.7571 24.0653C38.9472 24.0197 39.0972 23.8737 39.1479 23.6849C39.1986 23.496 39.1418 23.2946 39.0001 23.1599C38.0759 22.2202 36.9925 21.4519 35.8001 20.8906V17.6666H39.6091ZM41.6667 16.0666C42.2558 16.0666 42.7334 16.5441 42.7334 17.1332C42.7334 17.7224 42.2558 18.1999 41.6667 18.1999C41.0776 18.1999 40.6001 17.7224 40.6001 17.1332C40.6001 16.5441 41.0776 16.0666 41.6667 16.0666Z" fill="#02BEC5"/>
<path d="M31 15C30.7055 15 30.4667 15.2388 30.4667 15.5333V20.3333C30.4667 20.6279 30.7055 20.8667 31 20.8667C31.6806 20.8665 32.3596 20.9344 33.0267 21.0693C33.0618 21.0766 33.0975 21.0801 33.1333 21.08C33.4063 21.079 33.6345 20.8719 33.6619 20.6003C33.6894 20.3287 33.5073 20.0802 33.24 20.0245C32.677 19.9151 32.1064 19.849 31.5333 19.8267V15.5333C31.5333 15.2388 31.2946 15 31 15Z" fill="#02BEC5"/>
<path d="M42.8091 26.2C43.0777 27.2402 44.0778 27.9184 45.1435 27.783C46.2092 27.6477 47.0081 26.741 47.0081 25.6667C47.0081 24.5924 46.2092 23.6857 45.1435 23.5504C44.0778 23.415 43.0777 24.0932 42.8091 25.1334H40.2321C40.2219 25.1334 40.2139 25.1387 40.2043 25.1387C40.1734 25.142 40.1429 25.1483 40.1131 25.1574C40.0693 25.166 40.0268 25.1804 39.9867 25.2C39.9825 25.2 39.9771 25.2 39.9723 25.2054C39.9675 25.2107 39.9585 25.2198 39.9494 25.2256C39.9008 25.256 39.8575 25.2942 39.8214 25.3387C39.8155 25.3462 39.8113 25.3542 39.8059 25.3622C39.7706 25.4105 39.7441 25.4646 39.7275 25.5222C39.7275 25.5291 39.7275 25.536 39.7233 25.543C39.7101 25.5831 39.7019 25.6246 39.6987 25.6667C39.7016 25.6872 39.7055 25.7075 39.7105 25.7275C39.7105 25.7334 39.7131 25.7387 39.7142 25.7446C39.7232 25.8087 39.7442 25.8706 39.7761 25.927V25.9339C40.6655 27.4741 41.1337 29.2214 41.1334 31C41.1334 31.2946 41.3722 31.5334 41.6667 31.5334H46.4667C46.7613 31.5334 47.0001 31.2946 47.0001 31C47.0001 30.7055 46.7613 30.4667 46.4667 30.4667H42.1825C42.1125 28.9879 41.75 27.5377 41.1158 26.2H42.8091ZM44.8667 24.6C45.4558 24.6 45.9334 25.0776 45.9334 25.6667C45.9334 26.2558 45.4558 26.7334 44.8667 26.7334C44.2776 26.7334 43.8001 26.2558 43.8001 25.6667C43.8001 25.0776 44.2776 24.6 44.8667 24.6Z" fill="#02BEC5"/>
<path d="M15.5333 31.5333H20.3333C20.6279 31.5333 20.8667 31.2946 20.8667 31C20.8655 29.9224 21.0364 28.8515 21.3728 27.8277C21.4323 27.6467 21.3908 27.4477 21.2638 27.3056C21.1368 27.1635 20.9437 27.1 20.7571 27.139C20.5706 27.1779 20.419 27.3134 20.3595 27.4944C20.0462 28.4562 19.8649 29.4561 19.8208 30.4667H15.5333C15.2388 30.4667 15 30.7055 15 31C15 31.2946 15.2388 31.5333 15.5333 31.5333Z" fill="#02BEC5"/>
</g>
<defs>
<linearGradient id="paint0_linear_64_2732" x1="31" y1="0" x2="31" y2="62" gradientUnits="userSpaceOnUse">
<stop stop-color="#0286B6"/>
<stop offset="1" stop-color="#02BEC5"/>
</linearGradient>
<clipPath id="clip0_64_2732">
<rect width="32" height="32" fill="white" transform="translate(15 15)"/>
</clipPath>
</defs>
</svg>
