<svg width="62" height="62" viewBox="0 0 62 62" fill="none" xmlns="http://www.w3.org/2000/svg">
<path d="M61.5 52.7116L52.7191 61.5H7.04195L0.5 54.9529V7.04638L7.04193 0.5H52.7191L61.5 9.28767V52.7116Z" fill="#050509" stroke="url(#paint0_linear_64_2698)"/>
<path d="M31 21C29.0222 21 27.0888 21.5865 25.4443 22.6853C23.7998 23.7841 22.5181 25.3459 21.7612 27.1732C21.0043 29.0004 20.8063 31.0111 21.1922 32.9509C21.578 34.8907 22.5304 36.6725 23.9289 38.0711C25.3275 39.4696 27.1093 40.422 29.0491 40.8079C30.9889 41.1937 32.9996 40.9957 34.8268 40.2388C36.6541 39.4819 38.2159 38.2002 39.3147 36.5557C40.4135 34.9112 41 32.9778 41 31C41 28.3478 39.9464 25.8043 38.0711 23.9289C36.1957 22.0536 33.6522 21 31 21ZM31 40C29.22 40 27.4799 39.4722 25.9999 38.4832C24.5198 37.4943 23.3663 36.0887 22.6851 34.4442C22.0039 32.7996 21.8257 30.99 22.1729 29.2442C22.5202 27.4984 23.3774 25.8947 24.636 24.636C25.8947 23.3774 27.4984 22.5202 29.2442 22.1729C30.99 21.8257 32.7996 22.0039 34.4442 22.6851C36.0887 23.3663 37.4943 24.5198 38.4832 25.9999C39.4722 27.4799 40 29.22 40 31C40 33.3869 39.0518 35.6761 37.364 37.364C35.6761 39.0518 33.387 40 31 40Z" fill="#02BEC5"/>
<path d="M36.265 27.0299L31.765 24.3699C31.5334 24.2326 31.2692 24.1602 31 24.1602C30.7308 24.1602 30.4666 24.2326 30.235 24.3699L25.735 27.0299C25.5111 27.1627 25.3256 27.3514 25.1967 27.5776C25.0678 27.8038 25 28.0596 25 28.3199V33.6799C25 33.9402 25.0678 34.196 25.1967 34.4222C25.3256 34.6484 25.5111 34.8371 25.735 34.9699L30.235 37.6299C30.4666 37.7672 30.7308 37.8396 31 37.8396C31.2692 37.8396 31.5334 37.7672 31.765 37.6299L36.265 34.9699C36.4889 34.8371 36.6744 34.6484 36.8033 34.4222C36.9322 34.196 37 33.9402 37 33.6799V28.3199C37 28.0596 36.9322 27.8038 36.8033 27.5776C36.6744 27.3514 36.4889 27.1627 36.265 27.0299ZM36 33.6799C36 33.7667 35.9774 33.8519 35.9344 33.9273C35.8915 34.0027 35.8296 34.0656 35.755 34.1099L31.255 36.7699C31.179 36.8138 31.0928 36.8369 31.005 36.8369C30.9172 36.8369 30.831 36.8138 30.755 36.7699L26.255 34.1099C26.1804 34.0656 26.1185 34.0027 26.0756 33.9273C26.0326 33.8519 26.01 33.7667 26.01 33.6799V28.3199C26.01 28.2331 26.0326 28.1479 26.0756 28.0725C26.1185 27.9971 26.1804 27.9341 26.255 27.8899L30.755 25.2299C30.831 25.186 30.9172 25.1629 31.005 25.1629C31.0928 25.1629 31.179 25.186 31.255 25.2299L35.755 27.8899C35.8296 27.9341 35.8915 27.9971 35.9344 28.0725C35.9774 28.1479 36 28.2331 36 28.3199V33.6799Z" fill="#02BEC5"/>
<path d="M31 27.5C30.3078 27.5 29.6311 27.7053 29.0555 28.0899C28.4799 28.4744 28.0313 29.0211 27.7664 29.6606C27.5015 30.3001 27.4322 31.0039 27.5673 31.6828C27.7023 32.3617 28.0356 32.9854 28.5251 33.4749C29.0146 33.9644 29.6383 34.2977 30.3172 34.4327C30.9961 34.5678 31.6999 34.4985 32.3394 34.2336C32.9789 33.9687 33.5256 33.5201 33.9101 32.9445C34.2947 32.3689 34.5 31.6922 34.5 31C34.5 30.0717 34.1313 29.1815 33.4749 28.5251C32.8185 27.8687 31.9283 27.5 31 27.5ZM31 33.5C30.5055 33.5 30.0222 33.3534 29.6111 33.0787C29.2 32.804 28.8795 32.4135 28.6903 31.9567C28.5011 31.4999 28.4516 30.9972 28.548 30.5123C28.6445 30.0273 28.8826 29.5819 29.2322 29.2322C29.5819 28.8826 30.0273 28.6445 30.5123 28.548C30.9972 28.4516 31.4999 28.5011 31.9567 28.6903C32.4135 28.8795 32.804 29.2 33.0787 29.6111C33.3534 30.0222 33.5 30.5055 33.5 31C33.5 31.663 33.2366 32.2989 32.7678 32.7678C32.2989 33.2366 31.663 33.5 31 33.5Z" fill="#02BEC5"/>
<path d="M31 29.5C30.8674 29.5 30.7402 29.5527 30.6464 29.6464C30.5527 29.7402 30.5 29.8674 30.5 30V32C30.5 32.1326 30.5527 32.2598 30.6464 32.3536C30.7402 32.4473 30.8674 32.5 31 32.5C31.1326 32.5 31.2598 32.4473 31.3536 32.3536C31.4473 32.2598 31.5 32.1326 31.5 32V30C31.5 29.8674 31.4473 29.7402 31.3536 29.6464C31.2598 29.5527 31.1326 29.5 31 29.5Z" fill="#02BEC5"/>
<path d="M44 41.9999C43.5251 42.0011 43.066 42.1713 42.7051 42.48C42.3441 42.7888 42.1048 43.2159 42.03 43.6849H39.425L37.9 40.8099C40.2679 39.1406 41.952 36.671 42.6412 33.857C43.3305 31.043 42.9784 28.0746 41.65 25.4999C41.6198 25.4415 41.5784 25.3896 41.5281 25.3471C41.4779 25.3047 41.4197 25.2726 41.357 25.2526C41.2944 25.2326 41.2284 25.2252 41.1628 25.2308C41.0973 25.2363 41.0335 25.2547 40.975 25.2849C40.9166 25.3151 40.8647 25.3565 40.8222 25.4068C40.7798 25.4571 40.7477 25.5152 40.7277 25.5779C40.7078 25.6406 40.7003 25.7066 40.7059 25.7721C40.7114 25.8377 40.7298 25.9015 40.76 25.9599C41.9729 28.3259 42.2835 31.0524 41.6338 33.6306C40.9841 36.2088 39.4186 38.4625 37.2294 39.9712C35.0402 41.48 32.3768 42.1407 29.7362 41.83C27.0957 41.5193 24.6583 40.2585 22.8791 38.2829C21.0998 36.3072 20.1001 33.7517 20.0666 31.0931C20.0331 28.4345 20.968 25.8546 22.6968 23.8347C24.4257 21.8148 26.8305 20.4929 29.4623 20.1157C32.0942 19.7386 34.7734 20.3319 37 21.7849C38.0193 22.4648 38.9183 23.3097 39.66 24.2849C39.7409 24.3963 39.8627 24.471 39.9987 24.4926C40.1347 24.5141 40.2736 24.4808 40.385 24.3999C40.4964 24.319 40.5711 24.1972 40.5927 24.0612C40.6142 23.9253 40.5809 23.7863 40.5 23.6749C39.7742 22.7168 38.9078 21.874 37.93 21.1749L39.43 18.3499H42.045C42.1338 18.8284 42.394 19.2582 42.7769 19.5586C43.1598 19.859 43.6391 20.0095 44.125 19.9819C44.6108 19.9543 45.07 19.7504 45.4164 19.4086C45.7628 19.0667 45.9726 18.6103 46.0066 18.1248C46.0406 17.6393 45.8964 17.1581 45.601 16.7713C45.3056 16.3845 44.8793 16.1187 44.402 16.0236C43.9247 15.9286 43.4291 16.0108 43.0081 16.255C42.5871 16.4991 42.2696 16.8884 42.115 17.3499H39.115C39.0246 17.3502 38.9359 17.3749 38.8584 17.4216C38.7809 17.4683 38.7175 17.5351 38.675 17.6149L37.075 20.6149C35.2366 19.5393 33.145 18.9723 31.015 18.9723C28.885 18.9723 26.7934 19.5393 24.955 20.6149L23.44 17.7649C23.3975 17.6851 23.3341 17.6183 23.2567 17.5716C23.1792 17.5249 23.0905 17.5002 23 17.4999H19.93C19.8083 17.0286 19.5189 16.6178 19.116 16.3446C18.7131 16.0714 18.2244 15.9545 17.7415 16.0159C17.2586 16.0772 16.8147 16.3125 16.4929 16.6778C16.1711 17.043 15.9935 17.5131 15.9935 17.9999C15.9935 18.4867 16.1711 18.9568 16.4929 19.322C16.8147 19.6873 17.2586 19.9226 17.7415 19.984C18.2244 20.0453 18.7131 19.9284 19.116 19.6552C19.5189 19.382 19.8083 18.9712 19.93 18.4999H22.7L24.12 21.1799C22.5411 22.2884 21.2527 23.7612 20.3641 25.4736C19.4754 27.1859 19.0127 29.0872 19.0152 31.0164C19.0176 32.9456 19.4852 34.8458 20.3782 36.5558C21.2712 38.2659 22.5633 39.7354 24.145 40.8399L22.7 43.5649H19.95C19.8472 43.0891 19.5743 42.6672 19.1827 42.3782C18.791 42.0892 18.3074 41.953 17.8225 41.995C17.3375 42.037 16.8846 42.2545 16.5485 42.6066C16.2124 42.9586 16.0162 43.4212 15.9968 43.9076C15.9773 44.3939 16.1359 44.8707 16.4428 45.2485C16.7497 45.6263 17.1838 45.8793 17.6639 45.9599C18.1439 46.0405 18.6369 45.9433 19.0503 45.6865C19.4638 45.4297 19.7695 45.0309 19.91 44.5649H23C23.0905 44.5647 23.1792 44.5399 23.2567 44.4932C23.3341 44.4466 23.3975 44.3797 23.44 44.2999L25 41.3799C26.8306 42.4492 28.9125 43.0127 31.0325 43.0127C33.1525 43.0127 35.2344 42.4492 37.065 41.3799L38.695 44.4449C38.7375 44.5247 38.8009 44.5916 38.8784 44.6382C38.9559 44.6849 39.0446 44.7097 39.135 44.7099H42.135C42.2646 45.051 42.485 45.3502 42.7724 45.5751C43.0598 45.7999 43.4032 45.9419 43.7655 45.9855C44.1278 46.0292 44.4951 45.9729 44.8277 45.8228C45.1603 45.6726 45.4454 45.4343 45.6523 45.1337C45.8592 44.8331 45.9799 44.4817 46.0013 44.1174C46.0227 43.7531 45.9441 43.3899 45.7739 43.0671C45.6037 42.7443 45.3485 42.4743 45.0358 42.2861C44.7231 42.098 44.3649 41.999 44 41.9999ZM44 16.9999C44.1978 16.9999 44.3911 17.0586 44.5556 17.1684C44.72 17.2783 44.8482 17.4345 44.9239 17.6172C44.9996 17.8 45.0194 18.001 44.9808 18.195C44.9422 18.389 44.847 18.5672 44.7071 18.707C44.5673 18.8469 44.3891 18.9421 44.1951 18.9807C44.0011 19.0193 43.8001 18.9995 43.6173 18.9238C43.4346 18.8481 43.2784 18.7199 43.1686 18.5555C43.0587 18.391 43 18.1977 43 17.9999C43 17.7347 43.1054 17.4803 43.2929 17.2928C43.4805 17.1053 43.7348 16.9999 44 16.9999ZM18 18.9999C17.8022 18.9999 17.6089 18.9413 17.4445 18.8314C17.28 18.7215 17.1518 18.5653 17.0761 18.3826C17.0005 18.1999 16.9807 17.9988 17.0192 17.8048C17.0578 17.6108 17.1531 17.4327 17.2929 17.2928C17.4328 17.153 17.611 17.0577 17.8049 17.0191C17.9989 16.9805 18.2 17.0003 18.3827 17.076C18.5654 17.1517 18.7216 17.2799 18.8315 17.4443C18.9414 17.6088 19 17.8021 19 17.9999C19 18.2651 18.8947 18.5195 18.7071 18.707C18.5196 18.8946 18.2652 18.9999 18 18.9999ZM18 44.9999C17.8022 44.9999 17.6089 44.9413 17.4445 44.8314C17.28 44.7215 17.1518 44.5653 17.0761 44.3826C17.0005 44.1999 16.9807 43.9988 17.0192 43.8048C17.0578 43.6108 17.1531 43.4327 17.2929 43.2928C17.4328 43.153 17.611 43.0577 17.8049 43.0191C17.9989 42.9805 18.2 43.0003 18.3827 43.076C18.5654 43.1517 18.7216 43.2799 18.8315 43.4443C18.9414 43.6088 19 43.8021 19 43.9999C18.9977 44.0232 18.9977 44.0466 19 44.0699C19 44.0699 19 44.0699 19 44.0999C18.9751 44.3474 18.8589 44.5768 18.674 44.7432C18.4891 44.9096 18.2488 45.0012 18 44.9999ZM44 44.9999C43.7682 45.0053 43.5416 44.93 43.3592 44.7868C43.1768 44.6436 43.0498 44.4414 43 44.2149C43 44.2149 43 44.2149 43 44.1849C43.0028 44.1483 43.0028 44.1115 43 44.0749C42.9976 44.05 42.9976 44.0249 43 43.9999C43 43.8021 43.0587 43.6088 43.1686 43.4443C43.2784 43.2799 43.4346 43.1517 43.6173 43.076C43.8001 43.0003 44.0011 42.9805 44.1951 43.0191C44.3891 43.0577 44.5673 43.153 44.7071 43.2928C44.847 43.4327 44.9422 43.6108 44.9808 43.8048C45.0194 43.9988 44.9996 44.1999 44.9239 44.3826C44.8482 44.5653 44.72 44.7215 44.5556 44.8314C44.3911 44.9413 44.1978 44.9999 44 44.9999Z" fill="#02BEC5"/>
<path d="M17 22H19V24H17V22Z" fill="#02BEC5"/>
<path d="M43 38H45V40H43V38Z" fill="#02BEC5"/>
<defs>
<linearGradient id="paint0_linear_64_2698" x1="31" y1="0" x2="31" y2="62" gradientUnits="userSpaceOnUse">
<stop stop-color="#0286B6"/>
<stop offset="1" stop-color="#02BEC5"/>
</linearGradient>
</defs>
</svg>
