<svg width="62" height="62" viewBox="0 0 62 62" fill="none" xmlns="http://www.w3.org/2000/svg">
<path d="M61.5 52.7116L52.7191 61.5H7.04195L0.5 54.9529V7.04638L7.04193 0.5H52.7191L61.5 9.28767V52.7116Z" fill="#050509" stroke="url(#paint0_linear_64_2681)"/>
<g clip-path="url(#clip0_64_2681)">
<path d="M44.1946 28.924C43.7203 28.9233 43.2602 29.0858 42.8914 29.3841C42.5226 29.6824 42.2677 30.0985 42.1693 30.5625H39.3973C39.2967 28.625 38.5259 26.7828 37.2168 25.3509L39.1822 23.389C39.6054 23.6691 40.1173 23.7829 40.6193 23.7084C41.1213 23.634 41.5781 23.3765 41.9018 22.9856C42.2255 22.5947 42.3932 22.0979 42.3728 21.5908C42.3523 21.0837 42.145 20.602 41.7909 20.2385C41.4367 19.875 40.9606 19.6552 40.4542 19.6215C39.9478 19.5878 39.4468 19.7424 39.0476 20.0558C38.6483 20.3692 38.3791 20.8191 38.2915 21.319C38.204 21.8189 38.3043 22.3336 38.5733 22.764L36.5948 24.7425C35.1531 23.4511 33.3086 22.6989 31.375 22.6139V19.8399C31.877 19.7472 32.3269 19.4721 32.6383 19.0676C32.9497 18.6631 33.1005 18.1578 33.0617 17.6488C33.0229 17.1398 32.7973 16.6631 32.4282 16.3105C32.0591 15.9578 31.5727 15.7541 31.0625 15.7385C30.5523 15.7229 30.0543 15.8965 29.6644 16.226C29.2745 16.5554 29.0201 17.0174 28.9503 17.5231C28.8805 18.0287 29.0002 18.5424 29.2863 18.9651C29.5723 19.3879 30.0047 19.6899 30.5 19.8131V22.6204C28.5846 22.7332 26.766 23.5002 25.3482 24.793L23.3843 22.8292C23.6701 22.4064 23.7894 21.8928 23.7193 21.3874C23.6492 20.8819 23.3947 20.4202 23.0047 20.091C22.6147 19.7619 22.1168 19.5886 21.6067 19.6045C21.0966 19.6204 20.6105 19.8243 20.2417 20.1771C19.8729 20.5299 19.6476 21.0065 19.6092 21.5154C19.5707 22.0243 19.7217 22.5294 20.0332 22.9336C20.3448 23.3378 20.7947 23.6125 21.2966 23.7049C21.7985 23.7974 22.3168 23.7009 22.7519 23.4342L24.7324 25.4079C23.4391 26.8476 22.6854 28.6916 22.6 30.625H19.8423C19.7511 30.15 19.4985 29.7212 19.1273 29.4112C18.756 29.1012 18.289 28.9291 17.8054 28.924C17.5328 28.9225 17.2626 28.9749 17.0104 29.0782C16.7581 29.1814 16.5288 29.3336 16.3355 29.5258C16.1423 29.718 15.9889 29.9465 15.8842 30.1982C15.7796 30.4498 15.7257 30.7197 15.7257 30.9923C15.7257 31.2649 15.7796 31.5347 15.8842 31.7864C15.9889 32.0381 16.1423 32.2666 16.3355 32.4588C16.5288 32.651 16.7581 32.8031 17.0104 32.9064C17.2626 33.0097 17.5328 33.0621 17.8054 33.0606C18.2672 33.0674 18.7176 32.9165 19.082 32.6327C19.4465 32.349 19.7033 31.9494 19.81 31.5H22.6066C22.7138 33.414 23.4779 35.2324 24.7701 36.6485L22.8178 38.6042C22.3908 38.317 21.8726 38.198 21.363 38.27C20.8535 38.342 20.3886 38.6 20.0578 38.9943C19.727 39.3885 19.5538 39.8912 19.5715 40.4055C19.5892 40.9198 19.7965 41.4094 20.1535 41.7801C20.5105 42.1507 20.9921 42.3762 21.5054 42.413C22.0187 42.4499 22.5275 42.2956 22.9338 41.9798C23.3401 41.664 23.6153 41.2091 23.7063 40.7025C23.7973 40.196 23.6977 39.6737 23.4267 39.2363L25.3907 37.2723C26.8184 38.5571 28.6443 39.3123 30.5625 39.4111V42.1725C30.0634 42.2804 29.6218 42.5692 29.3228 42.9831C29.0237 43.3971 28.8883 43.907 28.9426 44.4148C28.9969 44.9226 29.2371 45.3923 29.6169 45.7337C29.9967 46.0751 30.4893 46.2639 31 46.2639C31.5107 46.2639 32.0033 46.0751 32.3831 45.7337C32.763 45.3923 33.0031 44.9226 33.0574 44.4148C33.1117 43.907 32.9763 43.3971 32.6773 42.9831C32.3782 42.5692 31.9366 42.2804 31.4375 42.1725V39.4111C33.3725 39.3115 35.2131 38.5441 36.6458 37.2398L38.6 39.1941C38.3195 39.621 38.2067 40.1366 38.2835 40.6417C38.3602 41.1468 38.621 41.6056 39.0157 41.93C39.4104 42.2543 39.9111 42.4212 40.4215 42.3986C40.9319 42.376 41.4159 42.1654 41.7803 41.8074C42.1448 41.4494 42.364 40.9693 42.3957 40.4594C42.4275 39.9495 42.2695 39.4459 41.9523 39.0455C41.6351 38.645 41.181 38.376 40.6773 38.2903C40.1737 38.2045 39.6562 38.308 39.2243 38.5809L37.2625 36.6119C38.5486 35.1843 39.3026 33.3566 39.3973 31.4375H42.1756C42.2596 31.8184 42.4495 32.1678 42.7235 32.4454C42.9975 32.7229 43.3444 32.9174 43.7242 33.0062C44.104 33.0951 44.5012 33.0748 44.8699 32.9476C45.2386 32.8204 45.5638 32.5916 45.8081 32.2875C46.0523 31.9834 46.2056 31.6165 46.2502 31.229C46.2948 30.8415 46.229 30.4493 46.0603 30.0977C45.8916 29.746 45.6269 29.4492 45.2967 29.2416C44.9666 29.0339 44.5844 28.9238 44.1944 28.924H44.1946ZM39.4856 20.8257C39.7096 20.6018 40.0133 20.4759 40.33 20.4759C40.6467 20.4759 40.9504 20.6017 41.1743 20.8256C41.3983 21.0496 41.5241 21.3533 41.5241 21.67C41.5241 21.9867 41.3983 22.2904 41.1744 22.5143C41.0637 22.6263 40.9321 22.7153 40.7869 22.7761C40.6417 22.837 40.486 22.8686 40.3286 22.8691C40.1712 22.8695 40.0152 22.8389 39.8697 22.7788C39.7242 22.7188 39.592 22.6306 39.4807 22.5193C39.3694 22.408 39.2812 22.2758 39.2212 22.1303C39.1612 21.9848 39.1305 21.8289 39.1309 21.6715C39.1314 21.5141 39.163 21.3583 39.2238 21.2131C39.2847 21.068 39.3737 20.9363 39.4856 20.8257ZM22.5144 22.5143C22.3474 22.6813 22.1346 22.7951 21.903 22.8412C21.6713 22.8873 21.4312 22.8636 21.213 22.7733C20.9948 22.6829 20.8083 22.5298 20.6771 22.3335C20.5459 22.1371 20.4758 21.9062 20.4758 21.67C20.4758 21.4338 20.5459 21.203 20.6771 21.0066C20.8083 20.8102 20.9948 20.6571 21.213 20.5668C21.4312 20.4764 21.6713 20.4528 21.903 20.4988C22.1346 20.5449 22.3474 20.6587 22.5144 20.8257C22.6253 20.9366 22.7133 21.0682 22.7733 21.2131C22.8333 21.3579 22.8642 21.5132 22.8642 21.67C22.8642 21.8268 22.8333 21.9821 22.7733 22.127C22.7133 22.2718 22.6253 22.4035 22.5144 22.5143ZM17.8054 32.1941C17.5692 32.1941 17.3384 32.1241 17.142 31.9929C16.9456 31.8616 16.7926 31.6751 16.7022 31.4569C16.6118 31.2387 16.5882 30.9986 16.6343 30.767C16.6804 30.5354 16.7941 30.3226 16.9611 30.1556C17.1281 29.9886 17.3409 29.8749 17.5725 29.8288C17.8041 29.7828 18.0442 29.8064 18.2624 29.8968C18.4806 29.9872 18.6671 30.1402 18.7983 30.3366C18.9295 30.533 18.9996 30.7638 18.9996 31C18.9992 31.3166 18.8733 31.6201 18.6494 31.844C18.4255 32.0679 18.122 32.1938 17.8054 32.1941ZM22.5144 41.1743C22.4035 41.2852 22.2719 41.3732 22.127 41.4332C21.9821 41.4932 21.8269 41.5241 21.6701 41.5241C21.5133 41.5241 21.358 41.4932 21.2131 41.4332C21.0682 41.3732 20.9366 41.2853 20.8257 41.1744C20.7148 41.0635 20.6269 40.9319 20.5668 40.787C20.5068 40.6421 20.4759 40.4869 20.4759 40.3301C20.4759 40.1732 20.5068 40.018 20.5668 39.8731C20.6268 39.7282 20.7148 39.5966 20.8256 39.4857C21.0417 39.2692 21.3328 39.1441 21.6386 39.1363C21.9444 39.1286 22.2415 39.2387 22.4683 39.4439C22.4999 39.4934 22.5412 39.536 22.5899 39.5689C22.7795 39.7979 22.8768 40.0893 22.8628 40.3862C22.8489 40.6832 22.7246 40.9642 22.5144 41.1744V41.1743ZM39.4856 39.4857C39.6526 39.3187 39.8654 39.2049 40.097 39.1588C40.3287 39.1128 40.5688 39.1364 40.787 39.2268C41.0052 39.3171 41.1917 39.4702 41.3229 39.6666C41.4542 39.863 41.5242 40.0938 41.5242 40.33C41.5242 40.5662 41.4542 40.7971 41.3229 40.9935C41.1917 41.1898 41.0052 41.3429 40.787 41.4333C40.5688 41.5236 40.3287 41.5473 40.097 41.5012C39.8654 41.4551 39.6526 41.3413 39.4856 41.1743C39.3747 41.0635 39.2867 40.9318 39.2267 40.787C39.1667 40.6421 39.1358 40.4868 39.1358 40.33C39.1358 40.1732 39.1667 40.0179 39.2267 39.8731C39.2867 39.7282 39.3747 39.5966 39.4856 39.4857ZM29.8059 17.8054C29.8059 17.5693 29.8759 17.3384 30.0071 17.142C30.1383 16.9457 30.3248 16.7926 30.543 16.7022C30.7612 16.6118 31.0013 16.5882 31.233 16.6343C31.4646 16.6803 31.6774 16.7941 31.8444 16.9611C32.0114 17.1281 32.1251 17.3409 32.1712 17.5725C32.2173 17.8041 32.1936 18.0442 32.1032 18.2624C32.0129 18.4806 31.8598 18.6671 31.6634 18.7983C31.4671 18.9295 31.2362 18.9996 31 18.9996C30.6834 18.9992 30.3799 18.8733 30.1561 18.6494C29.9322 18.4255 29.8063 18.122 29.8059 17.8054ZM32.1941 44.1946C32.1944 44.4271 32.1267 44.6545 31.9995 44.8491C31.8723 45.0437 31.6911 45.197 31.4781 45.29C31.265 45.3831 31.0294 45.412 30.8002 45.3731C30.571 45.3342 30.3582 45.2292 30.1878 45.0711C30.0174 44.913 29.8968 44.7085 29.8409 44.4829C29.785 44.2572 29.7962 44.0201 29.8731 43.8007C29.95 43.5813 30.0893 43.3892 30.2739 43.2478C30.4584 43.1064 30.6802 43.022 30.9121 43.0049C30.9701 43.0167 31.0299 43.0167 31.088 43.0049C31.3883 43.0272 31.6692 43.1622 31.8743 43.3828C32.0794 43.6034 32.1937 43.8934 32.1941 44.1946ZM31 38.5474C29.51 38.5474 28.0535 38.1056 26.8146 37.2777C25.5757 36.4499 24.6101 35.2733 24.0399 33.8968C23.4697 32.5202 23.3205 31.0054 23.6111 29.544C23.9018 28.0826 24.6193 26.7403 25.6729 25.6867C26.7265 24.6331 28.0689 23.9156 29.5303 23.6249C30.9917 23.3342 32.5064 23.4834 33.883 24.0536C35.2596 24.6238 36.4362 25.5894 37.264 26.8283C38.0918 28.0672 38.5336 29.5238 38.5336 31.0138C38.5314 33.0111 37.7369 34.926 36.3246 36.3384C34.9123 37.7507 32.9974 38.5451 31 38.5474ZM44.1946 32.1941C43.9585 32.1941 43.7276 32.1241 43.5312 31.9929C43.3348 31.8617 43.1818 31.6752 43.0914 31.457C43.001 31.2388 42.9774 30.9987 43.0235 30.7671C43.0695 30.5354 43.1833 30.3226 43.3503 30.1556C43.5173 29.9886 43.73 29.8749 43.9617 29.8288C44.1933 29.7828 44.4334 29.8064 44.6516 29.8968C44.8698 29.9872 45.0563 30.1402 45.1875 30.3366C45.3187 30.533 45.3888 30.7638 45.3888 31C45.3884 31.3166 45.2625 31.6201 45.0386 31.844C44.8147 32.0678 44.5112 32.1938 44.1946 32.1941Z" fill="#02BEC5"/>
<path d="M36.2188 27.7344L31.2188 24.8477C31.1522 24.8093 31.0768 24.7891 31 24.7891C30.9232 24.7891 30.8478 24.8093 30.7812 24.8477L25.7812 27.7344C25.7147 27.7728 25.6595 27.828 25.6211 27.8945C25.5827 27.961 25.5625 28.0365 25.5625 28.1133V33.8868C25.5625 33.9636 25.5827 34.0391 25.6211 34.1056C25.6595 34.1721 25.7147 34.2273 25.7812 34.2657L30.7812 37.1524C30.8478 37.1908 30.9232 37.211 31 37.211C31.0768 37.211 31.1522 37.1908 31.2188 37.1524L36.2188 34.2657C36.2853 34.2273 36.3405 34.1721 36.3789 34.1056C36.4173 34.0391 36.4375 33.9636 36.4375 33.8868V28.1133C36.4375 28.0365 36.4173 27.961 36.3789 27.8945C36.3405 27.828 36.2853 27.7728 36.2188 27.7344ZM31 25.7317L32.5756 26.6414L28.4509 29.0226L26.8753 28.1129L31 25.7317ZM30.5625 36.0158L26.4375 33.6342V28.8707L30.5625 31.2523V36.0158ZM31 30.4945L29.3259 29.528L33.4506 27.1467L35.125 28.1131L31 30.4945ZM35.5625 33.6342L31.4375 36.0158V31.2523L35.5625 28.8707V33.6342Z" fill="#02BEC5"/>
</g>
<defs>
<linearGradient id="paint0_linear_64_2681" x1="31" y1="0" x2="31" y2="62" gradientUnits="userSpaceOnUse">
<stop stop-color="#0286B6"/>
<stop offset="1" stop-color="#02BEC5"/>
</linearGradient>
<clipPath id="clip0_64_2681">
<rect width="32" height="32" fill="white" transform="translate(15 15)"/>
</clipPath>
</defs>
</svg>
