<svg width="62" height="62" viewBox="0 0 62 62" fill="none" xmlns="http://www.w3.org/2000/svg">
<path d="M61.5 52.7116L52.7191 61.5H7.04195L0.5 54.9529V7.04638L7.04193 0.5H52.7191L61.5 9.28767V52.7116Z" fill="#050509" stroke="url(#paint0_linear_64_2774)"/>
<g clip-path="url(#clip0_64_2774)">
<path d="M44.44 26.6824H42.5329V26.4683C42.5329 25.9351 42.0991 25.5015 41.566 25.5015H37.8046C37.5454 25.5015 37.3352 25.7116 37.3352 25.9709C37.3352 26.2302 37.5454 26.4403 37.8046 26.4403H41.566C41.5814 26.4403 41.594 26.4528 41.594 26.4683V32.1918C41.594 32.4511 41.8042 32.6612 42.0634 32.6612C42.3227 32.6612 42.5329 32.4511 42.5329 32.1918V27.6213H44.44C44.5035 27.6213 44.5551 27.6729 44.5551 27.7364V44.1131C44.5551 45.1873 43.6812 46.0612 42.607 46.0612H19.3931C18.3189 46.0612 17.4449 45.1873 17.4449 44.1131V27.7364C17.4449 27.6729 17.4966 27.6213 17.56 27.6213H19.5297V43.676C19.5297 44.3379 20.0683 44.8765 20.7303 44.8765H41.3323C41.9943 44.8765 42.5328 44.338 42.5328 43.676V34.1939C42.5328 33.9346 42.3226 33.7245 42.0634 33.7245C41.8041 33.7245 41.594 33.9346 41.594 34.1939V40.9492H33.9992C33.0156 40.9492 32.1279 41.3651 31.5007 42.0296V35.9575C31.5007 35.6982 31.2905 35.4881 31.0313 35.4881C30.7721 35.4881 30.5619 35.6982 30.5619 35.9575V42.0296C29.9348 41.3652 29.0469 40.9492 28.0634 40.9492H25.9303C25.6711 40.9492 25.4609 41.1593 25.4609 41.4186C25.4609 41.6779 25.6711 41.888 25.9303 41.888H28.0634C29.2878 41.888 30.3086 42.7736 30.5208 43.9377H20.7303C20.5859 43.9377 20.4686 43.8203 20.4686 43.676V41.888H23.9281C24.1874 41.888 24.3976 41.6779 24.3976 41.4186C24.3976 41.1593 24.1874 40.9492 23.9281 40.9492H20.4686V26.4683C20.4686 26.4528 20.4812 26.4403 20.4966 26.4403H24.258C24.5172 26.4403 24.7274 26.2302 24.7274 25.9709C24.7274 25.7116 24.5172 25.5015 24.258 25.5015H20.4966C19.9635 25.5015 19.5297 25.9352 19.5297 26.4683V26.6824H17.56C16.9789 26.6824 16.5061 27.1552 16.5061 27.7364V44.1131C16.5061 45.705 17.8012 47.0001 19.3931 47.0001H42.6068C44.1987 47.0001 45.4938 45.705 45.4938 44.1131V27.7364C45.4938 27.1552 45.0211 26.6824 44.44 26.6824ZM33.9992 41.888H41.594V43.676C41.594 43.8203 41.4766 43.9377 41.3323 43.9377H31.5419C31.754 42.7735 32.7748 41.888 33.9992 41.888Z" fill="#02BEC5"/>
<path d="M24.7728 21.5862C25.0304 21.6101 25.2598 21.4211 25.2842 21.163C25.4184 19.7394 26.0757 18.4215 27.1352 17.4518C28.2013 16.4762 29.5849 15.9388 31.0313 15.9388C34.2148 15.9388 36.8047 18.5287 36.8047 21.7121C36.8047 22.91 36.4411 24.0587 35.7533 25.0344C35.7494 25.0399 35.7457 25.0455 35.742 25.0511L32.7381 29.7276C32.6895 29.8033 32.6636 29.8913 32.6636 29.9813V30.5895C32.6636 30.7129 32.5633 30.8133 32.4398 30.8133H32.4092L32.7082 25.7389H33.243C34.0082 25.7389 34.6307 25.1164 34.6307 24.3513V24.2943C34.6307 23.5292 34.0082 22.9067 33.243 22.9067C32.5094 22.9067 31.9009 23.4804 31.8577 24.2127L31.8231 24.8001H30.1769L30.1423 24.2127C30.0992 23.4804 29.4907 22.9067 28.7571 22.9067C27.9919 22.9067 27.3694 23.5292 27.3694 24.2943V24.3513C27.3694 25.1164 27.9919 25.7389 28.7571 25.7389H29.2918L29.5907 30.81C29.4826 30.7942 29.399 30.7019 29.399 30.5895V29.9813C29.399 29.8913 29.3732 29.8033 29.3246 29.7276L26.3207 25.0511C26.3171 25.0455 26.3133 25.0399 26.3094 25.0344C25.8775 24.4216 25.5733 23.7407 25.4055 23.0105C25.3474 22.7578 25.0951 22.6002 24.8429 22.6582C24.5902 22.7163 24.4325 22.9682 24.4905 23.2209C24.6851 24.067 25.0369 24.8562 25.5362 25.5668L28.4603 30.119V30.5893C28.4603 31.0633 28.7458 31.4713 29.1536 31.6521V32.4459C29.1536 33.2813 29.8331 33.9608 30.6684 33.9608H31.3947C32.2299 33.9608 32.9095 33.2813 32.9095 32.4459V31.6521C33.3172 31.4713 33.6027 31.0634 33.6027 30.5893V30.119L36.5268 25.5668C37.3229 24.4339 37.7437 23.1011 37.7437 21.712C37.7434 18.011 34.7324 15 31.0313 15C29.3497 15 27.7409 15.6248 26.5014 16.7593C25.2698 17.8865 24.5056 19.4191 24.3495 21.0748C24.3251 21.333 24.5146 21.562 24.7728 21.5862ZM32.7949 24.2679C32.8088 24.031 33.0057 23.8454 33.243 23.8454C33.4905 23.8454 33.6918 24.0468 33.6918 24.2942V24.3512C33.6918 24.5987 33.4905 24.8 33.243 24.8H32.7635L32.7949 24.2679ZM28.7571 24.8C28.5095 24.8 28.3082 24.5987 28.3082 24.3512V24.2942C28.3082 24.0468 28.5095 23.8454 28.7571 23.8454C28.9944 23.8454 29.1912 24.031 29.2051 24.2679L29.2365 24.8H28.7571ZM31.7678 25.7389L31.4688 30.8132H30.5313L30.2323 25.7389H31.7678ZM31.9704 32.446C31.9704 32.7636 31.7121 33.022 31.3944 33.022H30.6681C30.3506 33.022 30.0921 32.7636 30.0921 32.446V31.752H31.9704V32.446H31.9704Z" fill="#02BEC5"/>
<path d="M39.2538 18.5644C39.3637 18.5644 39.4741 18.5259 39.5633 18.4477L40.5875 17.5484C40.7823 17.3775 40.8015 17.0808 40.6305 16.886C40.4595 16.6912 40.1629 16.672 39.9681 16.8429L38.9439 17.7422C38.7491 17.9132 38.7298 18.2099 38.9008 18.4047C38.9936 18.5104 39.1234 18.5644 39.2538 18.5644Z" fill="#02BEC5"/>
<path d="M38.9439 21.3954L39.9681 22.2948C40.0572 22.3731 40.1676 22.4114 40.2776 22.4114C40.408 22.4114 40.5377 22.3574 40.6306 22.2517C40.8016 22.0569 40.7823 21.7603 40.5876 21.5893L39.5634 20.6899C39.3685 20.5188 39.072 20.5382 38.9009 20.733C38.7298 20.9278 38.749 21.2243 38.9439 21.3954Z" fill="#02BEC5"/>
<path d="M21.4752 17.5485L22.4994 18.4478C22.5885 18.5261 22.6989 18.5644 22.8089 18.5644C22.9392 18.5644 23.069 18.5104 23.1618 18.4047C23.3328 18.2099 23.3136 17.9133 23.1187 17.7423L22.0945 16.843C21.8998 16.6719 21.6031 16.6912 21.4321 16.8861C21.261 17.0809 21.2803 17.3775 21.4752 17.5485Z" fill="#02BEC5"/>
<path d="M21.785 22.4116C21.895 22.4116 22.0054 22.3732 22.0945 22.2949L23.1187 21.3956C23.3135 21.2246 23.3328 20.9279 23.1617 20.7332C22.9907 20.5384 22.6941 20.5191 22.4993 20.6901L21.4751 21.5894C21.2803 21.7605 21.2611 22.0571 21.4321 22.2519C21.5249 22.3576 21.6545 22.4116 21.785 22.4116Z" fill="#02BEC5"/>
<path d="M26.8782 31.2826C26.8782 31.0233 26.6681 30.8132 26.4088 30.8132H21.7848C21.5256 30.8132 21.3154 31.0233 21.3154 31.2826C21.3154 31.5419 21.5256 31.7521 21.7848 31.7521H26.4088C26.6681 31.7521 26.8782 31.5419 26.8782 31.2826Z" fill="#02BEC5"/>
<path d="M27.8388 33.2009H22.6327C22.3735 33.2009 22.1633 33.411 22.1633 33.6703C22.1633 33.9296 22.3735 34.1398 22.6327 34.1398H27.8388C28.098 34.1398 28.3082 33.9296 28.3082 33.6703C28.3082 33.411 28.098 33.2009 27.8388 33.2009Z" fill="#02BEC5"/>
<path d="M27.8388 35.488H22.6327C22.3735 35.488 22.1633 35.6981 22.1633 35.9574C22.1633 36.2168 22.3735 36.4269 22.6327 36.4269H27.8388C28.098 36.4269 28.3082 36.2168 28.3082 35.9574C28.3082 35.6981 28.098 35.488 27.8388 35.488Z" fill="#02BEC5"/>
<path d="M27.8388 37.7751H22.6327C22.3735 37.7751 22.1633 37.9853 22.1633 38.2446C22.1633 38.5039 22.3735 38.714 22.6327 38.714H27.8388C28.098 38.714 28.3082 38.5039 28.3082 38.2446C28.3082 37.9853 28.098 37.7751 27.8388 37.7751Z" fill="#02BEC5"/>
<path d="M40.7474 31.2826C40.7474 31.0233 40.5372 30.8132 40.2779 30.8132H35.654C35.3947 30.8132 35.1846 31.0233 35.1846 31.2826C35.1846 31.5419 35.3947 31.7521 35.654 31.7521H40.2779C40.5372 31.7521 40.7474 31.5419 40.7474 31.2826Z" fill="#02BEC5"/>
<path d="M39.4298 33.2009H34.2238C33.9646 33.2009 33.7544 33.411 33.7544 33.6703C33.7544 33.9296 33.9646 34.1398 34.2238 34.1398H39.4298C39.6891 34.1398 39.8993 33.9296 39.8993 33.6703C39.8993 33.411 39.6891 33.2009 39.4298 33.2009Z" fill="#02BEC5"/>
<path d="M39.4298 35.488H34.2238C33.9646 35.488 33.7544 35.6981 33.7544 35.9574C33.7544 36.2168 33.9646 36.4269 34.2238 36.4269H39.4298C39.6891 36.4269 39.8993 36.2168 39.8993 35.9574C39.8993 35.6981 39.6891 35.488 39.4298 35.488Z" fill="#02BEC5"/>
<path d="M39.4298 37.7751H34.2238C33.9646 37.7751 33.7544 37.9853 33.7544 38.2446C33.7544 38.5039 33.9646 38.714 34.2238 38.714H39.4298C39.6891 38.714 39.8993 38.5039 39.8993 38.2446C39.8993 37.9853 39.6891 37.7751 39.4298 37.7751Z" fill="#02BEC5"/>
</g>
<defs>
<linearGradient id="paint0_linear_64_2774" x1="31" y1="0" x2="31" y2="62" gradientUnits="userSpaceOnUse">
<stop stop-color="#0286B6"/>
<stop offset="1" stop-color="#02BEC5"/>
</linearGradient>
<clipPath id="clip0_64_2774">
<rect width="32" height="32" fill="white" transform="translate(15 15)"/>
</clipPath>
</defs>
</svg>
