<svg width="62" height="62" viewBox="0 0 62 62" fill="none" xmlns="http://www.w3.org/2000/svg">
<path d="M61.5 52.7116L52.7191 61.5H7.04195L0.5 54.9529V7.04638L7.04193 0.5H52.7191L61.5 9.28767V52.7116Z" fill="#050509" stroke="url(#paint0_linear_64_2828)"/>
<path d="M30.9999 25.3201C31.3458 25.3201 31.6262 25.0397 31.6262 24.6939C31.6262 24.348 31.3458 24.0676 30.9999 24.0676C30.654 24.0676 30.3737 24.348 30.3737 24.6939C30.3737 25.0397 30.654 25.3201 30.9999 25.3201Z" fill="#02BEC5"/>
<path d="M44.138 26.2764C43.8843 26.0413 43.488 26.0562 43.253 26.31L39.4785 30.3825H36.1916V26.1294L39.2457 22.3118C39.4735 22.402 39.7215 22.4522 39.981 22.4522C41.0853 22.4522 41.9838 21.5538 41.9838 20.4495C41.9838 19.3452 41.0853 18.4468 39.981 18.4468C38.8768 18.4468 37.9783 19.3452 37.9783 20.4495C37.9783 20.8388 38.0903 21.2022 38.2833 21.5099L35.0765 25.5185C34.9876 25.6295 34.9392 25.7675 34.9392 25.9097V30.3824H31.6262V27.5035C31.6262 27.1577 31.3458 26.8773 31 26.8773C30.6541 26.8773 30.3737 27.1577 30.3737 27.5035V30.3824H27.0148V21.1838C27.0148 20.838 26.7345 20.5575 26.3886 20.5575H22.7477V19.8073C22.7477 19.4615 22.4673 19.181 22.1215 19.181H19.3685C19.0226 19.181 18.7422 19.4614 18.7422 19.8073V22.5603C18.7422 22.9061 19.0226 23.1865 19.3685 23.1865H22.1215C22.4673 23.1865 22.7478 22.9062 22.7478 22.5603V21.81H25.7625V30.3825H22.5215L18.747 26.31C18.5118 26.0563 18.1156 26.0413 17.862 26.2764C17.6084 26.5115 17.5933 26.9077 17.8285 27.1613L21.622 31.2543V46.3738C21.622 46.7196 21.9023 47 22.2482 47H39.7518C40.0976 47 40.3781 46.7197 40.3781 46.3738V31.2543L44.1716 27.1613C44.4067 26.9077 44.3916 26.5115 44.138 26.2764ZM39.981 19.6993C40.3947 19.6993 40.7313 20.0359 40.7313 20.4496C40.7313 20.8633 40.3947 21.1998 39.981 21.1998C39.5673 21.1998 39.2308 20.8633 39.2308 20.4496C39.2308 20.0358 39.5673 19.6993 39.981 19.6993ZM21.4953 21.934H19.9947V20.4335H21.4953V21.934ZM39.1256 45.7476H22.8743V31.635H39.1256V45.7476Z" fill="#02BEC5"/>
<path d="M30.3737 18.9046V21.878C30.3737 22.2238 30.6541 22.5043 30.9999 22.5043C31.3458 22.5043 31.6262 22.2239 31.6262 21.878V18.9046C32.4246 18.6411 33.0027 17.8883 33.0027 17.0027C33.0027 15.8984 32.1043 15 30.9999 15C29.8956 15 28.9972 15.8984 28.9972 17.0027C28.9972 17.8884 29.5753 18.6411 30.3737 18.9046ZM30.9999 16.2524C31.4136 16.2524 31.7503 16.5891 31.7503 17.0027C31.7503 17.4164 31.4136 17.753 30.9999 17.753C30.5863 17.753 30.2496 17.4164 30.2496 17.0027C30.2496 16.5891 30.5863 16.2524 30.9999 16.2524Z" fill="#02BEC5"/>
<path d="M34.1806 41.2021C34.3043 41.3552 34.4853 41.4348 34.6679 41.4347C34.8061 41.4347 34.9453 41.3892 35.0612 41.2955L37.6811 39.1783C37.8282 39.0594 37.9137 38.8804 37.9137 38.6913C37.9137 38.5021 37.8282 38.3231 37.6811 38.2042L35.0612 36.0869C34.7925 35.8696 34.3979 35.9114 34.1806 36.1804C33.9632 36.4493 34.005 36.8437 34.274 37.061L36.2911 38.6912L34.274 40.3213C34.005 40.5388 33.9632 40.9331 34.1806 41.2021Z" fill="#02BEC5"/>
<path d="M24.3189 39.1785L26.9388 41.2956C27.0547 41.3893 27.1937 41.4348 27.3321 41.4348C27.5147 41.4348 27.6957 41.3553 27.8194 41.2022C28.0368 40.9333 27.995 40.5389 27.726 40.3216L25.7089 38.6915L27.726 37.0613C27.995 36.844 28.0369 36.4496 27.8194 36.1806C27.6021 35.9116 27.2077 35.8698 26.9388 36.0872L24.3189 38.2045C24.1718 38.3233 24.0863 38.5023 24.0863 38.6915C24.0863 38.8807 24.1718 39.0595 24.3189 39.1785Z" fill="#02BEC5"/>
<path d="M29.5295 40.9659C29.6301 41.0259 29.7406 41.0545 29.8497 41.0545C30.063 41.0545 30.2709 40.9454 30.3881 40.749L32.6874 36.8949C32.8646 36.598 32.7675 36.2136 32.4704 36.0363C32.1734 35.8591 31.789 35.9562 31.6118 36.2533L29.3125 40.1074C29.1354 40.4043 29.2325 40.7887 29.5295 40.9659Z" fill="#02BEC5"/>
<defs>
<linearGradient id="paint0_linear_64_2828" x1="31" y1="0" x2="31" y2="62" gradientUnits="userSpaceOnUse">
<stop stop-color="#0286B6"/>
<stop offset="1" stop-color="#02BEC5"/>
</linearGradient>
</defs>
</svg>
