<svg width="62" height="62" viewBox="0 0 62 62" fill="none" xmlns="http://www.w3.org/2000/svg">
<path d="M61.5 52.7116L52.7191 61.5H7.04195L0.5 54.9529V7.04638L7.04193 0.5H52.7191L61.5 9.28767V52.7116Z" fill="#050509" stroke="url(#paint0_linear_64_2627)"/>
<g clip-path="url(#clip0_64_2627)">
<path d="M31.0028 24.6001H32.0695C32.364 24.6001 32.6028 24.3613 32.6028 24.0668C32.6028 23.7723 32.364 23.5334 32.0695 23.5334H31.0028C30.7082 23.5334 30.4695 23.7722 30.4695 24.0668C30.4695 24.3613 30.7082 24.6001 31.0028 24.6001Z" fill="#02BEC5"/>
<path d="M27.8026 24.6001H28.8693C29.1639 24.6001 29.4026 24.3613 29.4026 24.0668C29.4026 23.7723 29.1639 23.5334 28.8693 23.5334H27.8026C27.508 23.5334 27.2693 23.7722 27.2693 24.0668C27.2693 24.3613 27.508 24.6001 27.8026 24.6001Z" fill="#02BEC5"/>
<path d="M19.8026 25.6666C20.6863 25.6666 21.4026 24.9502 21.4026 24.0666C21.4026 23.1829 20.6863 22.4666 19.8026 22.4666C18.919 22.4666 18.2026 23.1829 18.2026 24.0666C18.2026 24.9502 18.919 25.6666 19.8026 25.6666ZM19.8026 23.5332C20.0972 23.5332 20.336 23.772 20.336 24.0666C20.336 24.3611 20.0972 24.5999 19.8026 24.5999C19.5081 24.5999 19.2693 24.3611 19.2693 24.0666C19.2693 23.7721 19.5081 23.5332 19.8026 23.5332Z" fill="#02BEC5"/>
<path d="M31.0028 31H32.0695C32.364 31 32.6028 30.7612 32.6028 30.4667C32.6028 30.1721 32.364 29.9333 32.0695 29.9333H31.0028C30.7082 29.9333 30.4695 30.1721 30.4695 30.4667C30.4695 30.7612 30.7082 31 31.0028 31Z" fill="#02BEC5"/>
<path d="M27.8026 31H28.8693C29.1639 31 29.4026 30.7612 29.4026 30.4667C29.4026 30.1721 29.1639 29.9333 28.8693 29.9333H27.8026C27.508 29.9333 27.2693 30.1721 27.2693 30.4667C27.2693 30.7612 27.508 31 27.8026 31Z" fill="#02BEC5"/>
<path d="M19.8026 32.0667C20.6863 32.0667 21.4026 31.3504 21.4026 30.4667C21.4026 29.5831 20.6863 28.8667 19.8026 28.8667C18.919 28.8667 18.2026 29.583 18.2026 30.4667C18.2026 31.3504 18.919 32.0667 19.8026 32.0667ZM19.8026 29.9334C20.0972 29.9334 20.336 30.1721 20.336 30.4667C20.336 30.7613 20.0972 31 19.8026 31C19.5081 31 19.2693 30.7613 19.2693 30.4667C19.2693 30.1721 19.5081 29.9334 19.8026 29.9334Z" fill="#02BEC5"/>
<path d="M32.0695 36.3333H31.0028C30.7082 36.3333 30.4695 36.572 30.4695 36.8666C30.4695 37.1611 30.7082 37.3999 31.0028 37.3999H32.0695C32.364 37.3999 32.6028 37.1611 32.6028 36.8666C32.6028 36.572 32.364 36.3333 32.0695 36.3333Z" fill="#02BEC5"/>
<path d="M28.8693 36.3333H27.8026C27.508 36.3333 27.2693 36.572 27.2693 36.8666C27.2693 37.1611 27.508 37.3999 27.8026 37.3999H28.8693C29.1639 37.3999 29.4026 37.1611 29.4026 36.8666C29.4026 36.572 29.1639 36.3333 28.8693 36.3333Z" fill="#02BEC5"/>
<path d="M19.8026 35.2666C18.919 35.2666 18.2026 35.983 18.2026 36.8666C18.2026 37.7502 18.919 38.4666 19.8026 38.4666C20.6863 38.4666 21.4026 37.7503 21.4026 36.8666C21.4026 35.9829 20.6863 35.2666 19.8026 35.2666ZM19.8026 37.4C19.5081 37.4 19.2693 37.1612 19.2693 36.8667C19.2693 36.5721 19.5081 36.3334 19.8026 36.3334C20.0972 36.3334 20.336 36.5721 20.336 36.8667C20.336 37.1612 20.0972 37.4 19.8026 37.4Z" fill="#02BEC5"/>
<path d="M36.8694 44.8665H31.5361C31.5361 44.2774 31.0585 43.7999 30.4694 43.7999H27.2694V40.5999H33.6694C35.1414 40.5981 36.3343 39.4052 36.3361 37.9332V35.7998C36.3337 34.9572 35.9318 34.1657 35.2529 33.6665C35.9319 33.1674 36.3337 32.3758 36.3361 31.5332V29.3999C36.3337 28.5573 35.9318 27.7657 35.2529 27.2666C35.9319 26.7675 36.3337 25.9759 36.3361 25.1333V22.9999C36.3344 21.5279 35.1415 20.3351 33.6694 20.3333H17.6694C16.1973 20.3349 15.0044 21.5278 15.0027 22.9999V25.1332C15.0051 25.9758 15.407 26.7674 16.0859 27.2665C15.4069 27.7656 15.0051 28.5572 15.0027 29.3998V31.5331C15.0051 32.3758 15.407 33.1673 16.0859 33.6665C15.4069 34.1656 15.0051 34.9572 15.0027 35.7998V37.9331C15.0044 39.4051 16.1973 40.598 17.6694 40.5998H24.0694V43.7998H20.8694C20.2803 43.7998 19.8027 44.2774 19.8027 44.8665H15.5361C15.2415 44.8665 15.0027 45.1052 15.0027 45.3998C15.0027 45.6944 15.2415 45.9331 15.5361 45.9331H19.8028C19.8028 46.5222 20.2803 46.9998 20.8694 46.9998H30.4695C31.0586 46.9998 31.5362 46.5222 31.5362 45.9331H36.8695C37.164 45.9331 37.4028 45.6944 37.4028 45.3998C37.4028 45.1052 37.164 44.8665 36.8694 44.8665ZM16.0694 25.1332V22.9999C16.0694 22.1163 16.7858 21.3999 17.6694 21.3999H33.6694C34.553 21.3999 35.2694 22.1162 35.2694 22.9999V25.1332C35.2694 26.0168 34.5531 26.7332 33.6694 26.7332H17.6694C16.7857 26.7332 16.0694 26.0168 16.0694 25.1332ZM16.0694 31.5332V29.3999C16.0694 28.5163 16.7858 27.7999 17.6694 27.7999H33.6694C34.553 27.7999 35.2694 28.5163 35.2694 29.3999V31.5332C35.2694 32.4168 34.5531 33.1332 33.6694 33.1332H17.6694C16.7857 33.1332 16.0694 32.4168 16.0694 31.5332ZM17.6694 39.5332C16.7858 39.5332 16.0694 38.8169 16.0694 37.9332V35.7999C16.0694 34.9163 16.7858 34.1999 17.6694 34.1999H33.6694C34.553 34.1999 35.2694 34.9163 35.2694 35.7999V37.9332C35.2694 38.8168 34.5531 39.5332 33.6694 39.5332H17.6694ZM26.2027 40.5999V43.7999H25.136V40.5999H26.2027ZM30.4694 45.9332H20.8694V44.8665H30.4694V45.9332Z" fill="#02BEC5"/>
<path d="M42.0399 18.5705C42.2457 18.3648 42.2485 18.0321 42.0464 17.8229L39.3797 15.1562C39.33 15.1065 39.2709 15.0671 39.2058 15.0405C39.0753 14.9865 38.9288 14.9865 38.7984 15.0405C38.7333 15.0671 38.6742 15.1064 38.6245 15.1562L35.9578 17.8229C35.7557 18.0321 35.7586 18.3648 35.9643 18.5705C36.1701 18.7763 36.5027 18.7791 36.712 18.577L38.4693 16.8208V25.1333C38.4693 25.4279 38.708 25.6667 39.0026 25.6667C39.2971 25.6667 39.5359 25.4279 39.5359 25.1333V16.8207L41.2922 18.577C41.5015 18.7791 41.8342 18.7762 42.0399 18.5705Z" fill="#02BEC5"/>
<path d="M46.841 26.3627C46.6353 26.1569 46.3027 26.1541 46.0934 26.3562H46.0924L44.3361 28.1124V19.7999C44.3361 19.5054 44.0974 19.2666 43.8028 19.2666C43.5082 19.2666 43.2695 19.5054 43.2695 19.7999V28.1125L41.5132 26.3562C41.304 26.1541 40.9713 26.157 40.7656 26.3627C40.5598 26.5685 40.557 26.9011 40.7591 27.1104L43.4258 29.7771C43.5259 29.8774 43.6617 29.9337 43.8034 29.9337C43.9451 29.9337 44.081 29.8774 44.181 29.7771L46.8477 27.1104C47.0497 26.9011 47.0468 26.5684 46.841 26.3627Z" fill="#02BEC5"/>
</g>
<defs>
<linearGradient id="paint0_linear_64_2627" x1="31" y1="0" x2="31" y2="62" gradientUnits="userSpaceOnUse">
<stop stop-color="#0286B6"/>
<stop offset="1" stop-color="#02BEC5"/>
</linearGradient>
<clipPath id="clip0_64_2627">
<rect width="32" height="32" fill="white" transform="translate(15 15)"/>
</clipPath>
</defs>
</svg>
